<?xml version="1.0" standalone="no"?>
<!DOCTYPE svg PUBLIC "-//W3C//DTD SVG 20010904//EN"
 "http://www.w3.org/TR/2001/REC-SVG-20010904/DTD/svg10.dtd">
<svg version="1.0" xmlns="http://www.w3.org/2000/svg"
 width="551.000000pt" height="551.000000pt" viewBox="0 0 551.000000 551.000000"
 preserveAspectRatio="xMidYMid meet">

<g transform="translate(0.000000,551.000000) scale(0.100000,-0.100000)"
fill="#000000" stroke="none">
<path d="M3645 5430 c-361 -41 -724 -183 -959 -375 l-55 -44 -85 43 c-170 87
-367 135 -593 143 -197 8 -379 -16 -516 -67 -93 -35 -87 -7 -87 -388 0 -185 5
-386 10 -446 6 -61 19 -223 31 -361 11 -137 28 -315 38 -395 10 -80 17 -148
15 -151 -2 -4 -92 -29 -199 -55 l-195 -49 -34 -70 c-73 -151 -70 -360 7 -497
11 -21 19 -39 16 -41 -2 -2 -56 -16 -119 -31 -63 -14 -164 -41 -225 -59 -100
-30 -110 -35 -110 -57 0 -18 7 -26 31 -32 l31 -8 7 -157 c3 -87 9 -195 12
-240 l6 -83 -25 0 c-26 0 -48 -35 -30 -49 9 -8 2098 -356 2348 -392 83 -11
160 -23 173 -25 49 -10 97 -175 89 -304 -6 -101 -39 -200 -66 -200 -10 0 -150
23 -312 50 -333 57 -312 53 -859 154 -223 42 -517 94 -654 116 -138 23 -253
43 -258 46 -4 3 -8 22 -8 42 -1 45 -55 375 -64 391 -10 16 -33 14 -39 -4 -9
-21 20 -396 32 -428 10 -26 23 -32 126 -55 22 -5 126 -32 230 -60 202 -55 478
-116 1035 -232 190 -39 354 -74 364 -79 13 -5 -98 -30 -322 -74 l-341 -67
-343 104 c-189 57 -507 152 -708 211 -201 59 -368 111 -373 114 -4 4 46 19
110 34 191 44 195 45 191 70 -2 18 -9 22 -38 21 -40 -1 -369 -91 -387 -106
-21 -17 -15 -46 23 -97 54 -76 77 -151 78 -251 0 -103 -20 -178 -69 -251 -20
-29 -35 -59 -33 -67 2 -9 36 -26 88 -43 331 -107 1037 -331 1244 -393 l249
-75 316 75 c726 172 2306 575 2318 591 23 30 51 117 63 196 16 108 2 212 -44
318 l-15 37 71 16 c39 9 76 16 84 16 23 0 63 52 85 110 41 108 34 294 -17 416
-8 18 -14 38 -14 43 0 5 38 14 85 21 l86 12 29 59 c78 154 79 334 2 489 l-27
55 -130 22 c-130 22 -336 46 -493 59 -46 3 -81 8 -79 10 2 2 89 20 193 39 255
48 236 42 232 68 -2 17 -11 23 -43 27 l-40 5 -22 105 c-24 119 -29 259 -12
377 13 87 21 103 55 103 13 0 25 8 29 19 6 19 -2 51 -14 51 -17 0 -385 41
-387 43 -1 1 -3 202 -4 447 -1 245 -6 508 -11 585 -5 77 -16 290 -24 474 -9
184 -20 340 -25 346 -15 18 -128 53 -225 71 -107 18 -388 26 -500 14z m511
-110 c87 -11 165 -20 172 -20 9 0 12 -114 12 -537 0 -497 10 -944 26 -1170 6
-89 6 -93 -14 -93 -12 0 -67 24 -124 54 -179 95 -331 140 -514 155 -198 15
-391 -16 -578 -93 -82 -34 -86 -35 -192 -30 -60 3 -132 7 -161 10 l-51 5 -6
57 c-4 31 -8 80 -11 107 -2 28 -9 100 -14 160 -16 177 -32 473 -39 718 -4 125
-11 226 -16 225 -26 -8 10 -851 52 -1199 l8 -66 -133 -7 c-73 -3 -181 -16
-240 -27 -59 -11 -153 -24 -208 -29 -144 -13 -217 -28 -325 -66 -100 -35 -288
-79 -297 -70 -6 6 -44 409 -41 441 0 11 -2 36 -5 55 -9 48 -66 1011 -67 1126
l0 30 148 28 c337 65 631 42 979 -76 l123 -41 82 51 c281 170 608 283 918 315
113 12 369 5 516 -13z m-256 -1712 c98 -21 260 -75 260 -87 0 -3 -71 -1 -157
5 -87 7 -261 17 -388 24 -126 7 -259 15 -295 19 l-65 7 95 23 c183 44 370 47
550 9z m-1266 -64 c69 -6 77 -9 82 -30 7 -28 24 -22 24 8 0 18 4 20 38 14 20
-3 69 -6 107 -6 l70 -1 -29 -22 c-16 -12 -63 -49 -104 -82 -40 -33 -79 -64
-86 -69 -8 -5 -37 8 -81 36 -71 45 -164 87 -245 110 l-45 13 70 17 c82 19 97
20 199 12z m686 -39 c192 -9 573 -33 795 -51 149 -12 210 -20 239 -34 36 -17
66 -18 66 0 0 9 132 1 142 -9 4 -4 -126 -28 -290 -55 -401 -64 -633 -105 -974
-172 l-288 -56 -432 36 c-238 19 -563 45 -723 57 -159 11 -299 24 -309 28 -16
6 -7 15 55 54 101 62 117 68 328 118 l185 43 101 -12 c133 -15 243 -50 395
-128 69 -35 129 -64 132 -64 4 0 36 25 70 56 72 64 145 116 238 168 53 29 72
35 105 31 22 -2 96 -7 165 -10z m1393 -207 c-4 -35 -8 -133 -7 -218 1 -126 5
-168 22 -225 11 -38 18 -73 14 -76 -4 -3 -83 -18 -177 -33 -231 -38 -787 -142
-1145 -215 -162 -34 -299 -61 -303 -61 -4 0 -23 33 -42 73 -37 78 -65 198 -65
276 0 60 23 185 43 233 15 35 17 36 108 53 207 38 1506 254 1532 254 l29 1 -9
-62z m-3178 22 c-3 -5 -10 -10 -16 -10 -5 0 -9 5 -9 10 0 6 7 10 16 10 8 0 12
-4 9 -10z m-74 -27 c5 -14 6 -30 2 -34 -8 -8 -210 5 -219 14 -4 3 153 40 199
46 4 1 12 -11 18 -26z m-107 -78 c137 -14 251 -27 254 -30 2 -2 -1 -33 -7 -68
-24 -139 -10 -305 37 -439 11 -32 17 -59 14 -62 -5 -2 -532 60 -538 63 0 1
-21 45 -47 99 -48 100 -74 209 -62 263 4 15 8 42 10 60 5 35 22 94 37 122 11
22 5 22 302 -8z m611 -58 l230 -22 -3 -25 c-22 -212 -10 -353 42 -496 13 -35
22 -65 20 -67 -4 -4 -492 50 -508 56 -17 7 -54 106 -72 190 -17 81 -18 236 -3
324 13 75 -23 70 294 40z m722 -66 c172 -15 315 -29 317 -32 3 -3 -6 -41 -20
-84 -44 -139 -42 -305 5 -441 l19 -54 -31 0 c-39 0 -322 25 -516 45 -79 8
-145 15 -146 15 -6 0 -45 142 -55 200 -18 99 -13 348 7 383 2 4 28 4 56 1 29
-3 192 -18 364 -33z m-1262 -511 c762 -104 1503 -190 1645 -190 26 0 300 52
609 115 309 63 580 115 604 115 93 0 597 -68 597 -80 0 -4 -51 -12 -112 -19
-461 -49 -1293 -157 -1699 -220 l-248 -39 -208 29 c-459 65 -1814 239 -1854
239 -34 0 15 16 168 55 92 23 177 41 188 39 11 -2 151 -22 310 -44z m-438
-141 c142 -22 596 -89 1010 -149 414 -59 756 -111 761 -114 5 -3 18 -35 27
-70 24 -89 17 -257 -14 -338 -12 -32 -25 -60 -29 -62 -4 -2 -120 13 -257 35
-268 42 -1280 191 -1585 234 -101 14 -185 27 -186 28 -4 4 -20 462 -17 470 6
11 12 10 290 -34z m4141 -7 c46 -106 48 -283 5 -371 l-18 -36 -208 -26 c-115
-14 -210 -23 -212 -20 -2 4 1 31 7 61 16 88 5 234 -25 318 -14 39 -24 72 -23
73 5 4 379 47 412 48 40 1 42 0 62 -47z m-500 -87 c30 -87 38 -233 20 -320
l-13 -60 -120 -17 c-66 -9 -132 -17 -146 -17 l-26 -1 14 63 c21 87 12 203 -24
311 l-29 85 41 6 c115 17 174 23 215 21 l45 -1 23 -70z m-346 -37 c25 -84 30
-235 9 -330 -10 -46 -17 -59 -34 -63 -42 -9 -391 -55 -394 -51 -2 2 4 34 13
72 20 86 14 218 -16 323 -11 40 -19 75 -18 76 6 5 326 43 370 44 l47 1 23 -72z
m-477 -11 c27 -66 39 -188 26 -283 -17 -134 -26 -162 -59 -168 -75 -15 -314
-47 -318 -43 -2 2 2 30 11 63 22 85 20 224 -6 309 -11 39 -23 79 -26 91 -5 20
2 22 159 41 89 12 171 21 181 22 11 1 23 -11 32 -32z m-407 -92 c19 -56 24
-91 24 -176 -1 -90 -16 -224 -28 -238 -5 -6 -558 -99 -563 -95 -2 2 4 32 15
66 29 96 27 300 -4 387 -13 35 -22 65 -20 66 5 5 512 63 533 61 15 -1 25 -17
43 -71z m1509 -346 c30 -74 46 -182 38 -249 -7 -54 -31 -169 -37 -175 -2 -2
-160 -42 -353 -90 -401 -100 -778 -200 -1077 -286 -114 -32 -211 -59 -216 -59
-5 0 0 33 11 73 10 39 21 119 24 177 6 117 -9 195 -53 283 -14 27 -24 51 -21
53 11 11 781 172 1172 244 176 33 349 66 385 74 96 21 102 19 127 -45z m-1452
-160 c-254 -56 -275 -59 -358 -53 -48 3 -86 9 -82 12 6 7 637 100 680 100 17
0 -91 -26 -240 -59z m1224 -425 c40 -51 63 -133 63 -225 0 -88 -21 -188 -44
-206 -11 -9 -534 -143 -555 -143 -5 0 -8 57 -9 128 0 118 -3 133 -33 212 -18
47 -34 92 -37 101 -5 13 41 28 278 87 156 39 291 71 300 71 9 1 26 -11 37 -25z
m-3720 -168 c163 -52 478 -151 701 -221 388 -120 406 -127 437 -162 76 -85
103 -199 80 -336 -8 -46 -24 -105 -35 -130 -20 -44 -22 -46 -49 -37 -54 17
-949 279 -1212 354 -145 42 -265 77 -267 79 -2 2 8 20 22 41 43 63 67 143 72
242 4 81 1 99 -26 177 -16 48 -27 87 -24 87 3 0 139 -42 301 -94z m3068 -16
c38 -77 54 -157 55 -278 0 -68 -4 -118 -11 -125 -7 -7 -906 -247 -926 -247 0
0 0 51 -1 113 -1 123 -17 200 -64 304 l-29 64 59 -7 c54 -6 84 1 362 79 489
139 513 145 523 143 6 -1 20 -22 32 -46z m-1010 -227 c58 -130 78 -294 50
-402 l-12 -44 -425 -113 c-234 -62 -426 -111 -427 -110 -1 1 9 38 23 81 51
161 43 324 -23 432 -18 31 -32 58 -29 60 2 2 143 31 312 64 170 32 345 68 389
78 44 11 87 20 96 20 11 1 27 -22 46 -66z"/>
<path d="M3547 5080 c-15 -5 -46 -22 -69 -39 -23 -17 -49 -31 -57 -31 -9 0
-32 -10 -51 -21 -27 -17 -44 -20 -80 -16 -52 6 -64 1 -72 -30 -6 -21 -2 -23
28 -23 19 0 53 9 75 21 22 11 48 19 57 17 10 -1 31 7 47 18 17 12 41 25 55 29
23 7 24 7 10 -10 -11 -14 -12 -19 -2 -22 6 -3 12 -8 12 -12 0 -9 -82 -43 -115
-48 -11 -2 -24 -8 -29 -13 -15 -15 -29 -12 -22 5 9 24 -8 17 -39 -15 -28 -30
-55 -39 -55 -20 0 12 -20 13 -36 2 -6 -4 -14 -19 -18 -34 -6 -27 -5 -28 33
-28 30 0 49 7 74 30 27 23 44 30 76 30 24 0 65 11 96 25 29 14 67 27 84 28 30
2 31 4 31 47 0 25 3 62 6 83 7 39 5 40 -39 27z"/>
<path d="M1910 4950 c0 -5 5 -10 10 -10 6 0 10 5 10 10 0 6 -4 10 -10 10 -5 0
-10 -4 -10 -10z"/>
<path d="M1771 4934 c0 -11 3 -14 6 -6 3 7 2 16 -1 19 -3 4 -6 -2 -5 -13z"/>
<path d="M1920 4890 c0 -4 7 -11 16 -14 15 -6 14 -10 -6 -31 -13 -14 -29 -25
-37 -25 -7 0 -13 -4 -13 -10 0 -12 13 -13 24 -2 4 4 18 7 29 7 15 0 22 6 22
20 0 16 9 21 45 26 43 5 44 5 15 12 -16 5 -45 12 -62 16 -18 5 -33 6 -33 1z"/>
<path d="M2520 4886 c0 -3 15 -15 33 -27 l32 -23 -24 27 c-22 24 -41 35 -41
23z"/>
<path d="M2465 4870 c4 -6 11 -8 16 -5 14 9 11 15 -7 15 -8 0 -12 -5 -9 -10z"/>
<path d="M1624 4862 c4 -7 14 -12 22 -12 8 0 12 -5 8 -11 -3 -6 -17 -8 -31 -4
-16 4 -22 2 -18 -5 8 -13 32 -12 78 4 l39 13 -29 6 c-15 4 -39 10 -52 13 -17
5 -22 4 -17 -4z"/>
<path d="M3547 4826 c-10 -11 -15 -15 -11 -7 4 9 2 12 -7 9 -8 -3 -14 -14 -13
-26 0 -12 -3 -19 -8 -16 -4 3 -8 -6 -8 -20 0 -13 5 -26 12 -28 6 -2 14 -24 17
-49 6 -41 8 -44 36 -45 28 -1 28 -1 3 3 -20 3 -28 10 -28 24 0 10 5 19 11 19
5 0 7 4 4 10 -3 5 0 7 9 4 8 -3 17 -13 19 -22 4 -13 5 -12 6 3 0 11 -8 31 -19
45 -23 29 -25 46 -7 53 9 4 8 8 -3 16 -13 9 -13 12 -1 20 7 5 12 13 10 19 -2
5 -12 0 -22 -12z"/>
<path d="M2222 4824 c14 -14 21 -15 30 -6 8 8 9 12 1 12 -6 0 -20 3 -30 6 -17
7 -17 6 -1 -12z"/>
<path d="M2035 4820 c3 -5 14 -10 23 -10 15 0 15 2 2 10 -20 13 -33 13 -25 0z"/>
<path d="M3612 4801 c2 -17 1 -28 -3 -26 -15 10 -17 -24 -2 -44 9 -14 13 -36
11 -57 -2 -19 -1 -34 3 -34 4 0 9 12 11 27 2 17 10 29 21 31 13 3 17 -4 17
-30 0 -19 4 -38 9 -43 4 -6 11 -23 15 -39 6 -25 4 -28 -12 -24 -11 3 -26 1
-35 -3 -26 -15 -34 29 -8 48 29 20 17 35 -17 21 -15 -5 -48 -10 -74 -9 -47 1
-48 1 -48 -29 0 -20 5 -30 15 -30 21 0 95 -38 95 -49 0 -5 -7 -12 -16 -15 -34
-13 -59 -5 -79 24 -27 40 -62 43 -98 8 -16 -16 -38 -28 -50 -28 -18 0 -19 2
-7 10 10 7 11 10 2 10 -8 0 -4 16 13 50 18 35 29 48 40 44 8 -4 15 -12 15 -20
0 -8 5 -14 10 -14 18 0 11 35 -11 53 -17 15 -20 27 -17 65 3 26 8 56 13 67 l8
20 -16 -20 c-14 -17 -18 -18 -26 -5 -9 13 -10 13 -15 0 -2 -8 -7 -23 -10 -32
-3 -10 -1 -18 4 -18 6 0 10 -4 10 -9 0 -5 -8 -8 -17 -7 -12 0 -19 -7 -21 -21
-2 -13 2 -23 8 -23 6 0 9 -4 6 -9 -4 -5 -1 -11 5 -13 9 -3 7 -19 -6 -58 l-18
-53 -19 74 c-10 41 -23 76 -28 77 -6 2 -10 15 -10 28 0 13 -5 24 -11 24 -6 0
-9 -9 -6 -20 3 -11 2 -20 -3 -20 -15 0 -19 -55 -4 -71 9 -10 14 -37 13 -75 0
-43 -3 -53 -9 -38 -4 12 -15 24 -24 27 -9 4 -16 13 -16 21 0 10 6 13 17 9 13
-5 12 -1 -5 17 -13 14 -25 35 -28 47 -7 26 -24 31 -24 8 0 -18 -12 -19 -28 -3
-20 20 -13 -4 8 -27 14 -15 21 -42 26 -93 4 -40 11 -72 16 -72 15 0 47 -43 48
-62 0 -10 -5 -18 -11 -18 -15 0 -70 39 -91 64 -16 19 -18 19 -18 3 0 -10 -13
-31 -28 -47 -36 -35 -37 -60 -5 -60 16 0 22 4 17 12 -4 7 -3 8 5 4 12 -8 191
13 191 22 0 2 -10 13 -22 23 -11 11 -18 19 -14 19 11 0 50 -22 57 -31 9 -14
229 23 229 38 0 7 5 13 10 13 6 0 10 -4 10 -10 0 -5 9 -10 21 -10 11 0 18 4
14 9 -3 6 10 8 32 5 35 -5 36 -4 20 9 -17 14 -16 16 14 26 37 13 47 8 29 -14
-16 -19 -14 -19 113 1 111 18 147 34 78 34 -49 0 -54 23 -6 28 31 4 77 -16 69
-30 -7 -10 25 -9 51 2 19 8 19 9 1 9 -10 1 -24 8 -31 18 -8 10 -26 16 -54 16
-35 0 -40 3 -36 17 6 20 -18 34 -51 31 -19 -2 -25 8 -44 63 -12 36 -19 74 -15
85 3 12 0 21 -10 25 -9 3 -15 0 -15 -10 0 -8 -7 -22 -15 -30 -17 -17 -21 -39
-5 -29 6 3 11 -1 11 -9 1 -9 3 -20 4 -26 1 -5 3 -13 4 -17 1 -5 5 -2 10 6 7
11 13 7 25 -18 9 -17 15 -31 13 -31 -3 0 -25 11 -49 25 -60 33 -82 59 -75 86
4 15 -2 32 -19 51 -28 35 -30 55 -7 88 16 24 16 24 -2 10 -14 -11 -19 -12 -22
-2 -9 25 -25 11 -21 -17z m-292 -275 c0 -18 -5 -37 -12 -44 -9 -9 -5 -12 19
-12 37 0 65 -26 42 -41 -21 -13 -44 -11 -101 11 -40 15 -54 17 -60 7 -12 -19
-10 21 2 43 11 21 40 17 40 -6 0 -8 8 -14 18 -14 15 0 18 6 14 30 -2 16 -1 41
2 56 6 21 9 24 21 14 8 -7 15 -27 15 -44z m456 39 c26 -19 -1 -20 -36 0 -23
13 -23 14 -4 15 11 0 29 -7 40 -15z m-14 -42 l39 -26 -42 -15 c-38 -12 -43
-12 -51 3 -6 9 -19 20 -31 24 -21 8 -20 9 8 24 38 21 33 21 77 -10z m78 2 c26
-28 23 -31 -15 -13 -14 6 -25 17 -25 25 0 20 14 16 40 -12z m-374 -20 c-22
-16 -46 -20 -46 -7 0 15 13 22 39 22 25 -1 25 -1 7 -15z m24 -40 c7 -8 9 -15
4 -15 -4 0 0 -6 10 -13 11 -8 17 -20 14 -27 -3 -9 -16 -3 -41 20 -20 17 -37
36 -37 41 0 15 37 10 50 -6z m125 -5 c4 -7 13 -7 26 0 11 6 25 8 32 3 7 -4 -1
-10 -23 -15 -19 -5 -42 -10 -51 -12 -8 -2 -26 4 -40 15 l-24 19 37 0 c20 0 40
-5 43 -10z m175 -21 c0 -5 -12 -9 -26 -9 -22 0 -24 2 -14 14 12 15 40 11 40
-5z m-336 -15 c13 -5 13 -8 1 -20 -7 -8 -20 -14 -29 -14 -21 0 -31 21 -15 31
17 10 23 11 43 3z"/>
<path d="M2106 4808 c3 -5 10 -6 15 -3 13 9 11 12 -6 12 -8 0 -12 -4 -9 -9z"/>
<path d="M2160 4816 c0 -9 30 -14 35 -6 4 6 -3 10 -14 10 -12 0 -21 -2 -21 -4z"/>
<path d="M2526 4810 c-27 -9 -7 -18 24 -10 18 4 21 8 10 12 -8 3 -24 2 -34 -2z"/>
<path d="M1550 4778 c-50 -32 -47 -37 6 -9 20 11 42 17 50 14 8 -3 14 -1 14 5
0 21 -27 18 -70 -10z"/>
<path d="M1714 4794 c-18 -14 -18 -14 6 -3 31 14 36 19 24 19 -6 0 -19 -7 -30
-16z"/>
<path d="M2257 4783 c-20 -14 -35 -28 -33 -31 3 -2 16 5 31 16 21 17 35 19 84
15 33 -3 73 -1 92 6 22 8 36 8 45 1 7 -7 15 -7 18 -2 9 16 -30 21 -79 10 -31
-7 -55 -6 -77 1 -41 14 -38 15 -81 -16z"/>
<path d="M2015 4771 c-6 -5 -19 -11 -30 -14 -19 -4 -19 -5 1 -6 12 0 27 6 34
14 14 16 10 20 -5 6z"/>
<path d="M1857 4759 c-11 -6 -33 -8 -50 -5 -29 5 -30 4 -14 -8 14 -11 26 -12
48 -4 16 5 32 14 35 19 7 11 3 11 -19 -2z"/>
<path d="M1590 4739 c0 -5 5 -7 10 -4 6 3 10 8 10 11 0 2 -4 4 -10 4 -5 0 -10
-5 -10 -11z"/>
<path d="M4075 4081 c-4 -13 -21 -29 -38 -36 l-32 -13 28 -11 c15 -6 32 -22
39 -36 l11 -25 11 23 c7 12 25 28 40 36 l29 14 -27 11 c-15 6 -34 22 -41 35
l-13 24 -7 -22z"/>
<path d="M2958 3793 c7 -3 16 -2 19 1 4 3 -2 6 -13 5 -11 0 -14 -3 -6 -6z"/>
<path d="M4205 3111 c-408 -70 -950 -172 -967 -182 -37 -23 34 -15 354 40 194
33 493 83 663 111 380 62 365 59 365 76 0 22 -48 17 -415 -45z"/>
<path d="M4530 2963 c-244 -26 -1224 -235 -1259 -269 -32 -30 22 -24 240 25
255 57 402 85 709 136 219 37 377 69 387 79 11 11 -7 36 -24 34 -10 0 -34 -3
-53 -5z"/>
<path d="M4338 1643 c7 -3 16 -2 19 1 4 3 -2 6 -13 5 -11 0 -14 -3 -6 -6z"/>
<path d="M4418 1643 c7 -3 16 -2 19 1 4 3 -2 6 -13 5 -11 0 -14 -3 -6 -6z"/>
<path d="M4223 1594 l-28 -25 33 22 c17 13 32 24 32 26 0 8 -11 1 -37 -23z"/>
<path d="M4373 1613 c9 -2 23 -2 30 0 6 3 -1 5 -18 5 -16 0 -22 -2 -12 -5z"/>
<path d="M4234 1548 l-19 -23 23 19 c21 18 27 26 19 26 -2 0 -12 -10 -23 -22z"/>
<path d="M4408 1563 c7 -3 16 -2 19 1 4 3 -2 6 -13 5 -11 0 -14 -3 -6 -6z"/>
<path d="M3910 1546 c0 -2 8 -10 18 -17 15 -13 16 -12 3 4 -13 16 -21 21 -21
13z"/>
<path d="M4008 1383 c7 -3 16 -2 19 1 4 3 -2 6 -13 5 -11 0 -14 -3 -6 -6z"/>
<path d="M3618 1363 c7 -3 16 -2 19 1 4 3 -2 6 -13 5 -11 0 -14 -3 -6 -6z"/>
<path d="M3988 1353 c6 -2 18 -2 25 0 6 3 1 5 -13 5 -14 0 -19 -2 -12 -5z"/>
<path d="M3778 1293 c7 -3 16 -2 19 1 4 3 -2 6 -13 5 -11 0 -14 -3 -6 -6z"/>
<path d="M3818 1293 c7 -3 16 -2 19 1 4 3 -2 6 -13 5 -11 0 -14 -3 -6 -6z"/>
<path d="M754 989 c-3 -6 -2 -14 2 -19 5 -4 277 -89 604 -189 327 -100 615
-189 639 -197 51 -16 81 -18 81 -5 0 5 -35 21 -77 35 -292 94 -1223 386 -1234
386 -5 0 -11 -5 -15 -11z"/>
<path d="M753 804 c-3 -9 -2 -19 3 -23 10 -9 417 -137 919 -290 329 -100 425
-124 425 -103 0 12 -104 50 -280 101 -74 22 -317 97 -540 166 -223 70 -431
136 -463 146 -51 15 -59 16 -64 3z"/>
<path d="M4507 5384 c-14 -14 -7 -35 11 -32 9 2 17 10 17 17 0 16 -18 25 -28
15z"/>
<path d="M4520 5054 c-9 -10 -10 -18 -2 -26 12 -12 32 -2 32 17 0 21 -16 26
-30 9z"/>
<path d="M640 3769 c0 -5 5 -7 10 -4 6 3 10 8 10 11 0 2 -4 4 -10 4 -5 0 -10
-5 -10 -11z"/>
<path d="M614 3687 c3 -10 6 -21 6 -23 0 -2 10 -4 23 -3 14 0 17 2 7 6 -8 3
-21 13 -29 22 -12 15 -13 14 -7 -2z"/>
<path d="M633 3638 c0 -23 73 -67 100 -60 18 5 15 7 -16 13 -26 4 -47 16 -61
34 -15 19 -23 23 -23 13z"/>
<path d="M700 3610 c8 -5 20 -10 25 -10 6 0 3 5 -5 10 -8 5 -19 10 -25 10 -5
0 -3 -5 5 -10z"/>
<path d="M1085 3489 c-4 -6 -5 -12 -2 -15 2 -3 7 2 10 11 7 17 1 20 -8 4z"/>
<path d="M445 3468 c7 -17 64 -52 72 -44 4 3 1 6 -5 6 -6 0 -24 12 -41 26 -17
14 -29 20 -26 12z"/>
<path d="M652 3444 c-13 -9 -31 -13 -45 -9 -16 5 -18 4 -7 -4 11 -7 5 -11 -25
-14 -25 -3 -20 -4 13 -2 39 1 59 7 75 23 25 26 21 28 -11 6z"/>
<path d="M755 3289 c-22 -10 -33 -18 -25 -18 8 0 31 8 50 19 45 25 27 24 -25
-1z"/>
<path d="M678 3243 c12 -2 30 -2 40 0 9 3 -1 5 -23 4 -22 0 -30 -2 -17 -4z"/>
<path d="M1080 1768 c0 -11 229 -56 913 -180 501 -91 918 -163 925 -161 20 8
14 33 -10 43 -13 5 -421 75 -908 155 -487 81 -893 149 -902 151 -11 3 -18 0
-18 -8z"/>
<path d="M520 1755 c-10 -12 -10 -19 -2 -27 16 -16 42 -2 42 22 0 24 -22 26
-40 5z"/>
<path d="M756 1609 c-30 -24 -34 -59 -8 -82 25 -22 44 -21 76 4 30 24 34 59 8
82 -25 22 -44 21 -76 -4z"/>
<path d="M270 1545 c-10 -11 -10 -19 -2 -27 15 -15 44 -2 40 19 -4 23 -22 27
-38 8z"/>
<path d="M1155 1530 c-4 -6 0 -12 7 -15 49 -17 1112 -198 1641 -280 115 -18
140 -16 135 12 -2 13 -21 21 -73 30 -180 31 -1357 214 -1495 233 -85 11 -167
22 -182 25 -15 2 -30 0 -33 -5z"/>
<path d="M73 1224 c-3 -8 -1 -20 6 -27 14 -14 47 15 37 32 -10 16 -36 13 -43
-5z"/>
</g>
</svg>
