<?xml version="1.0" standalone="no"?>
<!DOCTYPE svg PUBLIC "-//W3C//DTD SVG 20010904//EN"
 "http://www.w3.org/TR/2001/REC-SVG-20010904/DTD/svg10.dtd">
<svg version="1.0" xmlns="http://www.w3.org/2000/svg"
 width="550.000000pt" height="550.000000pt" viewBox="0 0 550.000000 550.000000"
 preserveAspectRatio="xMidYMid meet">

<g transform="translate(0.000000,550.000000) scale(0.100000,-0.100000)"
fill="#000000" stroke="none">
<path d="M2475 5334 c-425 -65 -825 -226 -1155 -465 l-75 -54 -281 -5 -281 -5
-40 -27 c-76 -50 -78 -62 -79 -413 l-1 -310 -58 -115 c-285 -567 -364 -1243
-214 -1828 61 -241 162 -500 254 -655 32 -53 35 -64 25 -90 -14 -41 -13 -619
1 -672 15 -52 74 -110 126 -124 25 -7 153 -11 347 -10 l308 1 91 -55 c325
-193 683 -319 1037 -363 132 -16 437 -19 560 -4 383 45 761 175 1071 367 l94
58 315 2 c173 1 330 5 348 8 44 8 107 70 121 120 14 52 15 649 1 675 -8 15 2
42 49 134 146 284 245 612 287 956 20 160 15 437 -10 622 -36 260 -129 570
-248 823 l-70 150 2 280 c2 322 -4 359 -59 414 -56 56 -87 61 -370 61 l-251 0
-123 84 c-158 108 -259 165 -416 236 -230 104 -514 183 -753 209 -133 15 -444
12 -553 -5z m-747 -534 c25 -18 52 -51 68 -82 44 -87 37 -111 -108 -364 -69
-121 -141 -250 -162 -287 l-36 -68 0 -1439 c0 -791 -3 -1441 -8 -1444 -4 -2
-76 -6 -161 -7 l-153 -3 0 1623 1 1622 43 57 c63 83 172 195 258 267 76 63
200 154 211 155 3 0 25 -13 47 -30z m2312 -71 c48 -32 97 -70 110 -84 l25 -26
-34 -62 c-19 -34 -87 -150 -151 -258 l-117 -196 -7 -109 -7 -109 -41 -42
c-131 -135 -384 -120 -457 26 -34 68 -34 82 10 157 22 38 79 136 126 218 178
310 304 509 346 547 l42 37 35 -21 c19 -11 73 -47 120 -78z m-1583 6 c65 -19
101 -48 124 -99 25 -56 24 -98 -7 -159 -38 -75 -289 -511 -336 -582 -65 -100
-152 -145 -276 -145 -104 1 -183 43 -222 120 -36 71 -34 88 16 175 25 44 84
147 131 230 209 365 256 419 403 459 71 19 105 19 167 1z m816 1 c64 -19 106
-52 128 -100 27 -60 23 -102 -15 -171 -129 -235 -365 -639 -398 -682 -78 -102
-229 -142 -339 -91 -84 39 -114 76 -138 166 -13 48 -23 28 157 342 228 399
268 452 372 505 88 45 157 54 233 31z m-2197 -145 c-3 -5 -35 -44 -71 -87 -37
-44 -98 -127 -138 -186 -39 -60 -75 -108 -79 -108 -4 0 -8 88 -8 195 l0 195
151 0 c84 0 148 -4 145 -9z m3704 -180 c0 -105 -4 -192 -9 -195 -5 -3 -25 20
-46 52 -49 73 -210 286 -230 302 -8 7 -15 16 -15 21 0 5 68 9 150 9 l150 0 0
-189z m-422 -30 l32 -49 0 -1617 0 -1617 -22 6 c-13 3 -83 6 -155 6 l-133 0 0
1470 0 1469 66 107 c36 58 88 144 116 190 27 46 53 84 57 84 4 0 22 -22 39
-49z m-2098 -906 l0 -155 -36 -40 c-20 -22 -61 -52 -92 -67 -51 -25 -68 -28
-157 -28 -93 0 -104 2 -155 31 -30 17 -70 50 -87 73 l-33 43 0 144 0 144 46
-30 c144 -91 331 -87 468 10 22 16 42 29 44 30 1 0 2 -70 2 -155z m1150 83
c55 -28 79 -33 158 -36 78 -4 103 -1 155 18 34 13 76 33 93 46 17 13 34 24 37
24 4 0 7 -69 7 -153 l0 -153 -37 -33 c-80 -71 -188 -100 -295 -81 -77 14 -124
38 -172 87 -59 60 -64 76 -63 203 0 139 2 146 31 125 11 -9 50 -30 86 -47z
m-330 -262 l0 -264 -44 -49 c-149 -166 -391 -162 -525 7 l-41 52 0 254 c0 140
2 254 5 254 3 0 26 -15 52 -34 71 -50 119 -67 209 -73 103 -7 195 18 274 76
30 21 58 40 63 40 4 1 7 -118 7 -263z m-824 -2353 c-2 -3 -26 7 -53 20 -100
51 -285 103 -465 132 l-38 6 0 959 c0 528 3 960 6 960 3 0 24 -11 47 -24 126
-74 312 -73 451 2 l51 27 3 -1039 c1 -572 0 -1041 -2 -1043z m1086 2059 c66
-44 124 -63 212 -69 90 -6 188 12 256 47 21 11 41 20 42 20 2 0 3 -427 3 -949
l0 -949 -46 -6 c-123 -17 -330 -76 -450 -129 l-56 -25 -7 102 c-7 114 -9 1986
-2 1986 3 0 24 -13 48 -28z m-846 -280 c18 -28 133 -81 199 -92 113 -19 255
15 337 80 20 17 39 30 42 30 3 0 6 -200 6 -443 l0 -444 -29 -39 c-38 -54 -86
-93 -149 -122 -46 -21 -64 -23 -140 -20 -109 4 -162 29 -238 111 l-54 58 0
450 c0 247 3 449 8 449 4 0 12 -8 18 -18z m584 -1542 l0 -370 -32 -27 c-73
-61 -207 -203 -233 -247 -15 -25 -30 -46 -33 -46 -4 0 -25 28 -46 61 -22 33
-90 108 -153 167 l-113 106 0 358 c0 197 3 358 6 358 3 0 20 -11 38 -25 89
-68 216 -97 329 -76 73 13 168 55 198 87 12 13 26 24 31 24 4 0 8 -166 8 -370z
m-1947 -17 c-3 -7 0 -13 6 -13 6 0 11 -5 11 -11 0 -14 -18 -2 -29 20 -7 13 -6
18 4 18 7 0 11 -6 8 -14z m-146 -244 c67 -76 120 -139 118 -141 -2 -1 -76 -2
-164 0 l-161 3 0 164 c0 90 3 171 6 180 5 12 14 7 43 -27 20 -23 91 -104 158
-179z m3783 41 l0 -180 -155 0 c-85 0 -155 3 -155 6 0 3 27 34 59 68 33 33
101 112 151 174 50 61 93 112 96 112 2 0 4 -81 4 -180z m-3021 -92 c307 -58
585 -199 779 -395 50 -51 92 -98 92 -103 0 -17 -65 -11 -225 20 -253 50 -474
124 -683 229 -111 56 -312 175 -387 230 l-50 36 75 6 c112 9 282 0 399 -23z
m2521 14 c0 -12 -262 -184 -360 -236 -125 -66 -300 -139 -431 -179 -211 -65
-549 -127 -549 -101 0 5 36 46 79 90 203 212 481 353 821 415 100 18 440 27
440 11z"/>
</g>
</svg>
