<svg xmlns="http://www.w3.org/2000/svg" xmlns:xlink="http://www.w3.org/1999/xlink" width="500" zoomAndPan="magnify" viewBox="0 0 375 374.999991" height="500" preserveAspectRatio="xMidYMid meet" version="1.0"><defs><g/><clipPath id="0e883b74c2"><path d="M 60.148438 60.148438 L 314.851562 60.148438 L 314.851562 314.851562 L 60.148438 314.851562 Z M 60.148438 60.148438 " clip-rule="nonzero"/></clipPath><clipPath id="b1b5ef4cbe"><path d="M 187.5 60.148438 C 117.164062 60.148438 60.148438 117.164062 60.148438 187.5 C 60.148438 257.835938 117.164062 314.851562 187.5 314.851562 C 257.835938 314.851562 314.851562 257.835938 314.851562 187.5 C 314.851562 117.164062 257.835938 60.148438 187.5 60.148438 Z M 187.5 60.148438 " clip-rule="nonzero"/></clipPath><clipPath id="9d00209cd6"><path d="M 63.796875 63.796875 L 311.203125 63.796875 L 311.203125 311.203125 L 63.796875 311.203125 Z M 63.796875 63.796875 " clip-rule="nonzero"/></clipPath><clipPath id="c1224d5a7e"><path d="M 187.5 63.796875 C 119.179688 63.796875 63.796875 119.179688 63.796875 187.5 C 63.796875 255.820312 119.179688 311.203125 187.5 311.203125 C 255.820312 311.203125 311.203125 255.820312 311.203125 187.5 C 311.203125 119.179688 255.820312 63.796875 187.5 63.796875 Z M 187.5 63.796875 " clip-rule="nonzero"/></clipPath><clipPath id="eabf1fc8d2"><path d="M 67.117188 67.117188 L 307.882812 67.117188 L 307.882812 307.882812 L 67.117188 307.882812 Z M 67.117188 67.117188 " clip-rule="nonzero"/></clipPath><clipPath id="7271023200"><path d="M 187.5 67.117188 C 121.015625 67.117188 67.117188 121.015625 67.117188 187.5 C 67.117188 253.984375 121.015625 307.882812 187.5 307.882812 C 253.984375 307.882812 307.882812 253.984375 307.882812 187.5 C 307.882812 121.015625 253.984375 67.117188 187.5 67.117188 Z M 187.5 67.117188 " clip-rule="nonzero"/></clipPath><clipPath id="8e5fe96336"><path d="M 78.8125 78.8125 L 296.1875 78.8125 L 296.1875 296.1875 L 78.8125 296.1875 Z M 78.8125 78.8125 " clip-rule="nonzero"/></clipPath><clipPath id="39b2e02719"><path d="M 187.5 78.8125 C 127.472656 78.8125 78.8125 127.472656 78.8125 187.5 C 78.8125 247.527344 127.472656 296.1875 187.5 296.1875 C 247.527344 296.1875 296.1875 247.527344 296.1875 187.5 C 296.1875 127.472656 247.527344 78.8125 187.5 78.8125 Z M 187.5 78.8125 " clip-rule="nonzero"/></clipPath><clipPath id="0dd0ea0f92"><path d="M 78.8125 78.8125 L 296.183594 78.8125 L 296.183594 296.183594 L 78.8125 296.183594 Z M 78.8125 78.8125 " clip-rule="nonzero"/></clipPath><clipPath id="fcb00cfea6"><path d="M 187.5 78.8125 C 127.472656 78.8125 78.8125 127.472656 78.8125 187.5 C 78.8125 247.523438 127.472656 296.183594 187.5 296.183594 C 247.523438 296.183594 296.183594 247.523438 296.183594 187.5 C 296.183594 127.472656 247.523438 78.8125 187.5 78.8125 Z M 187.5 78.8125 " clip-rule="nonzero"/></clipPath><clipPath id="f2c4a04358"><path d="M 86.109375 86.109375 L 288.890625 86.109375 L 288.890625 288.890625 L 86.109375 288.890625 Z M 86.109375 86.109375 " clip-rule="nonzero"/></clipPath><clipPath id="422f365efa"><path d="M 187.5 86.109375 C 131.503906 86.109375 86.109375 131.503906 86.109375 187.5 C 86.109375 243.496094 131.503906 288.890625 187.5 288.890625 C 243.496094 288.890625 288.890625 243.496094 288.890625 187.5 C 288.890625 131.503906 243.496094 86.109375 187.5 86.109375 Z M 187.5 86.109375 " clip-rule="nonzero"/></clipPath><clipPath id="5c9a10a08b"><path d="M 86.109375 86.109375 L 288.609375 86.109375 L 288.609375 288.609375 L 86.109375 288.609375 Z M 86.109375 86.109375 " clip-rule="nonzero"/></clipPath><clipPath id="834383a242"><path d="M 187.496094 86.109375 C 131.5 86.109375 86.109375 131.5 86.109375 187.496094 C 86.109375 243.488281 131.5 288.878906 187.496094 288.878906 C 243.488281 288.878906 288.878906 243.488281 288.878906 187.496094 C 288.878906 131.5 243.488281 86.109375 187.496094 86.109375 Z M 187.496094 86.109375 " clip-rule="nonzero"/></clipPath><clipPath id="3ffeb07f08"><path d="M 75.277344 75.277344 L 299.527344 75.277344 L 299.527344 142.777344 L 75.277344 142.777344 Z M 75.277344 75.277344 " clip-rule="nonzero"/></clipPath><clipPath id="2236a7a61a"><path d="M 75.464844 211.03125 L 299.714844 211.03125 L 299.714844 299.53125 L 75.464844 299.53125 Z M 75.464844 211.03125 " clip-rule="nonzero"/></clipPath><clipPath id="81e28aae45"><path d="M 98.761719 98.761719 L 276.238281 98.761719 L 276.238281 276.238281 L 98.761719 276.238281 Z M 98.761719 98.761719 " clip-rule="nonzero"/></clipPath><clipPath id="1361ee1726"><path d="M 187.5 98.761719 C 138.492188 98.761719 98.761719 138.492188 98.761719 187.5 C 98.761719 236.507812 138.492188 276.238281 187.5 276.238281 C 236.507812 276.238281 276.238281 236.507812 276.238281 187.5 C 276.238281 138.492188 236.507812 98.761719 187.5 98.761719 Z M 187.5 98.761719 " clip-rule="nonzero"/></clipPath><clipPath id="fb40bb14e9"><path d="M 101.972656 101.972656 L 273.027344 101.972656 L 273.027344 273.027344 L 101.972656 273.027344 Z M 101.972656 101.972656 " clip-rule="nonzero"/></clipPath><clipPath id="4e7b012087"><path d="M 187.5 101.972656 C 140.265625 101.972656 101.972656 140.265625 101.972656 187.5 C 101.972656 234.734375 140.265625 273.027344 187.5 273.027344 C 234.734375 273.027344 273.027344 234.734375 273.027344 187.5 C 273.027344 140.265625 234.734375 101.972656 187.5 101.972656 Z M 187.5 101.972656 " clip-rule="nonzero"/></clipPath><clipPath id="a47cabe857"><path d="M 105.578125 105.578125 L 269.421875 105.578125 L 269.421875 269.421875 L 105.578125 269.421875 Z M 105.578125 105.578125 " clip-rule="nonzero"/></clipPath><clipPath id="e87231a97c"><path d="M 187.5 105.578125 C 142.257812 105.578125 105.578125 142.257812 105.578125 187.5 C 105.578125 232.742188 142.257812 269.421875 187.5 269.421875 C 232.742188 269.421875 269.421875 232.742188 269.421875 187.5 C 269.421875 142.257812 232.742188 105.578125 187.5 105.578125 Z M 187.5 105.578125 " clip-rule="nonzero"/></clipPath><clipPath id="4b974f379f"><path d="M 265 126 L 297 126 L 297 157 L 265 157 Z M 265 126 " clip-rule="nonzero"/></clipPath><clipPath id="b86082030f"><path d="M 265.574219 138.695312 L 287.128906 126.351562 L 297.0625 143.703125 L 275.511719 156.046875 Z M 265.574219 138.695312 " clip-rule="nonzero"/></clipPath><clipPath id="e0faf26005"><path d="M 265.574219 138.695312 L 287.074219 126.382812 L 297.007812 143.734375 L 275.511719 156.046875 Z M 265.574219 138.695312 " clip-rule="nonzero"/></clipPath><clipPath id="f438d95c7f"><path d="M 77 126 L 110 126 L 110 157 L 77 157 Z M 77 126 " clip-rule="nonzero"/></clipPath><clipPath id="093f1ba0c4"><path d="M 88.074219 126.335938 L 109.519531 138.859375 L 99.441406 156.125 L 77.992188 143.601562 Z M 88.074219 126.335938 " clip-rule="nonzero"/></clipPath><clipPath id="120481805d"><path d="M 88.074219 126.335938 L 109.46875 138.828125 L 99.386719 156.09375 L 77.992188 143.601562 Z M 88.074219 126.335938 " clip-rule="nonzero"/></clipPath><clipPath id="489098b03e"><path d="M 273 202 L 302 202 L 302 228 L 273 228 Z M 273 202 " clip-rule="nonzero"/></clipPath><clipPath id="2872ed1737"><path d="M 277.789062 202.449219 L 301.925781 208.300781 L 297.214844 227.734375 L 273.078125 221.882812 Z M 277.789062 202.449219 " clip-rule="nonzero"/></clipPath><clipPath id="32681e178e"><path d="M 277.789062 202.449219 L 301.863281 208.289062 L 297.15625 227.71875 L 273.078125 221.882812 Z M 277.789062 202.449219 " clip-rule="nonzero"/></clipPath><clipPath id="e076cdb792"><path d="M 73 202 L 103 202 L 103 228 L 73 228 Z M 73 202 " clip-rule="nonzero"/></clipPath><clipPath id="724b44fe8b"><path d="M 73.136719 208.398438 L 97.226562 202.359375 L 102.085938 221.753906 L 77.996094 227.792969 Z M 73.136719 208.398438 " clip-rule="nonzero"/></clipPath><clipPath id="de5248e466"><path d="M 73.136719 208.398438 L 97.164062 202.375 L 102.027344 221.769531 L 77.996094 227.792969 Z M 73.136719 208.398438 " clip-rule="nonzero"/></clipPath><clipPath id="3ec0370732"><path d="M 124 126.382812 L 251.445312 126.382812 L 251.445312 238.882812 L 124 238.882812 Z M 124 126.382812 " clip-rule="nonzero"/></clipPath></defs><g clip-path="url(#0e883b74c2)"><g clip-path="url(#b1b5ef4cbe)"><path fill="#e0b526" d="M 60.148438 60.148438 L 314.851562 60.148438 L 314.851562 314.851562 L 60.148438 314.851562 Z M 60.148438 60.148438 " fill-opacity="1" fill-rule="nonzero"/></g></g><g clip-path="url(#9d00209cd6)"><g clip-path="url(#c1224d5a7e)"><path fill="#ffffff" d="M 63.796875 63.796875 L 311.203125 63.796875 L 311.203125 311.203125 L 63.796875 311.203125 Z M 63.796875 63.796875 " fill-opacity="1" fill-rule="nonzero"/></g></g><g clip-path="url(#eabf1fc8d2)"><g clip-path="url(#7271023200)"><path fill="#f1d85a" d="M 67.117188 67.117188 L 307.882812 67.117188 L 307.882812 307.882812 L 67.117188 307.882812 Z M 67.117188 67.117188 " fill-opacity="1" fill-rule="nonzero"/></g></g><g clip-path="url(#8e5fe96336)"><g clip-path="url(#39b2e02719)"><path fill="#f1d85a" d="M 78.8125 78.8125 L 296.1875 78.8125 L 296.1875 296.1875 L 78.8125 296.1875 Z M 78.8125 78.8125 " fill-opacity="1" fill-rule="nonzero"/></g></g><g clip-path="url(#0dd0ea0f92)"><g clip-path="url(#fcb00cfea6)"><path stroke-linecap="butt" transform="matrix(0.75, 0, 0, 0.75, 78.813038, 78.812983)" fill="none" stroke-linejoin="miter" d="M 144.915959 -0.000643766 C 64.879496 -0.000643766 -0.000716966 64.879569 -0.000716966 144.916032 C -0.000716966 224.947288 64.879496 289.8275 144.915959 289.8275 C 224.947214 289.8275 289.827427 224.947288 289.827427 144.916032 C 289.827427 64.879569 224.947214 -0.000643766 144.915959 -0.000643766 Z M 144.915959 -0.000643766 " stroke="#e0b526" stroke-width="4" stroke-opacity="1" stroke-miterlimit="4"/></g></g><g clip-path="url(#f2c4a04358)"><g clip-path="url(#422f365efa)"><path fill="#f1d85a" d="M 86.109375 86.109375 L 288.890625 86.109375 L 288.890625 288.890625 L 86.109375 288.890625 Z M 86.109375 86.109375 " fill-opacity="1" fill-rule="nonzero"/></g></g><g clip-path="url(#5c9a10a08b)"><g clip-path="url(#834383a242)"><path stroke-linecap="butt" transform="matrix(0.75, 0, 0, 0.75, 86.110276, 86.11019)" fill="none" stroke-linejoin="miter" d="M 135.1811 -0.00108606 C 60.519636 -0.00108606 -0.00120086 60.519751 -0.00120086 135.181214 C -0.00120086 209.837469 60.519636 270.358307 135.1811 270.358307 C 209.837355 270.358307 270.358192 209.837469 270.358192 135.181214 C 270.358192 60.519751 209.837355 -0.00108606 135.1811 -0.00108606 Z M 135.1811 -0.00108606 " stroke="#e0b526" stroke-width="4" stroke-opacity="1" stroke-miterlimit="4"/></g></g><g clip-path="url(#3ffeb07f08)"><path fill="#f1d85a" d="M 299.714844 187.496094 C 299.714844 189.332031 299.667969 191.167969 299.578125 193 C 299.488281 194.835938 299.355469 196.667969 299.171875 198.496094 C 298.992188 200.324219 298.769531 202.144531 298.5 203.960938 C 298.230469 205.777344 297.917969 207.585938 297.558594 209.386719 C 297.199219 211.1875 296.796875 212.980469 296.351562 214.761719 C 295.90625 216.542969 295.414062 218.3125 294.882812 220.070312 C 294.347656 221.828125 293.773438 223.570312 293.152344 225.300781 C 292.535156 227.03125 291.875 228.742188 291.171875 230.441406 C 290.46875 232.136719 289.726562 233.816406 288.941406 235.476562 C 288.15625 237.136719 287.328125 238.773438 286.464844 240.394531 C 285.597656 242.015625 284.691406 243.613281 283.75 245.1875 C 282.804688 246.761719 281.820312 248.3125 280.800781 249.839844 C 279.78125 251.367188 278.722656 252.867188 277.628906 254.34375 C 276.535156 255.820312 275.40625 257.265625 274.242188 258.6875 C 273.078125 260.105469 271.878906 261.496094 270.644531 262.855469 C 269.410156 264.21875 268.144531 265.546875 266.847656 266.847656 C 265.546875 268.144531 264.21875 269.410156 262.855469 270.644531 C 261.496094 271.878906 260.105469 273.078125 258.6875 274.242188 C 257.265625 275.40625 255.820312 276.535156 254.34375 277.628906 C 252.867188 278.722656 251.367188 279.78125 249.839844 280.800781 C 248.3125 281.820312 246.761719 282.804688 245.1875 283.75 C 243.613281 284.691406 242.015625 285.597656 240.394531 286.464844 C 238.773438 287.328125 237.136719 288.15625 235.476562 288.941406 C 233.816406 289.726562 232.136719 290.46875 230.441406 291.171875 C 228.742188 291.875 227.03125 292.535156 225.300781 293.152344 C 223.570312 293.773438 221.828125 294.347656 220.070312 294.882812 C 218.3125 295.414062 216.542969 295.90625 214.761719 296.351562 C 212.980469 296.796875 211.1875 297.199219 209.386719 297.558594 C 207.585938 297.917969 205.777344 298.230469 203.960938 298.5 C 202.144531 298.769531 200.324219 298.992188 198.496094 299.171875 C 196.667969 299.355469 194.835938 299.488281 193 299.578125 C 191.167969 299.667969 189.332031 299.714844 187.496094 299.714844 C 185.660156 299.714844 183.824219 299.667969 181.988281 299.578125 C 180.15625 299.488281 178.324219 299.355469 176.496094 299.171875 C 174.667969 298.992188 172.847656 298.769531 171.03125 298.5 C 169.210938 298.230469 167.402344 297.917969 165.601562 297.558594 C 163.800781 297.199219 162.011719 296.796875 160.226562 296.351562 C 158.445312 295.90625 156.675781 295.414062 154.921875 294.882812 C 153.164062 294.347656 151.417969 293.773438 149.691406 293.152344 C 147.960938 292.535156 146.246094 291.875 144.550781 291.171875 C 142.855469 290.46875 141.175781 289.726562 139.515625 288.941406 C 137.855469 288.15625 136.214844 287.328125 134.597656 286.464844 C 132.976562 285.597656 131.378906 284.691406 129.804688 283.75 C 128.226562 282.804688 126.675781 281.820312 125.148438 280.800781 C 123.621094 279.78125 122.121094 278.722656 120.648438 277.628906 C 119.171875 276.535156 117.722656 275.40625 116.304688 274.242188 C 114.886719 273.078125 113.496094 271.878906 112.132812 270.644531 C 110.773438 269.410156 109.445312 268.144531 108.144531 266.847656 C 106.847656 265.546875 105.582031 264.21875 104.347656 262.855469 C 103.113281 261.496094 101.914062 260.105469 100.75 258.6875 C 99.585938 257.265625 98.453125 255.820312 97.359375 254.34375 C 96.265625 252.867188 95.210938 251.367188 94.1875 249.839844 C 93.167969 248.3125 92.1875 246.761719 91.242188 245.1875 C 90.296875 243.613281 89.394531 242.015625 88.527344 240.394531 C 87.660156 238.773438 86.835938 237.136719 86.050781 235.476562 C 85.265625 233.816406 84.523438 232.136719 83.820312 230.441406 C 83.117188 228.742188 82.457031 227.03125 81.835938 225.300781 C 81.21875 223.570312 80.640625 221.828125 80.109375 220.070312 C 79.574219 218.3125 79.085938 216.542969 78.640625 214.761719 C 78.195312 212.980469 77.792969 211.1875 77.433594 209.386719 C 77.074219 207.585938 76.761719 205.777344 76.492188 203.960938 C 76.222656 202.144531 75.996094 200.324219 75.816406 198.496094 C 75.636719 196.667969 75.5 194.835938 75.410156 193 C 75.320312 191.167969 75.277344 189.332031 75.277344 187.496094 C 75.277344 185.660156 75.320312 183.824219 75.410156 181.988281 C 75.5 180.15625 75.636719 178.324219 75.816406 176.496094 C 75.996094 174.667969 76.222656 172.847656 76.492188 171.03125 C 76.761719 169.210938 77.074219 167.402344 77.433594 165.601562 C 77.792969 163.800781 78.195312 162.011719 78.640625 160.226562 C 79.085938 158.445312 79.574219 156.675781 80.109375 154.921875 C 80.640625 153.164062 81.21875 151.417969 81.835938 149.691406 C 82.457031 147.960938 83.117188 146.246094 83.820312 144.550781 C 84.523438 142.855469 85.265625 141.175781 86.050781 139.515625 C 86.835938 137.855469 87.660156 136.214844 88.527344 134.597656 C 89.394531 132.976562 90.296875 131.378906 91.242188 129.804688 C 92.1875 128.226562 93.167969 126.675781 94.1875 125.148438 C 95.210938 123.621094 96.265625 122.121094 97.359375 120.648438 C 98.453125 119.171875 99.585938 117.722656 100.75 116.304688 C 101.914062 114.886719 103.113281 113.496094 104.347656 112.132812 C 105.582031 110.773438 106.847656 109.445312 108.144531 108.144531 C 109.445312 106.847656 110.773438 105.582031 112.132812 104.347656 C 113.496094 103.113281 114.886719 101.914062 116.304688 100.75 C 117.722656 99.585938 119.171875 98.453125 120.648438 97.359375 C 122.121094 96.265625 123.621094 95.210938 125.148438 94.1875 C 126.675781 93.167969 128.226562 92.1875 129.804688 91.242188 C 131.378906 90.296875 132.976562 89.394531 134.597656 88.527344 C 136.214844 87.660156 137.855469 86.835938 139.515625 86.050781 C 141.175781 85.265625 142.855469 84.523438 144.550781 83.820312 C 146.246094 83.117188 147.960938 82.457031 149.691406 81.835938 C 151.417969 81.21875 153.164062 80.640625 154.921875 80.109375 C 156.675781 79.574219 158.445312 79.085938 160.226562 78.640625 C 162.011719 78.195312 163.800781 77.792969 165.601562 77.433594 C 167.402344 77.074219 169.210938 76.761719 171.03125 76.492188 C 172.847656 76.222656 174.667969 75.996094 176.496094 75.816406 C 178.324219 75.636719 180.15625 75.503906 181.988281 75.410156 C 183.824219 75.320312 185.660156 75.277344 187.496094 75.277344 C 189.332031 75.277344 191.167969 75.320312 193 75.410156 C 194.835938 75.503906 196.667969 75.636719 198.496094 75.816406 C 200.324219 75.996094 202.144531 76.222656 203.960938 76.492188 C 205.777344 76.761719 207.585938 77.074219 209.386719 77.433594 C 211.1875 77.792969 212.980469 78.195312 214.761719 78.640625 C 216.542969 79.085938 218.3125 79.574219 220.070312 80.109375 C 221.828125 80.640625 223.570312 81.21875 225.300781 81.835938 C 227.03125 82.457031 228.742188 83.117188 230.441406 83.820312 C 232.136719 84.523438 233.816406 85.265625 235.476562 86.050781 C 237.136719 86.835938 238.773438 87.660156 240.394531 88.527344 C 242.015625 89.394531 243.613281 90.296875 245.1875 91.242188 C 246.761719 92.1875 248.3125 93.167969 249.839844 94.1875 C 251.367188 95.210938 252.867188 96.265625 254.34375 97.359375 C 255.820312 98.453125 257.265625 99.585938 258.6875 100.75 C 260.105469 101.914062 261.496094 103.113281 262.855469 104.347656 C 264.21875 105.582031 265.546875 106.847656 266.847656 108.144531 C 268.144531 109.445312 269.410156 110.773438 270.644531 112.132812 C 271.878906 113.496094 273.078125 114.886719 274.242188 116.304688 C 275.40625 117.722656 276.535156 119.171875 277.628906 120.648438 C 278.722656 122.121094 279.78125 123.621094 280.800781 125.148438 C 281.820312 126.675781 282.804688 128.226562 283.75 129.804688 C 284.691406 131.378906 285.597656 132.976562 286.464844 134.597656 C 287.328125 136.214844 288.15625 137.855469 288.941406 139.515625 C 289.726562 141.175781 290.46875 142.855469 291.171875 144.550781 C 291.875 146.246094 292.535156 147.960938 293.152344 149.691406 C 293.773438 151.417969 294.347656 153.164062 294.882812 154.921875 C 295.414062 156.675781 295.90625 158.445312 296.351562 160.226562 C 296.796875 162.011719 297.199219 163.800781 297.558594 165.601562 C 297.917969 167.402344 298.230469 169.210938 298.5 171.03125 C 298.769531 172.847656 298.992188 174.667969 299.171875 176.496094 C 299.355469 178.324219 299.488281 180.15625 299.578125 181.988281 C 299.667969 183.824219 299.714844 185.660156 299.714844 187.496094 Z M 299.714844 187.496094 " fill-opacity="1" fill-rule="nonzero"/></g><g clip-path="url(#2236a7a61a)"><path fill="#f1d85a" d="M 75.277344 187.3125 C 75.277344 185.476562 75.320312 183.640625 75.410156 181.804688 C 75.503906 179.972656 75.636719 178.140625 75.816406 176.3125 C 75.996094 174.484375 76.222656 172.664062 76.492188 170.847656 C 76.761719 169.03125 77.074219 167.222656 77.433594 165.417969 C 77.792969 163.617188 78.195312 161.828125 78.640625 160.046875 C 79.085938 158.265625 79.574219 156.496094 80.109375 154.738281 C 80.640625 152.980469 81.21875 151.234375 81.835938 149.507812 C 82.457031 147.777344 83.117188 146.066406 83.820312 144.367188 C 84.523438 142.671875 85.265625 140.992188 86.050781 139.332031 C 86.835938 137.671875 87.660156 136.03125 88.527344 134.414062 C 89.394531 132.792969 90.296875 131.195312 91.242188 129.621094 C 92.1875 128.046875 93.167969 126.492188 94.1875 124.96875 C 95.210938 123.441406 96.265625 121.9375 97.359375 120.464844 C 98.453125 118.988281 99.585938 117.542969 100.75 116.121094 C 101.914062 114.703125 103.113281 113.3125 104.347656 111.949219 C 105.582031 110.589844 106.847656 109.261719 108.144531 107.960938 C 109.445312 106.664062 110.773438 105.398438 112.132812 104.164062 C 113.496094 102.929688 114.886719 101.730469 116.304688 100.566406 C 117.722656 99.402344 119.171875 98.273438 120.648438 97.175781 C 122.121094 96.082031 123.621094 95.027344 125.148438 94.007812 C 126.675781 92.984375 128.226562 92.003906 129.804688 91.058594 C 131.378906 90.113281 132.976562 89.210938 134.597656 88.34375 C 136.214844 87.480469 137.855469 86.652344 139.515625 85.867188 C 141.175781 85.082031 142.855469 84.339844 144.550781 83.636719 C 146.246094 82.933594 147.960938 82.273438 149.691406 81.652344 C 151.417969 81.035156 153.164062 80.457031 154.921875 79.925781 C 156.675781 79.394531 158.445312 78.902344 160.230469 78.457031 C 162.011719 78.011719 163.800781 77.609375 165.601562 77.25 C 167.402344 76.890625 169.210938 76.578125 171.03125 76.308594 C 172.847656 76.039062 174.667969 75.8125 176.496094 75.632812 C 178.324219 75.453125 180.15625 75.320312 181.988281 75.230469 C 183.824219 75.140625 185.660156 75.09375 187.496094 75.09375 C 189.332031 75.09375 191.167969 75.140625 193 75.230469 C 194.835938 75.320312 196.667969 75.453125 198.496094 75.632812 C 200.324219 75.8125 202.144531 76.039062 203.960938 76.308594 C 205.777344 76.578125 207.585938 76.890625 209.386719 77.25 C 211.191406 77.609375 212.980469 78.011719 214.761719 78.457031 C 216.542969 78.902344 218.3125 79.394531 220.070312 79.925781 C 221.828125 80.457031 223.570312 81.035156 225.300781 81.652344 C 227.03125 82.273438 228.742188 82.933594 230.441406 83.636719 C 232.136719 84.339844 233.816406 85.082031 235.476562 85.867188 C 237.136719 86.652344 238.773438 87.480469 240.394531 88.34375 C 242.015625 89.210938 243.613281 90.113281 245.1875 91.058594 C 246.761719 92.003906 248.3125 92.984375 249.839844 94.007812 C 251.367188 95.027344 252.867188 96.082031 254.34375 97.175781 C 255.820312 98.273438 257.265625 99.402344 258.6875 100.566406 C 260.105469 101.730469 261.496094 102.929688 262.855469 104.164062 C 264.21875 105.398438 265.546875 106.664062 266.847656 107.960938 C 268.144531 109.261719 269.410156 110.589844 270.644531 111.949219 C 271.878906 113.3125 273.078125 114.703125 274.242188 116.121094 C 275.40625 117.542969 276.535156 118.988281 277.628906 120.464844 C 278.722656 121.9375 279.78125 123.441406 280.800781 124.96875 C 281.820312 126.492188 282.804688 128.046875 283.75 129.621094 C 284.691406 131.195312 285.597656 132.792969 286.464844 134.414062 C 287.328125 136.03125 288.15625 137.671875 288.941406 139.332031 C 289.726562 140.992188 290.46875 142.671875 291.171875 144.367188 C 291.875 146.066406 292.535156 147.777344 293.15625 149.507812 C 293.773438 151.234375 294.347656 152.980469 294.882812 154.738281 C 295.414062 156.496094 295.90625 158.265625 296.351562 160.046875 C 296.796875 161.828125 297.199219 163.617188 297.558594 165.417969 C 297.917969 167.222656 298.230469 169.03125 298.5 170.847656 C 298.769531 172.664062 298.992188 174.484375 299.171875 176.3125 C 299.355469 178.140625 299.488281 179.972656 299.578125 181.804688 C 299.667969 183.640625 299.714844 185.476562 299.714844 187.3125 C 299.714844 189.148438 299.667969 190.984375 299.578125 192.820312 C 299.488281 194.652344 299.355469 196.484375 299.171875 198.3125 C 298.992188 200.140625 298.769531 201.960938 298.5 203.777344 C 298.230469 205.59375 297.917969 207.402344 297.558594 209.207031 C 297.199219 211.007812 296.796875 212.796875 296.351562 214.578125 C 295.90625 216.359375 295.414062 218.128906 294.882812 219.886719 C 294.347656 221.644531 293.773438 223.386719 293.15625 225.117188 C 292.535156 226.847656 291.875 228.558594 291.171875 230.257812 C 290.46875 231.953125 289.726562 233.632812 288.941406 235.292969 C 288.15625 236.953125 287.328125 238.59375 286.464844 240.210938 C 285.597656 241.832031 284.691406 243.429688 283.75 245.003906 C 282.804688 246.578125 281.820312 248.128906 280.800781 249.65625 C 279.78125 251.183594 278.722656 252.6875 277.628906 254.160156 C 276.535156 255.636719 275.40625 257.082031 274.242188 258.503906 C 273.078125 259.921875 271.878906 261.3125 270.644531 262.675781 C 269.410156 264.035156 268.144531 265.363281 266.847656 266.664062 C 265.546875 267.960938 264.21875 269.226562 262.855469 270.460938 C 261.496094 271.695312 260.105469 272.894531 258.6875 274.058594 C 257.265625 275.222656 255.820312 276.351562 254.34375 277.449219 C 252.867188 278.542969 251.367188 279.597656 249.839844 280.617188 C 248.3125 281.640625 246.761719 282.621094 245.1875 283.566406 C 243.613281 284.511719 242.015625 285.414062 240.394531 286.28125 C 238.773438 287.144531 237.136719 287.972656 235.476562 288.757812 C 233.816406 289.542969 232.136719 290.285156 230.441406 290.988281 C 228.742188 291.691406 227.03125 292.351562 225.300781 292.972656 C 223.570312 293.589844 221.828125 294.164062 220.070312 294.699219 C 218.3125 295.230469 216.542969 295.722656 214.761719 296.167969 C 212.980469 296.613281 211.191406 297.015625 209.386719 297.375 C 207.585938 297.734375 205.777344 298.046875 203.960938 298.316406 C 202.144531 298.585938 200.324219 298.8125 198.496094 298.992188 C 196.667969 299.171875 194.835938 299.304688 193 299.394531 C 191.167969 299.484375 189.332031 299.53125 187.496094 299.53125 C 185.660156 299.53125 183.824219 299.484375 181.988281 299.394531 C 180.15625 299.304688 178.324219 299.171875 176.496094 298.992188 C 174.667969 298.8125 172.847656 298.585938 171.03125 298.316406 C 169.210938 298.046875 167.402344 297.734375 165.601562 297.375 C 163.800781 297.015625 162.011719 296.613281 160.230469 296.167969 C 158.445312 295.722656 156.675781 295.230469 154.921875 294.699219 C 153.164062 294.164062 151.417969 293.589844 149.691406 292.972656 C 147.960938 292.351562 146.246094 291.691406 144.550781 290.988281 C 142.855469 290.285156 141.175781 289.542969 139.515625 288.757812 C 137.855469 287.972656 136.214844 287.144531 134.597656 286.28125 C 132.976562 285.414062 131.378906 284.511719 129.804688 283.566406 C 128.226562 282.621094 126.675781 281.640625 125.148438 280.617188 C 123.621094 279.597656 122.121094 278.542969 120.648438 277.449219 C 119.171875 276.351562 117.722656 275.222656 116.304688 274.058594 C 114.886719 272.894531 113.496094 271.695312 112.132812 270.460938 C 110.773438 269.226562 109.445312 267.960938 108.144531 266.664062 C 106.847656 265.363281 105.582031 264.035156 104.347656 262.675781 C 103.113281 261.3125 101.914062 259.921875 100.75 258.503906 C 99.585938 257.082031 98.453125 255.636719 97.359375 254.160156 C 96.265625 252.6875 95.210938 251.183594 94.1875 249.65625 C 93.167969 248.128906 92.1875 246.578125 91.242188 245.003906 C 90.296875 243.429688 89.394531 241.832031 88.527344 240.210938 C 87.660156 238.59375 86.835938 236.953125 86.050781 235.292969 C 85.265625 233.632812 84.523438 231.953125 83.820312 230.257812 C 83.117188 228.558594 82.457031 226.847656 81.835938 225.117188 C 81.21875 223.386719 80.640625 221.644531 80.109375 219.886719 C 79.574219 218.128906 79.085938 216.359375 78.640625 214.578125 C 78.195312 212.796875 77.792969 211.007812 77.433594 209.207031 C 77.074219 207.402344 76.761719 205.59375 76.492188 203.777344 C 76.222656 201.960938 75.996094 200.140625 75.816406 198.3125 C 75.636719 196.484375 75.503906 194.652344 75.410156 192.820312 C 75.320312 190.984375 75.277344 189.148438 75.277344 187.3125 Z M 75.277344 187.3125 " fill-opacity="1" fill-rule="nonzero"/></g><g clip-path="url(#81e28aae45)"><g clip-path="url(#1361ee1726)"><path fill="#ffffff" d="M 98.761719 98.761719 L 276.238281 98.761719 L 276.238281 276.238281 L 98.761719 276.238281 Z M 98.761719 98.761719 " fill-opacity="1" fill-rule="nonzero"/></g></g><g clip-path="url(#fb40bb14e9)"><g clip-path="url(#4e7b012087)"><path fill="#e0b526" d="M 101.972656 101.972656 L 273.027344 101.972656 L 273.027344 273.027344 L 101.972656 273.027344 Z M 101.972656 101.972656 " fill-opacity="1" fill-rule="nonzero"/></g></g><g clip-path="url(#a47cabe857)"><g clip-path="url(#e87231a97c)"><path fill="#ffffff" d="M 105.578125 105.578125 L 269.421875 105.578125 L 269.421875 269.421875 L 105.578125 269.421875 Z M 105.578125 105.578125 " fill-opacity="1" fill-rule="nonzero"/></g></g><g clip-path="url(#4b974f379f)"><g clip-path="url(#b86082030f)"><g clip-path="url(#e0faf26005)"><path fill="#f1d85a" d="M 265.574219 138.695312 L 287.058594 126.390625 L 296.996094 143.742188 L 275.511719 156.046875 Z M 265.574219 138.695312 " fill-opacity="1" fill-rule="nonzero"/></g></g></g><g clip-path="url(#f438d95c7f)"><g clip-path="url(#093f1ba0c4)"><g clip-path="url(#120481805d)"><path fill="#f1d85a" d="M 88.074219 126.335938 L 109.453125 138.820312 L 99.371094 156.085938 L 77.992188 143.601562 Z M 88.074219 126.335938 " fill-opacity="1" fill-rule="nonzero"/></g></g></g><g clip-path="url(#489098b03e)"><g clip-path="url(#2872ed1737)"><g clip-path="url(#32681e178e)"><path fill="#f1d85a" d="M 277.789062 202.449219 L 301.851562 208.285156 L 297.140625 227.714844 L 273.078125 221.882812 Z M 277.789062 202.449219 " fill-opacity="1" fill-rule="nonzero"/></g></g></g><g clip-path="url(#e076cdb792)"><g clip-path="url(#724b44fe8b)"><g clip-path="url(#de5248e466)"><path fill="#f1d85a" d="M 73.136719 208.398438 L 97.148438 202.378906 L 102.011719 221.773438 L 77.996094 227.792969 Z M 73.136719 208.398438 " fill-opacity="1" fill-rule="nonzero"/></g></g></g><g clip-path="url(#3ec0370732)"><path fill="#f1d85a" d="M 187.820312 126.949219 L 191.027344 135.390625 C 191.121094 135.640625 191.347656 135.804688 191.617188 135.820312 L 200.632812 136.257812 C 201.246094 136.289062 201.5 137.0625 201.019531 137.445312 L 193.984375 143.101562 C 193.773438 143.269531 193.6875 143.535156 193.757812 143.796875 L 196.125 152.507812 C 196.285156 153.097656 195.628906 153.578125 195.117188 153.242188 L 187.5625 148.296875 C 187.335938 148.148438 187.058594 148.148438 186.832031 148.296875 L 179.277344 153.242188 C 178.765625 153.578125 178.109375 153.101562 178.269531 152.507812 L 180.636719 143.796875 C 180.707031 143.535156 180.625 143.269531 180.410156 143.101562 L 173.375 137.445312 C 172.898438 137.0625 173.148438 136.289062 173.761719 136.257812 L 182.777344 135.820312 C 183.046875 135.804688 183.273438 135.640625 183.367188 135.390625 L 186.574219 126.949219 C 186.789062 126.378906 187.605469 126.378906 187.820312 126.949219 Z M 229.664062 196.394531 C 241.488281 196.394531 251.074219 205.980469 251.074219 217.804688 C 251.074219 229.632812 241.488281 239.21875 229.664062 239.21875 C 217.835938 239.21875 208.25 229.632812 208.25 217.804688 C 208.25 205.980469 217.835938 196.394531 229.664062 196.394531 Z M 226.851562 219.695312 L 222.066406 214.910156 C 220.824219 213.671875 218.8125 213.671875 217.574219 214.910156 C 216.335938 216.152344 216.335938 218.160156 217.574219 219.402344 L 224.609375 226.4375 C 225.851562 227.679688 227.863281 227.679688 229.101562 226.4375 C 233.34375 222.199219 237.539062 217.90625 241.761719 213.648438 C 242.992188 212.40625 242.988281 210.398438 241.746094 209.164062 C 240.503906 207.929688 238.496094 207.933594 237.261719 209.179688 Z M 187.199219 160.945312 C 195.980469 160.945312 203.101562 168.066406 203.101562 176.847656 C 203.101562 185.632812 195.980469 192.75 187.199219 192.75 C 178.414062 192.75 171.296875 185.632812 171.296875 176.847656 C 171.296875 168.066406 178.414062 160.945312 187.199219 160.945312 Z M 159.023438 223.460938 L 204.648438 223.460938 C 204.238281 221.640625 204.019531 219.75 204.019531 217.804688 C 204.019531 212.535156 205.613281 207.636719 208.339844 203.5625 C 202.753906 198.488281 195.339844 195.394531 187.199219 195.394531 C 172.082031 195.394531 159.460938 206.054688 156.4375 220.269531 C 156.085938 221.921875 157.332031 223.460938 159.023438 223.460938 Z M 250.042969 163.59375 L 244.335938 170.589844 C 244.164062 170.800781 244.136719 171.074219 244.261719 171.316406 L 248.390625 179.34375 C 248.667969 179.890625 248.125 180.496094 247.554688 180.273438 L 239.136719 177.007812 C 238.886719 176.910156 238.613281 176.964844 238.421875 177.160156 L 232.0625 183.566406 C 231.628906 184 230.886719 183.671875 230.921875 183.058594 L 231.429688 174.042969 C 231.441406 173.773438 231.304688 173.53125 231.0625 173.410156 L 223.003906 169.34375 C 222.457031 169.066406 222.539062 168.257812 223.132812 168.101562 L 231.863281 165.796875 C 232.125 165.726562 232.308594 165.519531 232.351562 165.253906 L 233.730469 156.332031 C 233.824219 155.722656 234.621094 155.554688 234.953125 156.070312 L 239.839844 163.660156 C 239.988281 163.890625 240.242188 164 240.507812 163.957031 L 249.421875 162.511719 C 250.023438 162.414062 250.429688 163.121094 250.042969 163.59375 Z M 223.84375 136.933594 C 223.941406 136.332031 223.234375 135.925781 222.761719 136.3125 L 215.765625 142.019531 C 215.554688 142.191406 215.28125 142.21875 215.039062 142.09375 L 207.011719 137.964844 C 206.464844 137.6875 205.863281 138.230469 206.082031 138.800781 L 209.347656 147.21875 C 209.449219 147.472656 209.390625 147.742188 209.199219 147.933594 L 202.789062 154.292969 C 202.355469 154.726562 202.683594 155.46875 203.296875 155.433594 L 212.3125 154.929688 C 212.582031 154.914062 212.824219 155.050781 212.945312 155.292969 L 217.015625 163.351562 C 217.289062 163.898438 218.097656 163.816406 218.253906 163.222656 L 220.558594 154.492188 C 220.628906 154.230469 220.835938 154.046875 221.101562 154.003906 L 230.023438 152.625 C 230.632812 152.53125 230.800781 151.734375 230.285156 151.402344 L 222.695312 146.515625 C 222.46875 146.367188 222.355469 146.113281 222.398438 145.847656 Z M 124.976562 162.511719 L 133.886719 163.957031 C 134.152344 164 134.40625 163.890625 134.554688 163.660156 L 139.441406 156.070312 C 139.777344 155.554688 140.570312 155.722656 140.664062 156.332031 L 142.042969 165.253906 C 142.085938 165.519531 142.269531 165.726562 142.53125 165.796875 L 151.261719 168.101562 C 151.855469 168.257812 151.9375 169.066406 151.390625 169.34375 L 143.332031 173.410156 C 143.089844 173.535156 142.953125 173.773438 142.96875 174.042969 L 143.472656 183.058594 C 143.507812 183.671875 142.765625 184 142.332031 183.566406 L 135.972656 177.15625 C 135.78125 176.964844 135.511719 176.90625 135.257812 177.007812 L 126.839844 180.273438 C 126.269531 180.492188 125.726562 179.890625 126.007812 179.34375 L 130.132812 171.316406 C 130.257812 171.074219 130.230469 170.800781 130.058594 170.589844 L 124.351562 163.59375 C 123.964844 163.121094 124.371094 162.414062 124.976562 162.511719 Z M 151.632812 136.3125 C 151.160156 135.925781 150.453125 136.332031 150.554688 136.933594 L 151.996094 145.847656 C 152.039062 146.113281 151.929688 146.367188 151.699219 146.515625 L 144.109375 151.402344 C 143.59375 151.734375 143.765625 152.53125 144.371094 152.625 L 153.292969 154.003906 C 153.558594 154.046875 153.765625 154.230469 153.835938 154.492188 L 156.140625 163.222656 C 156.296875 163.816406 157.105469 163.898438 157.382812 163.351562 L 161.449219 155.292969 C 161.574219 155.050781 161.8125 154.914062 162.082031 154.925781 L 171.097656 155.433594 C 171.710938 155.46875 172.039062 154.726562 171.605469 154.292969 L 165.199219 147.933594 C 165.003906 147.742188 164.949219 147.46875 165.046875 147.21875 L 168.3125 138.800781 C 168.535156 138.230469 167.929688 137.683594 167.382812 137.964844 L 159.355469 142.09375 C 159.113281 142.21875 158.839844 142.1875 158.628906 142.015625 Z M 151.632812 136.3125 " fill-opacity="1" fill-rule="evenodd"/></g><g fill="#ffffff" fill-opacity="1"><g transform="translate(140.608163, 104.518507)"><g><path d="M 2.617188 -25.820312 C 2.582031 -25.734375 2.511719 -25.742188 2.453125 -25.71875 C 2.335938 -25.667969 2.214844 -25.621094 2.109375 -25.542969 C 1.824219 -25.394531 1.542969 -25.242188 1.214844 -25.109375 C 0.902344 -24.945312 0.632812 -24.765625 0.382812 -24.527344 L -0.417969 -23.785156 C -0.863281 -23.433594 -1.292969 -23.050781 -1.628906 -22.601562 C -2.203125 -21.816406 -2.75 -21.039062 -3.09375 -20.105469 L -3.472656 -18.917969 L -3.796875 -18.023438 C -3.945312 -17.617188 -4.019531 -17.207031 -3.980469 -16.777344 C -3.929688 -16.484375 -3.953125 -16.199219 -4.015625 -15.933594 C -4.101562 -15.550781 -4.128906 -15.195312 -4.085938 -14.835938 C -3.984375 -13.910156 -3.851562 -12.996094 -3.691406 -12.09375 C -3.636719 -11.875 -3.582031 -11.65625 -3.46875 -11.460938 C -3.367188 -11.296875 -3.265625 -11.128906 -3.179688 -10.921875 C -2.984375 -10.449219 -2.761719 -9.988281 -2.539062 -9.527344 C -2.28125 -8.976562 -1.945312 -8.492188 -1.550781 -8.03125 C -1.199219 -7.589844 -0.785156 -7.171875 -0.402344 -6.738281 C -0.113281 -6.375 0.238281 -6.101562 0.601562 -5.804688 C 0.71875 -5.679688 0.871094 -5.566406 1.035156 -5.496094 C 1.601562 -5.210938 2.125 -4.941406 2.710938 -4.695312 L 3.261719 -4.4375 C 3.675781 -4.191406 4.121094 -4.027344 4.609375 -4.019531 C 4.820312 -4.003906 5.046875 -3.957031 5.285156 -3.882812 C 5.71875 -3.75 6.171875 -3.65625 6.660156 -3.648438 C 7.003906 -3.652344 7.359375 -3.625 7.683594 -3.585938 C 8.753906 -3.503906 9.757812 -3.667969 10.738281 -3.96875 L 12.035156 -4.425781 C 12.59375 -4.585938 13.15625 -4.816406 13.6875 -5.03125 C 13.777344 -5.070312 13.855469 -5.132812 13.941406 -5.171875 C 14.214844 -5.351562 14.484375 -5.53125 14.769531 -5.679688 C 15.175781 -5.949219 15.609375 -6.160156 15.992188 -6.492188 C 16.359375 -6.777344 16.738281 -7.035156 16.996094 -7.417969 C 17.183594 -7.632812 17.371094 -7.847656 17.613281 -8.015625 C 17.875 -8.226562 18.164062 -8.445312 18.359375 -8.734375 C 18.546875 -8.949219 18.691406 -9.179688 18.828125 -9.441406 C 19.089844 -9.894531 19.171875 -10.375 19.078125 -10.855469 C 19.066406 -11.058594 18.964844 -11.222656 18.921875 -11.414062 C 18.769531 -11.871094 18.617188 -12.324219 18.40625 -12.757812 C 18.351562 -12.804688 18.328125 -12.863281 18.304688 -12.921875 C 18.179688 -13.148438 18.023438 -13.359375 18.015625 -13.632812 C 17.984375 -13.964844 17.863281 -14.261719 17.730469 -14.585938 C 17.519531 -15.019531 17.398438 -15.488281 17.304688 -15.964844 C 17.164062 -16.566406 17.054688 -17.175781 17.113281 -17.789062 L 17.121094 -18.273438 L 17.078125 -18.636719 C 16.980469 -18.871094 16.875 -18.96875 16.625 -18.898438 C 16.496094 -18.882812 16.363281 -18.863281 16.246094 -18.8125 C 15.417969 -18.476562 14.601562 -18.109375 13.75 -17.828125 C 13.261719 -17.667969 12.8125 -17.414062 12.339844 -17.21875 C 11.671875 -16.914062 10.949219 -16.652344 10.269531 -16.375 C 10.121094 -16.316406 9.972656 -16.253906 9.878906 -16.148438 C 9.742188 -16.058594 9.738281 -15.984375 9.769531 -15.824219 C 9.816406 -15.707031 9.882812 -15.628906 9.949219 -15.554688 C 10.230469 -15.289062 10.421875 -14.988281 10.640625 -14.699219 L 11.539062 -13.511719 C 11.71875 -13.238281 11.882812 -12.925781 12.046875 -12.613281 C 12.339844 -12.144531 12.53125 -11.671875 12.667969 -11.175781 C 12.742188 -10.824219 12.832031 -10.515625 12.992188 -10.203125 C 13.132812 -9.949219 13.242188 -9.683594 13.347656 -9.417969 C 13.507812 -9.03125 13.441406 -8.765625 13.105469 -8.488281 C 12.652344 -8.164062 12.15625 -7.859375 11.632812 -7.613281 C 11.410156 -7.484375 11.191406 -7.429688 10.972656 -7.375 C 10.691406 -7.296875 10.445312 -7.230469 10.171875 -7.222656 C 9.542969 -7.242188 8.941406 -7.273438 8.367188 -7.417969 C 8.140625 -7.464844 7.929688 -7.550781 7.710938 -7.667969 L 6.789062 -8.15625 C 6.03125 -8.570312 5.414062 -9.148438 4.910156 -9.875 C 4.71875 -10.175781 4.539062 -10.449219 4.300781 -10.695312 C 4.210938 -10.832031 4.132812 -10.9375 4.011719 -11.0625 C 3.574219 -11.710938 3.285156 -12.421875 2.9375 -13.109375 C 2.851562 -13.316406 2.785156 -13.5625 2.699219 -13.769531 C 2.472656 -14.332031 2.34375 -14.902344 2.214844 -15.472656 C 2.097656 -16.011719 2.113281 -16.570312 2.035156 -17.089844 C 1.988281 -17.554688 2.007812 -18.011719 1.9375 -18.429688 C 1.894531 -18.792969 1.964844 -19.132812 2.085938 -19.421875 C 2.242188 -19.796875 2.359375 -20.191406 2.433594 -20.601562 C 2.449219 -20.816406 2.539062 -21.023438 2.667969 -21.214844 C 2.996094 -21.761719 3.433594 -22.214844 3.910156 -22.652344 C 4.109375 -22.839844 4.335938 -22.964844 4.601562 -23.074219 L 5.785156 -23.554688 C 5.992188 -23.640625 6.210938 -23.695312 6.414062 -23.707031 C 6.847656 -23.746094 7.304688 -23.726562 7.707031 -23.753906 C 8.007812 -23.773438 8.324219 -23.761719 8.59375 -23.699219 L 9.167969 -23.554688 C 10.269531 -23.3125 11.296875 -22.90625 12.253906 -22.257812 C 12.347656 -22.195312 12.429688 -22.160156 12.542969 -22.136719 C 12.851562 -22.054688 12.976562 -22.175781 12.886719 -22.484375 L 12.875 -22.511719 C 12.78125 -22.820312 12.671875 -23.085938 12.492188 -23.359375 C 12.3125 -23.628906 12.144531 -23.871094 12.054688 -24.179688 C 11.976562 -24.460938 11.867188 -24.726562 11.769531 -24.960938 C 11.535156 -25.453125 11.285156 -25.902344 11.089844 -26.375 C 10.9375 -26.832031 10.714844 -27.292969 10.535156 -27.738281 C 10.488281 -27.855469 10.4375 -27.972656 10.359375 -28.082031 C 10.246094 -28.277344 10.117188 -28.257812 10.003906 -28.109375 L 9.785156 -27.707031 C 9.632812 -27.40625 9.417969 -27.179688 9.101562 -27.015625 C 8.820312 -26.863281 8.523438 -26.746094 8.214844 -26.652344 C 7.847656 -26.539062 7.445312 -26.511719 7.078125 -26.566406 C 6.851562 -26.613281 6.636719 -26.628906 6.421875 -26.648438 C 5.949219 -26.625 5.4375 -26.519531 4.988281 -26.441406 C 4.4375 -26.355469 3.921875 -26.179688 3.410156 -26.074219 C 3.222656 -26.03125 3.054688 -25.929688 2.882812 -25.929688 Z M 2.617188 -25.820312 "/></g></g></g><g fill="#ffffff" fill-opacity="1"><g transform="translate(163.995932, 95.035486)"><g><path d="M -0.164062 -10.886719 C -0.0585938 -10.546875 0.078125 -10.175781 0.0898438 -9.824219 C 0.121094 -9.539062 0.1875 -9.253906 0.25 -8.972656 C 0.445312 -8.417969 0.726562 -7.933594 0.945312 -7.414062 C 1.152344 -7.019531 1.390625 -6.628906 1.65625 -6.273438 C 1.804688 -6.097656 1.957031 -5.890625 2.050781 -5.640625 C 2.273438 -5.121094 2.636719 -4.746094 3.007812 -4.335938 C 3.375 -3.929688 3.824219 -3.660156 4.222656 -3.285156 C 4.898438 -2.722656 5.664062 -2.230469 6.507812 -1.878906 C 7.421875 -1.5 8.328125 -1.15625 9.277344 -1.007812 C 9.671875 -0.957031 10.066406 -0.871094 10.488281 -0.855469 C 11.132812 -0.835938 11.769531 -0.875 12.441406 -0.921875 C 12.886719 -0.972656 13.363281 -1.027344 13.832031 -1.144531 C 14.363281 -1.273438 14.894531 -1.429688 15.417969 -1.617188 C 16.257812 -1.875 17.019531 -2.222656 17.65625 -2.84375 C 17.800781 -2.988281 18.011719 -3.109375 18.222656 -3.230469 C 18.585938 -3.433594 18.914062 -3.664062 19.164062 -4.015625 C 19.359375 -4.261719 19.589844 -4.511719 19.820312 -4.734375 C 20.257812 -5.136719 20.621094 -5.597656 20.953125 -6.054688 C 21.066406 -6.195312 21.152344 -6.300781 21.195312 -6.46875 C 21.390625 -7.007812 21.683594 -7.554688 21.945312 -8.066406 L 22.167969 -8.640625 C 22.378906 -9.339844 22.523438 -10.03125 22.664062 -10.757812 C 22.785156 -11.382812 22.839844 -12.03125 22.828125 -12.675781 C 22.808594 -12.863281 22.78125 -13.085938 22.792969 -13.28125 C 22.785156 -13.601562 22.753906 -13.886719 22.6875 -14.171875 L 22.457031 -15.042969 C 22.371094 -15.515625 22.253906 -15.984375 22.070312 -16.449219 C 21.929688 -16.847656 21.753906 -17.246094 21.578125 -17.644531 C 21.339844 -18.324219 21.007812 -18.964844 20.558594 -19.523438 C 20.335938 -19.785156 20.082031 -20.015625 19.921875 -20.285156 C 19.574219 -20.792969 19.171875 -21.230469 18.652344 -21.554688 L 18.292969 -21.867188 C 17.96875 -22.152344 17.617188 -22.433594 17.210938 -22.609375 C 16.28125 -23.113281 15.304688 -23.515625 14.304688 -23.820312 C 13.867188 -23.960938 13.402344 -24.101562 12.949219 -24.113281 C 12.402344 -24.113281 11.878906 -24.183594 11.382812 -24.320312 C 11.121094 -24.351562 10.863281 -24.355469 10.617188 -24.261719 C 10.210938 -24.152344 9.796875 -24.105469 9.414062 -24.089844 C 9.125 -24.089844 8.839844 -24.027344 8.589844 -23.964844 C 8.1875 -23.855469 7.816406 -23.714844 7.445312 -23.574219 C 6.765625 -23.335938 6.09375 -23.03125 5.457031 -22.671875 C 4.980469 -22.355469 4.535156 -22.015625 4.085938 -21.738281 C 3.785156 -21.542969 3.53125 -21.257812 3.300781 -21.003906 C 3.105469 -20.757812 2.878906 -20.507812 2.644531 -20.285156 C 2.449219 -20.039062 2.21875 -19.785156 2.054688 -19.542969 C 1.457031 -18.605469 0.917969 -17.671875 0.488281 -16.660156 C 0.289062 -16.152344 0.09375 -15.617188 0.0273438 -15.09375 L -0.0429688 -14.601562 C -0.160156 -13.945312 -0.214844 -13.296875 -0.171875 -12.625 C -0.160156 -12.273438 -0.179688 -11.882812 -0.238281 -11.554688 Z M 16.265625 -13.234375 C 16.328125 -12.953125 16.324219 -12.726562 16.285156 -12.496094 C 16.203125 -12.101562 16.25 -11.6875 16.324219 -11.3125 C 16.378906 -10.867188 16.363281 -10.449219 16.246094 -10.046875 C 16.1875 -9.71875 16.132812 -9.359375 16.109375 -9.003906 C 15.933594 -8.015625 15.625 -7.082031 15.082031 -6.214844 C 14.863281 -5.867188 14.644531 -5.519531 14.363281 -5.195312 C 14.046875 -4.839844 13.625 -4.597656 13.199219 -4.386719 C 12.925781 -4.257812 12.652344 -4.132812 12.335938 -4.0625 C 11.703125 -3.988281 11.109375 -4.113281 10.53125 -4.367188 C 9.71875 -4.726562 9.074219 -5.292969 8.570312 -6.039062 C 7.917969 -6.929688 7.457031 -7.875 7.050781 -8.890625 C 6.820312 -9.476562 6.652344 -10.097656 6.484375 -10.722656 C 6.410156 -11.101562 6.460938 -11.492188 6.449219 -11.84375 L 6.414062 -12.164062 C 6.371094 -12.253906 6.359375 -12.347656 6.351562 -12.445312 C 6.332031 -12.601562 6.285156 -12.726562 6.269531 -12.855469 C 6.210938 -13.105469 6.246094 -13.332031 6.253906 -13.558594 C 6.3125 -14.175781 6.308594 -14.757812 6.398438 -15.378906 C 6.441406 -15.832031 6.515625 -16.292969 6.65625 -16.757812 L 6.71875 -17.054688 C 6.832031 -17.746094 7.082031 -18.351562 7.46875 -18.914062 C 7.683594 -19.292969 7.894531 -19.703125 8.246094 -20 C 8.707031 -20.4375 9.253906 -20.726562 9.878906 -20.894531 C 10.253906 -21.003906 10.667969 -21.019531 11.058594 -21 C 11.414062 -20.976562 11.71875 -20.851562 12.027344 -20.691406 L 13.039062 -20.003906 C 13.460938 -19.699219 13.765625 -19.285156 14.070312 -18.871094 L 14.5625 -18.21875 C 15.1875 -17.261719 15.628906 -16.25 15.886719 -15.121094 C 15.980469 -14.585938 16.074219 -14.050781 16.230469 -13.519531 C 16.273438 -13.429688 16.257812 -13.300781 16.265625 -13.234375 Z M 16.265625 -13.234375 "/></g></g></g><g fill="#ffffff" fill-opacity="1"><g transform="translate(190.210533, 92.452208)"><g><path d="M 14.089844 1.941406 C 15.066406 2.109375 16.019531 2.210938 17.015625 2.253906 C 17.46875 2.25 17.894531 2.214844 18.355469 2.148438 C 18.617188 2.121094 18.859375 1.996094 19.023438 1.757812 C 19.296875 1.410156 19.546875 0.992188 19.679688 0.527344 C 19.695312 0.402344 19.75 0.246094 19.765625 0.121094 C 19.902344 -0.375 20.03125 -0.84375 20.097656 -1.316406 C 20.171875 -1.855469 20.277344 -2.359375 20.503906 -2.84375 C 20.558594 -2.996094 20.582031 -3.152344 20.566406 -3.285156 C 20.589844 -3.441406 20.503906 -3.519531 20.363281 -3.441406 C 20.226562 -3.398438 20.121094 -3.316406 20.011719 -3.234375 C 19.523438 -2.753906 18.976562 -2.3125 18.4375 -1.90625 C 17.933594 -1.523438 17.414062 -1.273438 16.785156 -1.167969 C 16.449219 -1.085938 16.09375 -1.070312 15.730469 -1.023438 C 15.039062 -0.929688 14.328125 -0.898438 13.597656 -1 C 13.410156 -1.027344 13.191406 -1.089844 12.96875 -1.121094 L 11.578125 -1.316406 C 11.355469 -1.347656 11.136719 -1.410156 10.925781 -1.503906 C 10.621094 -1.644531 10.464844 -1.890625 10.414062 -2.222656 C 10.339844 -2.617188 10.328125 -3.007812 10.386719 -3.417969 C 10.441406 -3.800781 10.425781 -4.15625 10.441406 -4.507812 C 10.433594 -4.898438 10.449219 -5.25 10.53125 -5.59375 C 10.660156 -6.058594 10.695312 -6.539062 10.699219 -7.023438 C 10.714844 -7.375 10.757812 -7.691406 10.871094 -8.03125 C 10.953125 -8.375 11.066406 -8.746094 11.085938 -9.097656 C 11.0625 -9.390625 11.066406 -9.648438 11.105469 -9.933594 L 11.300781 -11.328125 C 11.328125 -11.519531 11.386719 -11.703125 11.445312 -11.886719 C 11.546875 -12.164062 11.589844 -12.480469 11.605469 -12.800781 C 11.621094 -13.15625 11.636719 -13.507812 11.6875 -13.855469 C 11.703125 -13.980469 11.6875 -14.082031 11.703125 -14.207031 C 11.742188 -14.492188 11.714844 -14.753906 11.789062 -15.035156 C 11.910156 -15.4375 12.023438 -15.808594 12.050781 -16.226562 C 12.09375 -16.542969 12.203125 -16.847656 12.277344 -17.160156 C 12.429688 -17.785156 12.671875 -18.363281 12.917969 -18.976562 C 13.074219 -19.375 13.226562 -19.773438 13.4375 -20.128906 L 13.515625 -20.246094 C 13.582031 -20.464844 13.53125 -20.570312 13.316406 -20.664062 C 13.253906 -20.671875 13.164062 -20.71875 13.070312 -20.730469 C 12.402344 -20.824219 11.707031 -20.921875 11.046875 -21.046875 C 10.609375 -21.140625 10.183594 -21.101562 9.746094 -21.195312 L 9.207031 -21.269531 C 8.835938 -21.386719 8.425781 -21.445312 8.039062 -21.464844 C 7.625 -21.492188 7.175781 -21.523438 6.773438 -21.644531 C 6.585938 -21.671875 6.429688 -21.722656 6.234375 -21.71875 C 5.910156 -21.699219 5.761719 -21.558594 5.8125 -21.230469 C 5.804688 -20.941406 5.890625 -20.636719 5.949219 -20.371094 C 6.195312 -19.367188 6.222656 -18.398438 6.113281 -17.378906 C 6.011719 -16.425781 5.847656 -15.480469 5.714844 -14.53125 C 5.699219 -14.433594 5.722656 -14.367188 5.710938 -14.273438 C 5.722656 -13.914062 5.707031 -13.5625 5.660156 -13.214844 C 5.640625 -13.089844 5.589844 -12.964844 5.570312 -12.808594 L 5.292969 -10.84375 C 5.226562 -10.371094 5.125 -9.867188 5.121094 -9.386719 C 5.128906 -8.964844 5.042969 -8.589844 4.894531 -8.222656 C 4.792969 -7.945312 4.746094 -7.628906 4.738281 -7.339844 L 4.691406 -6.992188 C 4.640625 -6.417969 4.472656 -5.894531 4.425781 -5.320312 C 4.394531 -4.871094 4.390625 -4.386719 4.328125 -3.945312 C 4.234375 -3.28125 4.085938 -2.6875 3.777344 -2.085938 C 3.546875 -1.601562 3.28125 -1.089844 3.085938 -0.601562 C 2.84375 -0.0234375 2.980469 0.160156 3.441406 0.320312 C 4.113281 0.574219 4.773438 0.699219 5.480469 0.734375 C 5.800781 0.746094 6.113281 0.824219 6.425781 0.898438 L 7.660156 1.074219 C 7.980469 1.085938 8.300781 1.097656 8.640625 1.210938 C 8.953125 1.285156 9.265625 1.363281 9.617188 1.378906 C 10.132812 1.386719 10.675781 1.429688 11.214844 1.503906 C 11.40625 1.53125 11.601562 1.496094 11.789062 1.554688 C 12.164062 1.636719 12.507812 1.71875 12.886719 1.773438 Z M 14.089844 1.941406 "/></g></g></g><g fill="#ffffff" fill-opacity="1"><g transform="translate(211.616144, 95.354709)"><g><path d="M 11 4.425781 C 11.296875 4.546875 11.574219 4.628906 11.859375 4.777344 C 12.242188 4.933594 12.621094 5.019531 13.015625 5.078125 C 13.363281 5.152344 13.714844 5.226562 14.050781 5.328125 C 14.328125 5.40625 14.648438 5.46875 14.964844 5.460938 L 15.765625 5.441406 C 17.054688 5.417969 18.320312 5.105469 19.535156 4.667969 C 20.0625 4.472656 20.546875 4.21875 21.023438 3.898438 L 21.375 3.625 C 21.914062 3.328125 22.402344 2.976562 22.808594 2.484375 L 23.339844 1.945312 C 23.945312 1.394531 24.367188 0.703125 24.769531 -0.0273438 C 25.007812 -0.449219 25.21875 -0.878906 25.480469 -1.257812 C 25.59375 -1.453125 25.695312 -1.617188 25.765625 -1.796875 L 26.242188 -3.464844 C 26.433594 -4.183594 26.503906 -4.949219 26.503906 -5.707031 C 26.503906 -6.050781 26.496094 -6.367188 26.527344 -6.699219 C 26.574219 -7.058594 26.574219 -7.40625 26.519531 -7.773438 C 26.414062 -8.195312 26.394531 -8.652344 26.179688 -9.050781 C 26.0625 -9.273438 25.925781 -9.535156 25.863281 -9.800781 C 25.695312 -10.320312 25.425781 -10.84375 25.214844 -11.34375 C 25.097656 -11.566406 24.953125 -11.796875 24.792969 -12 L 24.015625 -12.972656 C 23.734375 -13.296875 23.410156 -13.601562 23.097656 -13.9375 C 22.957031 -14.097656 22.816406 -14.257812 22.664062 -14.390625 C 21.777344 -15.097656 20.789062 -15.640625 19.753906 -16.0625 C 19.429688 -16.195312 19.121094 -16.285156 18.824219 -16.40625 C 17.671875 -16.878906 16.535156 -17.308594 15.40625 -17.839844 C 15.0625 -18.015625 14.679688 -18.171875 14.28125 -18.300781 C 13.945312 -18.402344 13.589844 -18.546875 13.261719 -18.679688 C 12.742188 -18.929688 12.222656 -19.175781 11.660156 -19.40625 C 11.554688 -19.484375 11.421875 -19.5 11.324219 -19.507812 C 11.03125 -19.558594 10.882812 -19.445312 10.832031 -19.15625 C 10.789062 -18.964844 10.777344 -18.765625 10.792969 -18.550781 C 10.78125 -17.175781 10.511719 -15.835938 9.992188 -14.5625 C 9.886719 -14.226562 9.714844 -13.882812 9.582031 -13.554688 L 9.496094 -13.347656 C 9.28125 -12.988281 9.109375 -12.574219 8.984375 -12.179688 C 8.878906 -11.839844 8.746094 -11.515625 8.582031 -11.203125 C 8.457031 -10.976562 8.34375 -10.78125 8.246094 -10.546875 C 8.136719 -10.277344 8.046875 -9.972656 7.9375 -9.703125 C 7.675781 -8.980469 7.328125 -8.296875 7.097656 -7.5625 C 6.96875 -7.164062 6.800781 -6.75 6.640625 -6.367188 C 6.34375 -5.554688 5.976562 -4.738281 5.609375 -3.921875 C 5.585938 -3.863281 5.574219 -3.835938 5.519531 -3.789062 C 5.3125 -3.457031 5.167969 -3.101562 5.054688 -2.734375 C 4.945312 -2.296875 4.773438 -1.882812 4.488281 -1.515625 C 4.164062 -1.0625 3.820312 -0.648438 3.46875 -0.207031 C 3.28125 -0.00390625 3.066406 0.183594 2.910156 0.394531 C 2.558594 0.839844 2.667969 0.988281 3.058594 1.214844 L 3.734375 1.59375 C 4.078125 1.769531 4.457031 1.855469 4.8125 2 C 5.148438 2.105469 5.445312 2.226562 5.738281 2.347656 C 6.1875 2.597656 6.632812 2.78125 7.140625 2.882812 C 7.492188 2.957031 7.847656 3.105469 8.179688 3.308594 C 8.539062 3.523438 8.910156 3.710938 9.320312 3.808594 C 9.699219 3.894531 10.066406 4.011719 10.410156 4.183594 Z M 19.667969 -4.359375 C 19.484375 -3.914062 19.273438 -3.480469 19.046875 -3.09375 L 18.902344 -2.738281 C 18.796875 -2.398438 18.59375 -2.070312 18.402344 -1.769531 C 17.832031 -0.964844 17.214844 -0.214844 16.503906 0.425781 C 16.03125 0.820312 15.558594 1.214844 15.054688 1.523438 C 14.285156 1.96875 13.5 2.203125 12.621094 1.980469 C 12.332031 1.933594 12.078125 1.792969 11.8125 1.683594 C 11.496094 1.523438 11.195312 1.332031 10.859375 1.226562 C 10.503906 1.082031 10.386719 0.859375 10.484375 0.453125 C 10.492188 0.351562 10.539062 0.234375 10.574219 0.144531 C 10.757812 -0.300781 10.867188 -0.738281 10.976562 -1.175781 L 11.039062 -1.324219 C 11.308594 -1.902344 11.507812 -2.476562 11.710938 -3.050781 C 12.132812 -4.261719 12.601562 -5.484375 13.113281 -6.65625 C 13.199219 -6.863281 13.3125 -7.058594 13.425781 -7.253906 C 13.644531 -7.613281 13.769531 -8.011719 13.839844 -8.433594 C 13.90625 -8.679688 14.003906 -8.917969 14.117188 -9.113281 C 14.496094 -9.785156 14.746094 -10.480469 15.023438 -11.160156 L 15.386719 -12.046875 C 15.46875 -12.253906 15.601562 -12.40625 15.714844 -12.601562 C 15.867188 -12.886719 16 -13.210938 16.191406 -13.511719 C 16.214844 -13.570312 16.253906 -13.660156 16.304688 -13.707031 C 16.539062 -14.027344 16.738281 -14.085938 17.089844 -13.9375 C 17.476562 -13.78125 17.859375 -13.625 18.238281 -13.539062 C 18.578125 -13.433594 18.902344 -13.300781 19.175781 -13.121094 C 19.554688 -12.863281 19.78125 -12.496094 20.011719 -12.125 C 20.15625 -11.890625 20.230469 -11.65625 20.296875 -11.386719 C 20.601562 -10.191406 20.691406 -8.980469 20.542969 -7.765625 L 20.316406 -6.371094 C 20.269531 -6.082031 20.1875 -5.800781 20.078125 -5.535156 C 19.953125 -5.140625 19.84375 -4.699219 19.667969 -4.359375 Z M 19.667969 -4.359375 "/></g></g></g><g fill="#ffffff" fill-opacity="1"><g transform="translate(115.122957, 276.495776)"><g><path d="M 17.757812 11.96875 C 18.105469 12.199219 18.449219 12.429688 18.777344 12.6875 C 18.855469 12.742188 18.980469 12.789062 19.078125 12.816406 C 19.21875 12.832031 19.28125 12.796875 19.300781 12.65625 C 19.34375 12.53125 19.34375 12.417969 19.328125 12.328125 C 19.292969 12.035156 19.257812 11.742188 19.179688 11.457031 C 19.074219 11.042969 19.03125 10.589844 19.042969 10.171875 C 19.070312 9.84375 19.042969 9.480469 19 9.144531 C 18.984375 8.824219 18.976562 8.550781 19.03125 8.238281 C 19.183594 7.609375 19.238281 6.957031 19.320312 6.316406 C 19.339844 5.945312 19.339844 5.597656 19.464844 5.296875 C 19.617188 4.898438 19.65625 4.5 19.683594 4.058594 C 19.710938 3.730469 19.785156 3.394531 19.953125 3.085938 C 20.238281 2.660156 20.628906 2.421875 21.097656 2.238281 C 21.3125 2.148438 21.550781 2.078125 21.78125 1.964844 C 22.121094 1.804688 22.484375 1.664062 22.847656 1.523438 C 23.195312 1.410156 23.558594 1.269531 23.871094 1.09375 L 25.148438 0.222656 C 25.308594 0.0976562 25.46875 -0.0273438 25.601562 -0.167969 C 25.832031 -0.398438 26.039062 -0.644531 26.242188 -0.890625 C 26.5 -1.21875 26.664062 -1.574219 26.867188 -1.9375 C 26.992188 -2.121094 27.0625 -2.34375 27.109375 -2.582031 C 27.136719 -2.910156 27.207031 -3.246094 27.28125 -3.582031 L 27.40625 -4.230469 C 27.453125 -4.816406 27.429688 -5.410156 27.378906 -6.019531 C 27.351562 -6.5 27.238281 -6.960938 27 -7.351562 C 26.949219 -7.386719 26.914062 -7.449219 26.90625 -7.492188 C 26.445312 -8.417969 25.9375 -9.261719 25.15625 -9.9375 C 24.847656 -10.222656 24.523438 -10.480469 24.167969 -10.640625 C 23.859375 -10.8125 23.539062 -11.023438 23.265625 -11.246094 C 22.984375 -11.515625 22.664062 -11.730469 22.355469 -11.898438 C 22 -12.058594 21.707031 -12.253906 21.445312 -12.546875 C 21.328125 -12.664062 21.1875 -12.796875 21.039062 -12.859375 C 20.691406 -13.09375 20.292969 -13.242188 19.96875 -13.503906 C 19.941406 -13.519531 19.894531 -13.511719 19.894531 -13.511719 C 19.585938 -13.679688 19.269531 -13.894531 18.992188 -14.117188 C 18.773438 -14.304688 18.523438 -14.507812 18.285156 -14.667969 L 17.011719 -15.523438 C 16.660156 -15.800781 16.375 -16.066406 15.988281 -16.289062 L 15.21875 -16.691406 C 14.792969 -16.863281 14.625 -16.785156 14.5 -16.367188 C 14.328125 -15.710938 14.078125 -15.109375 13.828125 -14.507812 C 13.59375 -13.933594 13.28125 -13.410156 13.078125 -12.816406 C 12.96875 -12.542969 12.765625 -12.296875 12.605469 -12.054688 C 12.382812 -11.78125 12.132812 -11.527344 11.960938 -11.214844 C 11.800781 -10.863281 11.589844 -10.542969 11.355469 -10.199219 C 11.140625 -9.878906 10.964844 -9.5 10.679688 -9.191406 C 10.5625 -9.074219 10.464844 -8.988281 10.375 -8.855469 C 10.027344 -8.28125 9.636719 -7.695312 9.261719 -7.140625 C 9.066406 -6.847656 8.871094 -6.554688 8.648438 -6.28125 C 8.496094 -6.113281 8.34375 -5.945312 8.246094 -5.742188 C 8.140625 -5.582031 8.042969 -5.378906 7.933594 -5.21875 C 7.871094 -5.070312 7.808594 -4.917969 7.695312 -4.804688 C 7.523438 -4.609375 7.410156 -4.378906 7.265625 -4.167969 C 7.097656 -3.972656 6.964844 -3.714844 6.792969 -3.523438 C 6.542969 -3.265625 6.324219 -2.992188 6.195312 -2.691406 C 5.882812 -2.054688 5.484375 -1.515625 5.054688 -0.992188 C 4.460938 -0.277344 3.738281 0.277344 3.003906 0.863281 L 2.539062 1.207031 C 2.390625 1.375 2.398438 1.53125 2.546875 1.710938 C 2.671875 1.871094 2.828125 1.976562 3.007812 2.058594 C 3.371094 2.261719 3.742188 2.511719 4.066406 2.769531 C 4.316406 2.976562 4.582031 3.152344 4.863281 3.304688 C 5.148438 3.457031 5.429688 3.609375 5.695312 3.789062 C 5.835938 3.921875 5.96875 4.011719 6.128906 4.117188 L 7.828125 5.257812 C 8.011719 5.382812 8.214844 5.480469 8.402344 5.605469 C 8.457031 5.640625 8.550781 5.667969 8.648438 5.695312 C 8.84375 5.75 8.96875 5.679688 9.003906 5.511719 C 9.09375 5.378906 9.128906 5.210938 9.148438 5.066406 L 9.320312 4.296875 C 9.429688 3.675781 9.644531 3.128906 9.917969 2.542969 C 10.070312 2.261719 10.265625 1.96875 10.464844 1.675781 C 10.6875 1.402344 10.863281 1.136719 11.035156 0.828125 C 11.210938 0.5625 11.363281 0.277344 11.59375 0.0507812 C 11.78125 -0.171875 11.960938 -0.4375 12.09375 -0.695312 C 12.246094 -0.976562 12.441406 -1.269531 12.636719 -1.558594 C 12.824219 -1.78125 13.054688 -1.894531 13.367188 -1.726562 C 13.71875 -1.566406 14.039062 -1.351562 14.339844 -1.109375 C 14.453125 -0.996094 14.542969 -0.898438 14.613281 -0.773438 C 14.699219 -0.558594 14.644531 -0.367188 14.617188 -0.152344 C 14.566406 0.15625 14.511719 0.46875 14.554688 0.804688 C 14.578125 1.167969 14.542969 1.566406 14.40625 1.9375 C 14.292969 2.285156 14.246094 2.636719 14.21875 2.964844 C 14.207031 3.382812 14.171875 3.78125 13.992188 4.164062 C 13.929688 4.3125 13.894531 4.480469 13.855469 4.648438 C 13.785156 4.984375 13.738281 5.339844 13.605469 5.710938 C 13.335938 6.339844 13.09375 6.988281 12.78125 7.625 C 12.558594 8.011719 12.613281 8.28125 12.949219 8.582031 C 13.035156 8.679688 13.152344 8.796875 13.285156 8.886719 C 13.902344 9.339844 14.574219 9.714844 15.210938 10.140625 L 15.691406 10.460938 C 15.894531 10.5625 16.078125 10.683594 16.21875 10.820312 C 16.457031 11.09375 16.757812 11.335938 17.050781 11.53125 C 17.308594 11.664062 17.519531 11.808594 17.757812 11.96875 Z M 15.800781 -6.210938 C 16.140625 -6.601562 16.363281 -7.105469 16.683594 -7.582031 C 16.828125 -7.796875 16.976562 -7.964844 17.128906 -8.132812 C 17.441406 -8.539062 17.679688 -8.953125 17.949219 -9.351562 C 18.152344 -9.714844 18.414062 -10.042969 18.785156 -10.253906 C 19.035156 -10.394531 19.265625 -10.394531 19.519531 -10.257812 C 20.0625 -9.972656 20.503906 -9.601562 21.023438 -9.289062 C 21.210938 -9.164062 21.394531 -9.039062 21.546875 -8.859375 C 21.792969 -8.539062 21.90625 -8.195312 21.914062 -7.804688 C 21.976562 -7.261719 21.894531 -6.742188 21.671875 -6.234375 L 21.070312 -4.945312 C 20.917969 -4.660156 20.707031 -4.457031 20.546875 -4.21875 C 19.984375 -3.554688 19.265625 -3.113281 18.484375 -2.753906 C 17.941406 -2.464844 17.402344 -2.519531 16.871094 -2.875 C 16.605469 -3.054688 16.375 -3.285156 16.128906 -3.488281 L 15.28125 -4.058594 C 14.988281 -4.253906 14.910156 -4.425781 15.007812 -4.742188 C 15.070312 -5.007812 15.175781 -5.285156 15.339844 -5.523438 Z M 15.800781 -6.210938 "/></g></g></g><g fill="#ffffff" fill-opacity="1"><g transform="translate(139.942226, 292.208304)"><g><path d="M 15.496094 -13.753906 C 15.5625 -13.933594 15.648438 -14.070312 15.777344 -14.230469 C 15.964844 -14.464844 16.222656 -14.609375 16.535156 -14.527344 C 16.695312 -14.5 16.855469 -14.476562 17.035156 -14.410156 C 17.457031 -14.253906 17.894531 -14.058594 18.335938 -13.960938 C 18.554688 -13.914062 18.753906 -13.804688 18.964844 -13.726562 C 19.375 -13.542969 19.789062 -13.285156 20.199219 -13.101562 C 20.558594 -12.96875 20.84375 -12.726562 21.074219 -12.433594 L 21.464844 -12.015625 C 21.691406 -11.796875 21.875 -11.558594 22.058594 -11.320312 C 22.214844 -11.089844 22.339844 -10.875 22.421875 -10.640625 C 22.648438 -10.148438 22.886719 -9.683594 23.070312 -9.171875 C 23.105469 -8.988281 23.179688 -8.824219 23.253906 -8.660156 C 23.261719 -8.589844 23.300781 -8.507812 23.371094 -8.515625 C 23.460938 -8.480469 23.496094 -8.570312 23.519531 -8.632812 L 23.628906 -8.929688 C 23.765625 -9.390625 23.902344 -9.851562 24.070312 -10.300781 C 24.222656 -10.621094 24.324219 -10.992188 24.386719 -11.34375 L 24.578125 -12.226562 C 24.65625 -12.4375 24.714844 -12.6875 24.742188 -12.949219 C 24.765625 -13.28125 24.714844 -13.605469 24.523438 -13.917969 C 24.40625 -14.0625 24.300781 -14.238281 24.15625 -14.394531 C 23.960938 -14.601562 23.753906 -14.78125 23.496094 -14.910156 C 23.066406 -15.136719 22.597656 -15.347656 22.148438 -15.511719 C 21.710938 -15.710938 21.242188 -15.917969 20.761719 -16.09375 L 20.042969 -16.363281 C 19.707031 -16.554688 19.347656 -16.6875 19.007812 -16.78125 C 18.636719 -16.882812 18.277344 -17.019531 17.9375 -17.210938 C 17.648438 -17.351562 17.359375 -17.492188 17.050781 -17.574219 C 16.859375 -17.609375 16.667969 -17.648438 16.488281 -17.714844 L 14.75 -18.359375 L 13.484375 -18.898438 C 13.195312 -19.039062 12.894531 -19.148438 12.585938 -19.230469 C 12.144531 -19.324219 11.753906 -19.46875 11.363281 -19.613281 C 11.183594 -19.679688 10.992188 -19.71875 10.792969 -19.726562 C 10.578125 -19.703125 10.414062 -19.625 10.335938 -19.417969 C 10.269531 -19.238281 10.242188 -19.074219 10.246094 -18.902344 L 10.257812 -18.011719 C 10.234375 -17.03125 10.023438 -16.089844 9.707031 -15.148438 L 9.152344 -13.652344 C 8.816406 -13.023438 8.574219 -12.367188 8.328125 -11.707031 C 8.164062 -11.359375 8.082031 -10.945312 7.949219 -10.585938 L 7.914062 -10.496094 C 7.828125 -9.984375 7.648438 -9.503906 7.382812 -9.058594 C 7.328125 -9.007812 7.308594 -8.949219 7.285156 -8.890625 C 6.695312 -7.300781 6.125 -5.671875 5.496094 -4.0625 C 5.285156 -3.496094 5.09375 -2.882812 4.820312 -2.335938 C 4.648438 -1.957031 4.484375 -1.609375 4.289062 -1.273438 C 4.0625 -0.84375 3.757812 -0.480469 3.402344 -0.167969 C 3.207031 -0.00390625 3.058594 0.214844 2.957031 0.484375 C 2.929688 0.644531 2.945312 0.785156 3.035156 0.921875 C 3.199219 1.117188 3.398438 1.226562 3.636719 1.316406 C 4.109375 1.421875 4.527344 1.578125 4.957031 1.804688 C 5.203125 1.964844 5.433594 2.082031 5.714844 2.152344 C 6.125 2.238281 6.535156 2.320312 6.945312 2.507812 C 7.335938 2.652344 7.765625 2.777344 8.164062 2.992188 C 8.511719 3.15625 8.882812 3.257812 9.269531 3.402344 C 9.632812 3.539062 10 3.640625 10.351562 3.804688 C 10.609375 3.933594 10.867188 4.0625 11.136719 4.164062 C 11.648438 4.351562 12.167969 4.511719 12.707031 4.710938 C 13.097656 4.855469 13.484375 5 13.898438 5.085938 C 14.117188 5.132812 14.371094 5.191406 14.566406 5.300781 C 14.917969 5.464844 15.277344 5.597656 15.628906 5.660156 C 16.109375 5.734375 16.574219 5.769531 17.035156 5.90625 C 17.539062 6.027344 17.984375 5.917969 18.382812 5.589844 C 18.578125 5.421875 18.726562 5.207031 18.867188 5.019531 C 19.21875 4.433594 19.382812 3.8125 19.675781 3.203125 C 19.867188 2.867188 20 2.507812 20.164062 2.160156 C 20.316406 1.839844 20.46875 1.523438 20.578125 1.222656 C 20.613281 1.132812 20.699219 0.992188 20.589844 0.917969 C 20.480469 0.84375 20.375 0.941406 20.324219 0.992188 C 19.839844 1.289062 19.324219 1.574219 18.832031 1.800781 C 17.96875 2.195312 17.023438 2.359375 16.082031 2.417969 C 15.390625 2.433594 14.742188 2.261719 14.058594 2.078125 C 13.476562 1.894531 12.914062 1.582031 12.3125 1.359375 L 12.253906 1.339844 C 11.914062 1.144531 11.535156 1.074219 11.164062 0.96875 C 10.722656 0.875 10.457031 0.570312 10.453125 0.125 C 10.460938 -0.0742188 10.464844 -0.277344 10.53125 -0.457031 C 10.742188 -1.027344 10.925781 -1.609375 11.226562 -2.144531 C 11.386719 -2.390625 11.445312 -2.640625 11.503906 -2.894531 C 11.574219 -3.445312 11.761719 -3.957031 12.121094 -4.371094 C 12.320312 -4.636719 12.460938 -4.925781 12.691406 -5.179688 C 12.933594 -5.464844 13.21875 -5.496094 13.554688 -5.300781 C 13.742188 -5.164062 13.949219 -4.984375 14.125 -4.816406 C 14.835938 -4.25 15.453125 -3.609375 16.003906 -2.894531 C 16.070312 -2.800781 16.140625 -2.707031 16.21875 -2.644531 C 16.347656 -2.527344 16.457031 -2.554688 16.542969 -2.695312 C 16.671875 -2.851562 16.765625 -3.019531 16.816406 -3.242188 L 17.097656 -4.191406 C 17.160156 -4.445312 17.289062 -4.703125 17.40625 -4.929688 C 17.636719 -5.460938 17.808594 -6.011719 18.027344 -6.507812 C 18.234375 -6.976562 18.371094 -7.4375 18.539062 -7.886719 C 18.582031 -8.007812 18.617188 -8.097656 18.617188 -8.199219 C 18.601562 -8.339844 18.535156 -8.433594 18.40625 -8.449219 L 18.160156 -8.433594 C 17.488281 -8.277344 16.867188 -8.164062 16.199219 -8.105469 C 15.703125 -8.050781 15.183594 -8.039062 14.671875 -8.128906 C 14.21875 -8.191406 14.023438 -8.402344 14.03125 -8.875 C 14.027344 -9.421875 14.199219 -9.972656 14.355469 -10.492188 C 14.492188 -10.953125 14.589844 -11.394531 14.785156 -11.835938 Z M 15.496094 -13.753906 "/></g></g></g><g fill="#ffffff" fill-opacity="1"><g transform="translate(163.917348, 300.738409)"><g><path d="M 4.957031 -22.003906 C 4.890625 -21.980469 4.828125 -21.988281 4.765625 -21.996094 C 4.636719 -22.011719 4.511719 -22.023438 4.410156 -22.003906 C 4.25 -21.992188 4.210938 -21.933594 4.1875 -21.742188 C 4.175781 -21.648438 4.226562 -21.542969 4.285156 -21.472656 C 4.4375 -21.132812 4.625 -20.820312 4.808594 -20.476562 C 5.015625 -20.066406 5.222656 -19.652344 5.359375 -19.1875 C 5.425781 -18.921875 5.558594 -18.679688 5.691406 -18.4375 C 5.851562 -18.164062 5.972656 -17.859375 6.03125 -17.527344 C 6.113281 -17.132812 6.160156 -16.742188 6.308594 -16.367188 C 6.457031 -15.996094 6.542969 -15.632812 6.5625 -15.246094 C 6.554688 -14.921875 6.613281 -14.59375 6.707031 -14.292969 C 6.867188 -13.757812 6.96875 -13.265625 7.03125 -12.710938 C 7.058594 -12.414062 7.15625 -12.148438 7.253906 -11.878906 C 7.351562 -11.640625 7.390625 -11.410156 7.457031 -11.175781 C 7.558594 -10.683594 7.59375 -10.164062 7.726562 -9.664062 C 7.84375 -9.296875 7.929688 -8.929688 7.980469 -8.570312 C 8.105469 -7.71875 8.328125 -6.886719 8.550781 -6.054688 C 8.640625 -5.753906 8.734375 -5.453125 8.761719 -5.128906 C 8.824219 -4.574219 8.953125 -4.042969 9.179688 -3.535156 L 9.246094 -3.269531 L 9.671875 -1.445312 C 9.839844 -0.71875 10.074219 0.0195312 10.441406 0.707031 C 10.652344 1.085938 10.980469 1.316406 11.429688 1.339844 C 11.8125 1.351562 12.164062 1.394531 12.542969 1.441406 L 12.667969 1.457031 C 13.117188 1.476562 13.515625 1.398438 13.839844 1.082031 C 13.992188 0.90625 14.136719 0.761719 14.289062 0.554688 C 14.523438 0.230469 14.761719 -0.160156 14.96875 -0.523438 L 15.402344 -1.179688 C 15.644531 -1.597656 15.769531 -2.097656 16.011719 -2.519531 L 16.875 -4.089844 C 17.3125 -4.777344 17.691406 -5.507812 17.972656 -6.246094 C 18.070312 -6.523438 18.164062 -6.769531 18.324219 -7.039062 C 18.71875 -7.636719 19.023438 -8.308594 19.332031 -8.980469 C 19.585938 -9.496094 19.804688 -9.984375 20 -10.539062 C 20.1875 -11.035156 20.472656 -11.515625 20.691406 -12.003906 C 20.738281 -12.125 20.8125 -12.214844 20.890625 -12.332031 C 21.082031 -12.566406 21.242188 -12.839844 21.375 -13.144531 C 21.46875 -13.390625 21.566406 -13.667969 21.691406 -13.910156 L 22.042969 -14.675781 C 22.132812 -14.886719 22.1875 -15.074219 22.335938 -15.25 C 22.628906 -15.539062 22.832031 -15.898438 23.070312 -16.257812 C 23.550781 -17.066406 24.152344 -17.769531 24.777344 -18.433594 C 25.003906 -18.695312 25.222656 -18.894531 25.417969 -19.195312 C 25.53125 -19.339844 25.480469 -19.445312 25.292969 -19.5 C 24.765625 -19.660156 24.25 -19.65625 23.703125 -19.65625 C 23.382812 -19.664062 23.023438 -19.640625 22.710938 -19.710938 C 22.140625 -19.78125 21.566406 -19.816406 21.035156 -19.976562 C 20.851562 -20.03125 20.660156 -20.054688 20.433594 -20.050781 C 20.171875 -20.015625 20.058594 -19.871094 20.054688 -19.582031 C 20.0625 -19.386719 20.070312 -19.160156 20.046875 -18.96875 C 19.988281 -18.203125 19.832031 -17.449219 19.554688 -16.742188 C 19.394531 -16.214844 19.144531 -15.730469 18.921875 -15.242188 C 18.785156 -14.902344 18.644531 -14.535156 18.449219 -14.234375 C 18.25 -13.9375 18.117188 -13.632812 18.015625 -13.320312 C 17.863281 -12.859375 17.6875 -12.460938 17.414062 -12.042969 C 17.183594 -11.75 17.109375 -11.402344 17.003906 -11.0625 C 16.804688 -10.472656 16.484375 -9.933594 16.191406 -9.386719 C 15.945312 -8.933594 15.734375 -8.511719 15.550781 -8.050781 C 15.414062 -7.742188 15.21875 -7.445312 14.96875 -7.25 C 14.722656 -7.054688 14.535156 -7.109375 14.371094 -7.351562 C 14.292969 -7.523438 14.222656 -7.726562 14.183594 -7.921875 C 13.925781 -8.726562 13.734375 -9.554688 13.605469 -10.375 C 13.535156 -10.835938 13.488281 -11.257812 13.3125 -11.664062 C 13.1875 -11.96875 13.125 -12.265625 13.101562 -12.59375 C 13.082031 -12.980469 13.03125 -13.339844 12.910156 -13.675781 C 12.648438 -14.449219 12.511719 -15.207031 12.445312 -15.988281 C 12.417969 -16.28125 12.378906 -16.507812 12.316406 -16.773438 C 12.058594 -17.578125 12.027344 -18.417969 12.128906 -19.242188 L 12.265625 -20.386719 C 12.304688 -20.703125 12.25 -20.804688 11.910156 -20.910156 C 11.695312 -21.003906 11.503906 -21.023438 11.316406 -21.078125 C 10.980469 -21.214844 10.632812 -21.257812 10.28125 -21.300781 C 9.332031 -21.414062 8.414062 -21.558594 7.484375 -21.605469 C 7.101562 -21.617188 6.761719 -21.722656 6.378906 -21.769531 C 6.191406 -21.824219 6 -21.816406 5.816406 -21.902344 Z M 4.957031 -22.003906 "/></g></g></g><g fill="#ffffff" fill-opacity="1"><g transform="translate(192.547684, 303.183369)"><g><path d="M 1.632812 -22.578125 C 1.410156 -22.5625 1.285156 -22.519531 1.160156 -22.476562 C 1.066406 -22.4375 1.011719 -22.335938 1.019531 -22.210938 C 1.03125 -22.082031 1.039062 -21.988281 1.078125 -21.894531 C 1.199219 -21.582031 1.382812 -21.308594 1.535156 -21.03125 C 1.765625 -20.539062 1.933594 -20.039062 2.039062 -19.535156 C 2.148438 -18.996094 2.257812 -18.429688 2.300781 -17.886719 C 2.320312 -17.28125 2.398438 -16.710938 2.445312 -16.136719 C 2.480469 -15.691406 2.484375 -15.242188 2.492188 -14.761719 C 2.484375 -14.441406 2.511719 -14.089844 2.601562 -13.777344 C 2.691406 -13.460938 2.722656 -13.113281 2.746094 -12.792969 C 2.742188 -12.441406 2.769531 -12.121094 2.796875 -11.769531 C 2.800781 -11.707031 2.777344 -11.640625 2.78125 -11.578125 C 2.785156 -11.128906 2.820312 -10.714844 2.886719 -10.269531 C 2.945312 -9.921875 2.976562 -9.574219 2.972656 -9.21875 C 2.96875 -8.867188 2.996094 -8.515625 3.058594 -8.167969 C 3.15625 -7.726562 3.195312 -7.28125 3.164062 -6.832031 C 3.152344 -6.605469 3.105469 -6.375 3.191406 -6.128906 C 3.238281 -5.9375 3.257812 -5.714844 3.273438 -5.492188 C 3.34375 -5.050781 3.375 -4.636719 3.378906 -4.1875 C 3.371094 -3.511719 3.296875 -2.863281 3.125 -2.210938 C 3.027344 -1.816406 2.867188 -1.417969 2.773438 -0.996094 C 2.71875 -0.863281 2.695312 -0.765625 2.742188 -0.605469 C 2.757812 -0.414062 2.792969 -0.355469 3.019531 -0.308594 C 3.1875 -0.257812 3.34375 -0.269531 3.507812 -0.253906 C 3.890625 -0.25 4.273438 -0.28125 4.652344 -0.34375 C 5.03125 -0.441406 5.378906 -0.5 5.761719 -0.53125 L 8.980469 -0.792969 C 9.136719 -0.804688 9.296875 -0.816406 9.460938 -0.800781 L 9.972656 -0.777344 C 10.425781 -0.75 10.628906 -0.992188 10.5 -1.429688 C 10.496094 -1.460938 10.460938 -1.488281 10.460938 -1.488281 C 10.257812 -2.019531 10.027344 -2.511719 9.789062 -3.039062 C 9.542969 -3.722656 9.328125 -4.410156 9.296875 -5.179688 C 9.304688 -5.46875 9.246094 -5.785156 9.253906 -6.105469 C 9.234375 -6.359375 9.246094 -6.585938 9.195312 -6.839844 C 9.152344 -7.347656 9.046875 -7.851562 9.039062 -8.363281 C 9.035156 -8.8125 8.996094 -9.257812 8.898438 -9.699219 C 8.839844 -10.015625 8.78125 -10.332031 8.792969 -10.621094 C 8.792969 -10.976562 8.765625 -11.324219 8.738281 -11.675781 C 8.71875 -11.898438 8.636719 -12.117188 8.617188 -12.371094 C 8.597656 -12.625 8.574219 -12.914062 8.585938 -13.171875 L 8.476562 -14.507812 C 8.46875 -14.605469 8.425781 -14.730469 8.417969 -14.824219 C 8.425781 -15.113281 8.433594 -15.402344 8.414062 -15.691406 C 8.382812 -16.039062 8.355469 -16.390625 8.292969 -16.769531 C 8.214844 -17.339844 8.199219 -17.917969 8.152344 -18.492188 L 8.136719 -18.683594 C 8.171875 -19.039062 8.207031 -19.394531 8.210938 -19.746094 C 8.222656 -20.421875 8.292969 -21.101562 8.527344 -21.792969 C 8.601562 -22.054688 8.703125 -22.382812 8.742188 -22.675781 C 8.78125 -23 8.707031 -23.121094 8.386719 -23.128906 C 8.351562 -23.15625 8.289062 -23.152344 8.222656 -23.144531 C 7.746094 -23.109375 7.296875 -23.101562 6.824219 -23.03125 C 6.378906 -22.964844 5.96875 -22.867188 5.550781 -22.898438 C 5.132812 -22.894531 4.722656 -22.832031 4.304688 -22.828125 C 3.824219 -22.820312 3.347656 -22.78125 2.878906 -22.648438 C 2.753906 -22.605469 2.59375 -22.59375 2.464844 -22.582031 C 2.140625 -22.621094 1.859375 -22.535156 1.632812 -22.578125 Z M 1.632812 -22.578125 "/></g></g></g><g fill="#ffffff" fill-opacity="1"><g transform="translate(209.938148, 301.734337)"><g><path d="M 4.660156 -20.1875 C 4.613281 -20.375 4.601562 -20.535156 4.613281 -20.738281 C 4.632812 -21.039062 4.757812 -21.304688 5.058594 -21.421875 C 5.203125 -21.492188 5.351562 -21.566406 5.535156 -21.613281 C 5.96875 -21.730469 6.4375 -21.824219 6.855469 -22.003906 C 7.0625 -22.09375 7.285156 -22.121094 7.503906 -22.175781 C 7.941406 -22.261719 8.429688 -22.292969 8.871094 -22.378906 C 9.242188 -22.480469 9.613281 -22.449219 9.972656 -22.347656 L 10.53125 -22.230469 C 10.84375 -22.183594 11.132812 -22.09375 11.421875 -22.007812 C 11.679688 -21.910156 11.90625 -21.808594 12.109375 -21.664062 C 12.578125 -21.390625 13.042969 -21.152344 13.488281 -20.84375 C 13.621094 -20.714844 13.78125 -20.625 13.9375 -20.53125 C 13.984375 -20.480469 14.0625 -20.433594 14.117188 -20.480469 C 14.207031 -20.507812 14.183594 -20.597656 14.167969 -20.660156 L 14.082031 -20.96875 C 13.929688 -21.425781 13.773438 -21.878906 13.648438 -22.34375 C 13.585938 -22.691406 13.457031 -23.050781 13.304688 -23.375 L 12.949219 -24.207031 C 12.890625 -24.421875 12.792969 -24.660156 12.664062 -24.890625 C 12.488281 -25.175781 12.257812 -25.410156 11.921875 -25.550781 C 11.746094 -25.601562 11.558594 -25.683594 11.347656 -25.726562 C 11.066406 -25.785156 10.792969 -25.8125 10.507812 -25.765625 C 10.027344 -25.703125 9.527344 -25.601562 9.0625 -25.476562 C 8.59375 -25.382812 8.089844 -25.28125 7.597656 -25.148438 L 6.855469 -24.949219 C 6.46875 -24.910156 6.097656 -24.8125 5.765625 -24.6875 C 5.40625 -24.558594 5.035156 -24.460938 4.648438 -24.421875 C 4.332031 -24.367188 4.015625 -24.316406 3.714844 -24.203125 C 3.535156 -24.121094 3.359375 -24.042969 3.175781 -23.992188 L 1.382812 -23.507812 L 0.0390625 -23.214844 C -0.277344 -23.160156 -0.585938 -23.078125 -0.886719 -22.964844 C -1.300781 -22.785156 -1.703125 -22.679688 -2.101562 -22.570312 C -2.289062 -22.519531 -2.464844 -22.441406 -2.632812 -22.328125 C -2.792969 -22.1875 -2.882812 -22.03125 -2.824219 -21.8125 C -2.777344 -21.628906 -2.703125 -21.484375 -2.601562 -21.34375 L -2.074219 -20.625 C -1.527344 -19.8125 -1.152344 -18.921875 -0.867188 -17.972656 L -0.449219 -16.429688 C -0.359375 -15.726562 -0.175781 -15.046875 0.00390625 -14.367188 C 0.0742188 -13.988281 0.246094 -13.605469 0.34375 -13.234375 L 0.367188 -13.140625 C 0.59375 -12.671875 0.726562 -12.179688 0.769531 -11.660156 C 0.753906 -11.589844 0.769531 -11.527344 0.785156 -11.464844 C 1.226562 -9.828125 1.707031 -8.171875 2.125 -6.496094 C 2.28125 -5.910156 2.480469 -5.300781 2.574219 -4.699219 C 2.652344 -4.289062 2.722656 -3.910156 2.757812 -3.523438 C 2.820312 -3.042969 2.785156 -2.570312 2.675781 -2.109375 C 2.609375 -1.859375 2.613281 -1.597656 2.691406 -1.320312 C 2.761719 -1.171875 2.855469 -1.066406 3.003906 -1.007812 C 3.253906 -0.941406 3.480469 -0.96875 3.726562 -1.035156 C 4.171875 -1.222656 4.605469 -1.339844 5.085938 -1.402344 C 5.378906 -1.414062 5.632812 -1.449219 5.902344 -1.554688 C 6.289062 -1.726562 6.671875 -1.894531 7.113281 -1.980469 C 7.515625 -2.089844 7.9375 -2.234375 8.386719 -2.289062 C 8.765625 -2.359375 9.128906 -2.488281 9.527344 -2.597656 C 9.898438 -2.699219 10.261719 -2.828125 10.640625 -2.898438 C 10.925781 -2.941406 11.210938 -2.984375 11.488281 -3.058594 C 12.015625 -3.199219 12.53125 -3.371094 13.085938 -3.523438 C 13.488281 -3.628906 13.890625 -3.738281 14.273438 -3.90625 C 14.480469 -3.996094 14.71875 -4.09375 14.945312 -4.121094 C 15.324219 -4.191406 15.691406 -4.289062 16.015625 -4.441406 C 16.453125 -4.660156 16.851562 -4.898438 17.308594 -5.054688 C 17.785156 -5.25 18.089844 -5.597656 18.21875 -6.09375 C 18.285156 -6.34375 18.28125 -6.609375 18.285156 -6.839844 C 18.234375 -7.523438 18.003906 -8.125 17.890625 -8.789062 C 17.855469 -9.175781 17.753906 -9.546875 17.6875 -9.925781 C 17.625 -10.273438 17.566406 -10.621094 17.480469 -10.929688 C 17.457031 -11.019531 17.445312 -11.183594 17.3125 -11.179688 C 17.183594 -11.179688 17.152344 -11.039062 17.140625 -10.96875 C 16.917969 -10.445312 16.664062 -9.914062 16.390625 -9.441406 C 15.917969 -8.621094 15.238281 -7.941406 14.507812 -7.347656 C 13.957031 -6.933594 13.324219 -6.699219 12.660156 -6.453125 C 12.082031 -6.265625 11.441406 -6.191406 10.824219 -6.023438 L 10.761719 -6.007812 C 10.375 -5.96875 10.023438 -5.808594 9.660156 -5.679688 C 9.242188 -5.5 8.855469 -5.59375 8.59375 -5.953125 C 8.480469 -6.121094 8.371094 -6.289062 8.320312 -6.476562 C 8.160156 -7.0625 7.972656 -7.640625 7.90625 -8.25 C 7.894531 -8.546875 7.796875 -8.785156 7.699219 -9.023438 C 7.433594 -9.515625 7.292969 -10.039062 7.347656 -10.582031 C 7.355469 -10.917969 7.304688 -11.234375 7.34375 -11.574219 C 7.375 -11.949219 7.589844 -12.136719 7.976562 -12.175781 C 8.210938 -12.171875 8.480469 -12.148438 8.722656 -12.113281 C 9.628906 -12.058594 10.5 -11.894531 11.367188 -11.632812 C 11.476562 -11.59375 11.585938 -11.558594 11.6875 -11.554688 C 11.855469 -11.53125 11.933594 -11.621094 11.921875 -11.78125 C 11.933594 -11.984375 11.914062 -12.175781 11.828125 -12.386719 L 11.507812 -13.324219 C 11.410156 -13.5625 11.367188 -13.851562 11.332031 -14.105469 C 11.210938 -14.667969 11.03125 -15.214844 10.921875 -15.75 C 10.820312 -16.25 10.664062 -16.707031 10.539062 -17.167969 C 10.503906 -17.292969 10.480469 -17.386719 10.425781 -17.46875 C 10.328125 -17.578125 10.21875 -17.613281 10.105469 -17.550781 L 9.914062 -17.398438 C 9.457031 -16.878906 9.015625 -16.429688 8.503906 -15.992188 C 8.132812 -15.660156 7.71875 -15.351562 7.25 -15.125 C 6.84375 -14.917969 6.5625 -14.972656 6.292969 -15.363281 C 5.972656 -15.808594 5.792969 -16.355469 5.621094 -16.871094 C 5.464844 -17.324219 5.289062 -17.742188 5.195312 -18.210938 Z M 4.660156 -20.1875 "/></g></g></g><g fill="#ffffff" fill-opacity="1"><g transform="translate(235.251294, 295.110597)"><g><path d="M -9.453125 -20.507812 L -10.015625 -20.019531 C -10.136719 -19.90625 -10.125 -19.765625 -9.960938 -19.679688 C -9.882812 -19.613281 -9.777344 -19.5625 -9.675781 -19.515625 C -9.109375 -19.261719 -8.582031 -18.945312 -8.035156 -18.601562 C -7.492188 -18.261719 -6.957031 -17.875 -6.398438 -17.503906 C -5.835938 -17.132812 -5.3125 -16.703125 -4.816406 -16.257812 C -4.367188 -15.820312 -3.914062 -15.382812 -3.453125 -14.992188 C -3.238281 -14.824219 -3.035156 -14.609375 -2.875 -14.40625 C -2.628906 -14.070312 -2.367188 -13.816406 -2.03125 -13.574219 C -1.695312 -13.328125 -1.386719 -13.066406 -1.089844 -12.761719 C -0.835938 -12.464844 -0.542969 -12.230469 -0.222656 -12.015625 C 0.015625 -11.863281 0.277344 -11.683594 0.425781 -11.4375 C 0.640625 -11.082031 0.9375 -10.777344 1.273438 -10.53125 L 2.753906 -9.261719 C 3.078125 -8.972656 3.394531 -8.640625 3.746094 -8.367188 C 4.527344 -7.757812 5.210938 -7.125 5.925781 -6.4375 C 6.035156 -6.316406 6.148438 -6.199219 6.285156 -6.09375 C 6.679688 -5.8125 7.097656 -5.617188 7.488281 -5.402344 C 7.949219 -5.199219 8.410156 -5.179688 8.835938 -5.398438 C 9.300781 -5.683594 9.753906 -5.917969 10.175781 -6.210938 C 10.542969 -6.472656 10.742188 -6.816406 10.777344 -7.25 C 10.800781 -7.527344 10.75 -7.792969 10.699219 -8.0625 L 10.304688 -9.695312 L 10.222656 -10.203125 C 10.1875 -10.628906 10.082031 -11.050781 9.917969 -11.441406 L 9.769531 -11.871094 C 9.613281 -12.375 9.539062 -12.929688 9.382812 -13.433594 C 9.214844 -13.894531 9.148438 -14.375 8.925781 -14.800781 C 8.789062 -15.089844 8.675781 -15.398438 8.59375 -15.71875 C 8.414062 -16.507812 8.191406 -17.308594 7.984375 -18.078125 C 7.8125 -18.609375 7.753906 -19.136719 7.75 -19.695312 C 7.765625 -20.042969 7.875 -20.109375 8.1875 -19.960938 C 8.230469 -19.949219 8.277344 -19.941406 8.292969 -19.914062 C 8.742188 -19.664062 9.140625 -19.378906 9.515625 -19.007812 C 9.796875 -18.730469 10.046875 -18.4375 10.367188 -18.21875 C 10.945312 -17.820312 11.429688 -17.328125 11.886719 -16.824219 C 12.21875 -16.460938 12.550781 -16.101562 12.988281 -15.808594 C 13.246094 -15.628906 13.46875 -15.386719 13.660156 -15.132812 C 13.84375 -14.832031 14.082031 -14.5625 14.425781 -14.363281 C 14.6875 -14.183594 14.945312 -14.003906 15.191406 -13.78125 C 15.566406 -13.410156 15.996094 -13.070312 16.332031 -12.640625 C 16.570312 -12.371094 16.84375 -12.164062 17.15625 -12.019531 C 17.398438 -11.867188 17.625 -11.742188 17.878906 -11.632812 C 18.25 -11.449219 18.625 -11.453125 19.011719 -11.613281 C 19.375 -11.757812 19.710938 -12 20.039062 -12.199219 C 20.230469 -12.3125 20.40625 -12.457031 20.582031 -12.601562 C 20.765625 -12.789062 20.890625 -13.015625 20.929688 -13.261719 C 21.015625 -13.613281 21.027344 -13.957031 20.972656 -14.296875 C 20.847656 -15.117188 20.679688 -15.949219 20.5 -16.738281 C 20.425781 -17.105469 20.328125 -17.457031 20.28125 -17.839844 C 20.269531 -18.167969 20.199219 -18.464844 20.089844 -18.769531 C 19.777344 -19.777344 19.492188 -20.800781 19.25 -21.816406 C 19.105469 -22.363281 18.988281 -22.925781 18.789062 -23.441406 C 18.609375 -23.855469 18.488281 -24.304688 18.464844 -24.777344 C 18.464844 -24.960938 18.40625 -25.117188 18.351562 -25.269531 C 18.242188 -25.574219 18.085938 -25.894531 18.003906 -26.214844 L 17.570312 -27.972656 C 17.507812 -28.199219 17.464844 -28.394531 17.375 -28.601562 C 17.304688 -28.78125 17.1875 -28.972656 17.125 -29.199219 C 16.898438 -29.882812 16.699219 -30.582031 16.667969 -31.3125 C 16.660156 -31.382812 16.628906 -31.4375 16.636719 -31.480469 C 16.535156 -32.019531 16.488281 -32.589844 16.488281 -33.148438 C 16.492188 -33.449219 16.507812 -33.792969 16.464844 -34.105469 C 16.382812 -34.617188 16.382812 -35.105469 16.457031 -35.597656 C 16.464844 -35.714844 16.46875 -35.828125 16.445312 -35.925781 C 16.421875 -36.023438 16.363281 -36.0625 16.265625 -36.039062 C 16.164062 -36.019531 16.082031 -35.96875 16.003906 -35.917969 L 13.078125 -34.144531 C 12.792969 -33.933594 12.484375 -33.707031 12.15625 -33.511719 C 12.101562 -33.476562 12.046875 -33.445312 12.007812 -33.382812 C 11.777344 -33.207031 11.785156 -33.136719 11.988281 -32.921875 L 12.496094 -32.332031 C 12.808594 -32 13.097656 -31.652344 13.289062 -31.207031 C 13.5 -30.738281 13.667969 -30.277344 13.78125 -29.785156 C 13.902344 -29.335938 14.027344 -28.886719 14.191406 -28.425781 C 14.3125 -28.164062 14.382812 -27.871094 14.503906 -27.605469 C 14.707031 -27.207031 14.839844 -26.804688 14.949219 -26.382812 C 15.003906 -26.042969 15.105469 -25.691406 15.234375 -25.359375 C 15.320312 -25.148438 15.394531 -24.96875 15.453125 -24.746094 L 15.90625 -23.449219 C 16.132812 -22.765625 16.390625 -22.097656 16.519531 -21.390625 C 16.554688 -21.148438 16.597656 -20.953125 16.542969 -20.730469 C 16.472656 -20.539062 16.363281 -20.472656 16.1875 -20.515625 C 16.085938 -20.566406 15.980469 -20.613281 15.902344 -20.679688 C 15.457031 -21.042969 14.996094 -21.4375 14.597656 -21.90625 C 14.488281 -22.027344 14.351562 -22.128906 14.195312 -22.261719 C 13.210938 -23.082031 12.246094 -23.992188 11.328125 -24.894531 L 10.609375 -25.582031 C 9.992188 -26.105469 9.433594 -26.660156 8.898438 -27.234375 C 8.566406 -27.59375 8.226562 -27.910156 7.800781 -28.175781 C 7.515625 -28.339844 7.25 -28.589844 7.003906 -28.8125 L 6.789062 -28.984375 C 6.421875 -29.28125 6.023438 -29.378906 5.558594 -29.285156 C 5.308594 -29.207031 5.074219 -29.101562 4.828125 -28.949219 C 4.457031 -28.761719 4.074219 -28.53125 3.75 -28.261719 C 3.382812 -28 3.140625 -27.664062 3.09375 -27.1875 C 3.074219 -26.726562 3.097656 -26.257812 3.203125 -25.835938 C 3.320312 -25.269531 3.449219 -24.75 3.621094 -24.21875 C 3.722656 -23.871094 3.835938 -23.5625 3.863281 -23.207031 C 3.925781 -22.421875 4.1875 -21.683594 4.433594 -20.972656 C 4.601562 -20.511719 4.765625 -20.054688 4.878906 -19.5625 C 4.914062 -19.320312 4.964844 -19.050781 5.054688 -18.84375 C 5.1875 -18.4375 5.347656 -18.050781 5.453125 -17.628906 C 5.554688 -17.277344 5.699219 -16.917969 5.746094 -16.535156 C 5.828125 -16.023438 5.898438 -15.542969 6.0625 -15.082031 L 6.148438 -14.761719 C 6.1875 -14.632812 6.183594 -14.519531 6.160156 -14.429688 C 6.117188 -14.253906 6.007812 -14.1875 5.859375 -14.25 C 5.773438 -14.269531 5.683594 -14.292969 5.625 -14.328125 C 5.140625 -14.632812 4.710938 -14.972656 4.347656 -15.386719 C 4.03125 -15.71875 3.789062 -16.058594 3.449219 -16.375 L 2.824219 -16.96875 C 2.527344 -17.273438 2.148438 -17.53125 1.863281 -17.878906 L 1.367188 -18.511719 L 0.03125 -19.910156 C -0.1875 -20.148438 -0.398438 -20.433594 -0.65625 -20.613281 C -1.113281 -20.933594 -1.433594 -21.339844 -1.742188 -21.785156 L -1.941406 -22.113281 C -2.183594 -22.453125 -2.425781 -22.792969 -2.570312 -23.152344 L -2.765625 -23.78125 C -2.878906 -24.089844 -3.058594 -24.203125 -3.394531 -24.074219 C -3.742188 -23.972656 -4.070312 -23.773438 -4.367188 -23.523438 C -4.523438 -23.351562 -4.699219 -23.207031 -4.917969 -23.074219 C -5.261719 -22.902344 -5.648438 -22.742188 -5.988281 -22.5 L -6.234375 -22.351562 C -6.667969 -22.199219 -7.042969 -21.898438 -7.410156 -21.636719 C -7.8125 -21.316406 -8.257812 -21.125 -8.742188 -20.941406 Z M -9.453125 -20.507812 "/></g></g></g></svg>