<svg xmlns="http://www.w3.org/2000/svg" xmlns:xlink="http://www.w3.org/1999/xlink" width="500" zoomAndPan="magnify" viewBox="0 0 375 374.999991" height="500" preserveAspectRatio="xMidYMid meet" version="1.0"><defs><g/><clipPath id="02af98af4a"><path d="M 60.148438 60.148438 L 314.851562 60.148438 L 314.851562 314.851562 L 60.148438 314.851562 Z M 60.148438 60.148438 " clip-rule="nonzero"/></clipPath><clipPath id="03dd69bca1"><path d="M 187.5 60.148438 C 117.164062 60.148438 60.148438 117.164062 60.148438 187.5 C 60.148438 257.835938 117.164062 314.851562 187.5 314.851562 C 257.835938 314.851562 314.851562 257.835938 314.851562 187.5 C 314.851562 117.164062 257.835938 60.148438 187.5 60.148438 Z M 187.5 60.148438 " clip-rule="nonzero"/></clipPath><clipPath id="5141c32845"><path d="M 63.796875 63.796875 L 311.203125 63.796875 L 311.203125 311.203125 L 63.796875 311.203125 Z M 63.796875 63.796875 " clip-rule="nonzero"/></clipPath><clipPath id="fd3e993e64"><path d="M 187.5 63.796875 C 119.179688 63.796875 63.796875 119.179688 63.796875 187.5 C 63.796875 255.820312 119.179688 311.203125 187.5 311.203125 C 255.820312 311.203125 311.203125 255.820312 311.203125 187.5 C 311.203125 119.179688 255.820312 63.796875 187.5 63.796875 Z M 187.5 63.796875 " clip-rule="nonzero"/></clipPath><clipPath id="35d48e3cae"><path d="M 67.117188 67.117188 L 307.882812 67.117188 L 307.882812 307.882812 L 67.117188 307.882812 Z M 67.117188 67.117188 " clip-rule="nonzero"/></clipPath><clipPath id="8f41d47f42"><path d="M 187.5 67.117188 C 121.015625 67.117188 67.117188 121.015625 67.117188 187.5 C 67.117188 253.984375 121.015625 307.882812 187.5 307.882812 C 253.984375 307.882812 307.882812 253.984375 307.882812 187.5 C 307.882812 121.015625 253.984375 67.117188 187.5 67.117188 Z M 187.5 67.117188 " clip-rule="nonzero"/></clipPath><clipPath id="ed98b7a5cc"><path d="M 78.8125 78.8125 L 296.1875 78.8125 L 296.1875 296.1875 L 78.8125 296.1875 Z M 78.8125 78.8125 " clip-rule="nonzero"/></clipPath><clipPath id="fa364d5c42"><path d="M 187.5 78.8125 C 127.472656 78.8125 78.8125 127.472656 78.8125 187.5 C 78.8125 247.527344 127.472656 296.1875 187.5 296.1875 C 247.527344 296.1875 296.1875 247.527344 296.1875 187.5 C 296.1875 127.472656 247.527344 78.8125 187.5 78.8125 Z M 187.5 78.8125 " clip-rule="nonzero"/></clipPath><clipPath id="914a88a605"><path d="M 78.8125 78.8125 L 296.183594 78.8125 L 296.183594 296.183594 L 78.8125 296.183594 Z M 78.8125 78.8125 " clip-rule="nonzero"/></clipPath><clipPath id="57f17ea8c9"><path d="M 187.5 78.8125 C 127.472656 78.8125 78.8125 127.472656 78.8125 187.5 C 78.8125 247.523438 127.472656 296.183594 187.5 296.183594 C 247.523438 296.183594 296.183594 247.523438 296.183594 187.5 C 296.183594 127.472656 247.523438 78.8125 187.5 78.8125 Z M 187.5 78.8125 " clip-rule="nonzero"/></clipPath><clipPath id="8abc47e6af"><path d="M 86.109375 86.109375 L 288.890625 86.109375 L 288.890625 288.890625 L 86.109375 288.890625 Z M 86.109375 86.109375 " clip-rule="nonzero"/></clipPath><clipPath id="78e3249dbb"><path d="M 187.5 86.109375 C 131.503906 86.109375 86.109375 131.503906 86.109375 187.5 C 86.109375 243.496094 131.503906 288.890625 187.5 288.890625 C 243.496094 288.890625 288.890625 243.496094 288.890625 187.5 C 288.890625 131.503906 243.496094 86.109375 187.5 86.109375 Z M 187.5 86.109375 " clip-rule="nonzero"/></clipPath><clipPath id="da97ddc1c8"><path d="M 86.109375 86.109375 L 288.609375 86.109375 L 288.609375 288.609375 L 86.109375 288.609375 Z M 86.109375 86.109375 " clip-rule="nonzero"/></clipPath><clipPath id="230af3c8d6"><path d="M 187.496094 86.109375 C 131.5 86.109375 86.109375 131.5 86.109375 187.496094 C 86.109375 243.488281 131.5 288.878906 187.496094 288.878906 C 243.488281 288.878906 288.878906 243.488281 288.878906 187.496094 C 288.878906 131.5 243.488281 86.109375 187.496094 86.109375 Z M 187.496094 86.109375 " clip-rule="nonzero"/></clipPath><clipPath id="9f9b427410"><path d="M 75.277344 75.277344 L 299.527344 75.277344 L 299.527344 142.777344 L 75.277344 142.777344 Z M 75.277344 75.277344 " clip-rule="nonzero"/></clipPath><clipPath id="1f443f5869"><path d="M 75.464844 211.03125 L 299.714844 211.03125 L 299.714844 299.53125 L 75.464844 299.53125 Z M 75.464844 211.03125 " clip-rule="nonzero"/></clipPath><clipPath id="d028e4abf3"><path d="M 98.761719 98.761719 L 276.238281 98.761719 L 276.238281 276.238281 L 98.761719 276.238281 Z M 98.761719 98.761719 " clip-rule="nonzero"/></clipPath><clipPath id="f1bca2a18a"><path d="M 187.5 98.761719 C 138.492188 98.761719 98.761719 138.492188 98.761719 187.5 C 98.761719 236.507812 138.492188 276.238281 187.5 276.238281 C 236.507812 276.238281 276.238281 236.507812 276.238281 187.5 C 276.238281 138.492188 236.507812 98.761719 187.5 98.761719 Z M 187.5 98.761719 " clip-rule="nonzero"/></clipPath><clipPath id="587f337d11"><path d="M 101.972656 101.972656 L 273.027344 101.972656 L 273.027344 273.027344 L 101.972656 273.027344 Z M 101.972656 101.972656 " clip-rule="nonzero"/></clipPath><clipPath id="9532cddf40"><path d="M 187.5 101.972656 C 140.265625 101.972656 101.972656 140.265625 101.972656 187.5 C 101.972656 234.734375 140.265625 273.027344 187.5 273.027344 C 234.734375 273.027344 273.027344 234.734375 273.027344 187.5 C 273.027344 140.265625 234.734375 101.972656 187.5 101.972656 Z M 187.5 101.972656 " clip-rule="nonzero"/></clipPath><clipPath id="1edeba3afd"><path d="M 105.578125 105.578125 L 269.421875 105.578125 L 269.421875 269.421875 L 105.578125 269.421875 Z M 105.578125 105.578125 " clip-rule="nonzero"/></clipPath><clipPath id="e8f99c1732"><path d="M 187.5 105.578125 C 142.257812 105.578125 105.578125 142.257812 105.578125 187.5 C 105.578125 232.742188 142.257812 269.421875 187.5 269.421875 C 232.742188 269.421875 269.421875 232.742188 269.421875 187.5 C 269.421875 142.257812 232.742188 105.578125 187.5 105.578125 Z M 187.5 105.578125 " clip-rule="nonzero"/></clipPath><clipPath id="aa83f704e0"><path d="M 265 126 L 297 126 L 297 157 L 265 157 Z M 265 126 " clip-rule="nonzero"/></clipPath><clipPath id="e679afe683"><path d="M 265.574219 138.695312 L 287.128906 126.351562 L 297.0625 143.703125 L 275.511719 156.046875 Z M 265.574219 138.695312 " clip-rule="nonzero"/></clipPath><clipPath id="55c02635a0"><path d="M 265.574219 138.695312 L 287.074219 126.382812 L 297.007812 143.734375 L 275.511719 156.046875 Z M 265.574219 138.695312 " clip-rule="nonzero"/></clipPath><clipPath id="b7edd7444a"><path d="M 77 126 L 110 126 L 110 157 L 77 157 Z M 77 126 " clip-rule="nonzero"/></clipPath><clipPath id="1e8097e2eb"><path d="M 88.074219 126.335938 L 109.519531 138.859375 L 99.441406 156.125 L 77.992188 143.601562 Z M 88.074219 126.335938 " clip-rule="nonzero"/></clipPath><clipPath id="b20c87cd3f"><path d="M 88.074219 126.335938 L 109.46875 138.828125 L 99.386719 156.09375 L 77.992188 143.601562 Z M 88.074219 126.335938 " clip-rule="nonzero"/></clipPath><clipPath id="495a39b639"><path d="M 273 202 L 302 202 L 302 228 L 273 228 Z M 273 202 " clip-rule="nonzero"/></clipPath><clipPath id="bc7a4b1b3b"><path d="M 277.789062 202.449219 L 301.925781 208.300781 L 297.214844 227.734375 L 273.078125 221.882812 Z M 277.789062 202.449219 " clip-rule="nonzero"/></clipPath><clipPath id="2a732a72b8"><path d="M 277.789062 202.449219 L 301.863281 208.289062 L 297.15625 227.71875 L 273.078125 221.882812 Z M 277.789062 202.449219 " clip-rule="nonzero"/></clipPath><clipPath id="fd04a154a0"><path d="M 73 202 L 103 202 L 103 228 L 73 228 Z M 73 202 " clip-rule="nonzero"/></clipPath><clipPath id="7e51851c88"><path d="M 73.136719 208.398438 L 97.226562 202.359375 L 102.085938 221.753906 L 77.996094 227.792969 Z M 73.136719 208.398438 " clip-rule="nonzero"/></clipPath><clipPath id="1cd54dce3b"><path d="M 73.136719 208.398438 L 97.164062 202.375 L 102.027344 221.769531 L 77.996094 227.792969 Z M 73.136719 208.398438 " clip-rule="nonzero"/></clipPath><clipPath id="c12b9c2523"><path d="M 126.0625 124.023438 L 180 124.023438 L 180 154 L 126.0625 154 Z M 126.0625 124.023438 " clip-rule="nonzero"/></clipPath><clipPath id="2d26c77d56"><path d="M 126.0625 144 L 190 144 L 190 195 L 126.0625 195 Z M 126.0625 144 " clip-rule="nonzero"/></clipPath><clipPath id="4d52ebf5a4"><path d="M 185 181 L 240 181 L 240 247.023438 L 185 247.023438 Z M 185 181 " clip-rule="nonzero"/></clipPath></defs><g clip-path="url(#02af98af4a)"><g clip-path="url(#03dd69bca1)"><path fill="#e0b526" d="M 60.148438 60.148438 L 314.851562 60.148438 L 314.851562 314.851562 L 60.148438 314.851562 Z M 60.148438 60.148438 " fill-opacity="1" fill-rule="nonzero"/></g></g><g clip-path="url(#5141c32845)"><g clip-path="url(#fd3e993e64)"><path fill="#ffffff" d="M 63.796875 63.796875 L 311.203125 63.796875 L 311.203125 311.203125 L 63.796875 311.203125 Z M 63.796875 63.796875 " fill-opacity="1" fill-rule="nonzero"/></g></g><g clip-path="url(#35d48e3cae)"><g clip-path="url(#8f41d47f42)"><path fill="#f1d85a" d="M 67.117188 67.117188 L 307.882812 67.117188 L 307.882812 307.882812 L 67.117188 307.882812 Z M 67.117188 67.117188 " fill-opacity="1" fill-rule="nonzero"/></g></g><g clip-path="url(#ed98b7a5cc)"><g clip-path="url(#fa364d5c42)"><path fill="#f1d85a" d="M 78.8125 78.8125 L 296.1875 78.8125 L 296.1875 296.1875 L 78.8125 296.1875 Z M 78.8125 78.8125 " fill-opacity="1" fill-rule="nonzero"/></g></g><g clip-path="url(#914a88a605)"><g clip-path="url(#57f17ea8c9)"><path stroke-linecap="butt" transform="matrix(0.75, 0, 0, 0.75, 78.813038, 78.813043)" fill="none" stroke-linejoin="miter" d="M 144.915959 -0.000723766 C 64.879496 -0.000723766 -0.000716966 64.879489 -0.000716966 144.915952 C -0.000716966 224.947208 64.879496 289.82742 144.915959 289.82742 C 224.947214 289.82742 289.827427 224.947208 289.827427 144.915952 C 289.827427 64.879489 224.947214 -0.000723766 144.915959 -0.000723766 Z M 144.915959 -0.000723766 " stroke="#e0b526" stroke-width="4" stroke-opacity="1" stroke-miterlimit="4"/></g></g><g clip-path="url(#8abc47e6af)"><g clip-path="url(#78e3249dbb)"><path fill="#f1d85a" d="M 86.109375 86.109375 L 288.890625 86.109375 L 288.890625 288.890625 L 86.109375 288.890625 Z M 86.109375 86.109375 " fill-opacity="1" fill-rule="nonzero"/></g></g><g clip-path="url(#da97ddc1c8)"><g clip-path="url(#230af3c8d6)"><path stroke-linecap="butt" transform="matrix(0.75, 0, 0, 0.75, 86.110276, 86.11019)" fill="none" stroke-linejoin="miter" d="M 135.1811 -0.00108606 C 60.519636 -0.00108606 -0.00120086 60.519751 -0.00120086 135.181214 C -0.00120086 209.837469 60.519636 270.358307 135.1811 270.358307 C 209.837355 270.358307 270.358192 209.837469 270.358192 135.181214 C 270.358192 60.519751 209.837355 -0.00108606 135.1811 -0.00108606 Z M 135.1811 -0.00108606 " stroke="#e0b526" stroke-width="4" stroke-opacity="1" stroke-miterlimit="4"/></g></g><g clip-path="url(#9f9b427410)"><path fill="#f1d85a" d="M 299.714844 187.496094 C 299.714844 189.332031 299.667969 191.167969 299.578125 193 C 299.488281 194.835938 299.355469 196.667969 299.171875 198.496094 C 298.992188 200.324219 298.769531 202.144531 298.5 203.960938 C 298.230469 205.777344 297.917969 207.585938 297.558594 209.386719 C 297.199219 211.1875 296.796875 212.980469 296.351562 214.761719 C 295.90625 216.542969 295.414062 218.3125 294.882812 220.070312 C 294.347656 221.828125 293.773438 223.570312 293.152344 225.300781 C 292.535156 227.03125 291.875 228.742188 291.171875 230.441406 C 290.46875 232.136719 289.726562 233.816406 288.941406 235.476562 C 288.15625 237.136719 287.328125 238.773438 286.464844 240.394531 C 285.597656 242.015625 284.691406 243.613281 283.75 245.1875 C 282.804688 246.761719 281.820312 248.3125 280.800781 249.839844 C 279.78125 251.367188 278.722656 252.867188 277.628906 254.34375 C 276.535156 255.820312 275.40625 257.265625 274.242188 258.6875 C 273.078125 260.105469 271.878906 261.496094 270.644531 262.855469 C 269.410156 264.21875 268.144531 265.546875 266.847656 266.847656 C 265.546875 268.144531 264.21875 269.410156 262.855469 270.644531 C 261.496094 271.878906 260.105469 273.078125 258.6875 274.242188 C 257.265625 275.40625 255.820312 276.535156 254.34375 277.628906 C 252.867188 278.722656 251.367188 279.78125 249.839844 280.800781 C 248.3125 281.820312 246.761719 282.804688 245.1875 283.75 C 243.613281 284.691406 242.015625 285.597656 240.394531 286.464844 C 238.773438 287.328125 237.136719 288.15625 235.476562 288.941406 C 233.816406 289.726562 232.136719 290.46875 230.441406 291.171875 C 228.742188 291.875 227.03125 292.535156 225.300781 293.152344 C 223.570312 293.773438 221.828125 294.347656 220.070312 294.882812 C 218.3125 295.414062 216.542969 295.90625 214.761719 296.351562 C 212.980469 296.796875 211.1875 297.199219 209.386719 297.558594 C 207.585938 297.917969 205.777344 298.230469 203.960938 298.5 C 202.144531 298.769531 200.324219 298.992188 198.496094 299.171875 C 196.667969 299.355469 194.835938 299.488281 193 299.578125 C 191.167969 299.667969 189.332031 299.714844 187.496094 299.714844 C 185.660156 299.714844 183.824219 299.667969 181.988281 299.578125 C 180.15625 299.488281 178.324219 299.355469 176.496094 299.171875 C 174.667969 298.992188 172.847656 298.769531 171.03125 298.5 C 169.210938 298.230469 167.402344 297.917969 165.601562 297.558594 C 163.800781 297.199219 162.011719 296.796875 160.226562 296.351562 C 158.445312 295.90625 156.675781 295.414062 154.921875 294.882812 C 153.164062 294.347656 151.417969 293.773438 149.691406 293.152344 C 147.960938 292.535156 146.246094 291.875 144.550781 291.171875 C 142.855469 290.46875 141.175781 289.726562 139.515625 288.941406 C 137.855469 288.15625 136.214844 287.328125 134.597656 286.464844 C 132.976562 285.597656 131.378906 284.691406 129.804688 283.75 C 128.226562 282.804688 126.675781 281.820312 125.148438 280.800781 C 123.621094 279.78125 122.121094 278.722656 120.648438 277.628906 C 119.171875 276.535156 117.722656 275.40625 116.304688 274.242188 C 114.886719 273.078125 113.496094 271.878906 112.132812 270.644531 C 110.773438 269.410156 109.445312 268.144531 108.144531 266.847656 C 106.847656 265.546875 105.582031 264.21875 104.347656 262.855469 C 103.113281 261.496094 101.914062 260.105469 100.75 258.6875 C 99.585938 257.265625 98.453125 255.820312 97.359375 254.34375 C 96.265625 252.867188 95.210938 251.367188 94.1875 249.839844 C 93.167969 248.3125 92.1875 246.761719 91.242188 245.1875 C 90.296875 243.613281 89.394531 242.015625 88.527344 240.394531 C 87.660156 238.773438 86.835938 237.136719 86.050781 235.476562 C 85.265625 233.816406 84.523438 232.136719 83.820312 230.441406 C 83.117188 228.742188 82.457031 227.03125 81.835938 225.300781 C 81.21875 223.570312 80.640625 221.828125 80.109375 220.070312 C 79.574219 218.3125 79.085938 216.542969 78.640625 214.761719 C 78.195312 212.980469 77.792969 211.1875 77.433594 209.386719 C 77.074219 207.585938 76.761719 205.777344 76.492188 203.960938 C 76.222656 202.144531 75.996094 200.324219 75.816406 198.496094 C 75.636719 196.667969 75.5 194.835938 75.410156 193 C 75.320312 191.167969 75.277344 189.332031 75.277344 187.496094 C 75.277344 185.660156 75.320312 183.824219 75.410156 181.988281 C 75.5 180.15625 75.636719 178.324219 75.816406 176.496094 C 75.996094 174.667969 76.222656 172.847656 76.492188 171.03125 C 76.761719 169.210938 77.074219 167.402344 77.433594 165.601562 C 77.792969 163.800781 78.195312 162.011719 78.640625 160.226562 C 79.085938 158.445312 79.574219 156.675781 80.109375 154.921875 C 80.640625 153.164062 81.21875 151.417969 81.835938 149.691406 C 82.457031 147.960938 83.117188 146.246094 83.820312 144.550781 C 84.523438 142.855469 85.265625 141.175781 86.050781 139.515625 C 86.835938 137.855469 87.660156 136.214844 88.527344 134.597656 C 89.394531 132.976562 90.296875 131.378906 91.242188 129.804688 C 92.1875 128.226562 93.167969 126.675781 94.1875 125.148438 C 95.210938 123.621094 96.265625 122.121094 97.359375 120.648438 C 98.453125 119.171875 99.585938 117.722656 100.75 116.304688 C 101.914062 114.886719 103.113281 113.496094 104.347656 112.132812 C 105.582031 110.773438 106.847656 109.445312 108.144531 108.144531 C 109.445312 106.847656 110.773438 105.582031 112.132812 104.347656 C 113.496094 103.113281 114.886719 101.914062 116.304688 100.75 C 117.722656 99.585938 119.171875 98.453125 120.648438 97.359375 C 122.121094 96.265625 123.621094 95.210938 125.148438 94.1875 C 126.675781 93.167969 128.226562 92.1875 129.804688 91.242188 C 131.378906 90.296875 132.976562 89.394531 134.597656 88.527344 C 136.214844 87.660156 137.855469 86.835938 139.515625 86.050781 C 141.175781 85.265625 142.855469 84.523438 144.550781 83.820312 C 146.246094 83.117188 147.960938 82.457031 149.691406 81.835938 C 151.417969 81.21875 153.164062 80.640625 154.921875 80.109375 C 156.675781 79.574219 158.445312 79.085938 160.226562 78.640625 C 162.011719 78.195312 163.800781 77.792969 165.601562 77.433594 C 167.402344 77.074219 169.210938 76.761719 171.03125 76.492188 C 172.847656 76.222656 174.667969 75.996094 176.496094 75.816406 C 178.324219 75.636719 180.15625 75.503906 181.988281 75.410156 C 183.824219 75.320312 185.660156 75.277344 187.496094 75.277344 C 189.332031 75.277344 191.167969 75.320312 193 75.410156 C 194.835938 75.503906 196.667969 75.636719 198.496094 75.816406 C 200.324219 75.996094 202.144531 76.222656 203.960938 76.492188 C 205.777344 76.761719 207.585938 77.074219 209.386719 77.433594 C 211.1875 77.792969 212.980469 78.195312 214.761719 78.640625 C 216.542969 79.085938 218.3125 79.574219 220.070312 80.109375 C 221.828125 80.640625 223.570312 81.21875 225.300781 81.835938 C 227.03125 82.457031 228.742188 83.117188 230.441406 83.820312 C 232.136719 84.523438 233.816406 85.265625 235.476562 86.050781 C 237.136719 86.835938 238.773438 87.660156 240.394531 88.527344 C 242.015625 89.394531 243.613281 90.296875 245.1875 91.242188 C 246.761719 92.1875 248.3125 93.167969 249.839844 94.1875 C 251.367188 95.210938 252.867188 96.265625 254.34375 97.359375 C 255.820312 98.453125 257.265625 99.585938 258.6875 100.75 C 260.105469 101.914062 261.496094 103.113281 262.855469 104.347656 C 264.21875 105.582031 265.546875 106.847656 266.847656 108.144531 C 268.144531 109.445312 269.410156 110.773438 270.644531 112.132812 C 271.878906 113.496094 273.078125 114.886719 274.242188 116.304688 C 275.40625 117.722656 276.535156 119.171875 277.628906 120.648438 C 278.722656 122.121094 279.78125 123.621094 280.800781 125.148438 C 281.820312 126.675781 282.804688 128.226562 283.75 129.804688 C 284.691406 131.378906 285.597656 132.976562 286.464844 134.597656 C 287.328125 136.214844 288.15625 137.855469 288.941406 139.515625 C 289.726562 141.175781 290.46875 142.855469 291.171875 144.550781 C 291.875 146.246094 292.535156 147.960938 293.152344 149.691406 C 293.773438 151.417969 294.347656 153.164062 294.882812 154.921875 C 295.414062 156.675781 295.90625 158.445312 296.351562 160.226562 C 296.796875 162.011719 297.199219 163.800781 297.558594 165.601562 C 297.917969 167.402344 298.230469 169.210938 298.5 171.03125 C 298.769531 172.847656 298.992188 174.667969 299.171875 176.496094 C 299.355469 178.324219 299.488281 180.15625 299.578125 181.988281 C 299.667969 183.824219 299.714844 185.660156 299.714844 187.496094 Z M 299.714844 187.496094 " fill-opacity="1" fill-rule="nonzero"/></g><g clip-path="url(#1f443f5869)"><path fill="#f1d85a" d="M 75.277344 187.3125 C 75.277344 185.476562 75.320312 183.640625 75.410156 181.804688 C 75.503906 179.972656 75.636719 178.140625 75.816406 176.3125 C 75.996094 174.484375 76.222656 172.664062 76.492188 170.847656 C 76.761719 169.03125 77.074219 167.222656 77.433594 165.417969 C 77.792969 163.617188 78.195312 161.828125 78.640625 160.046875 C 79.085938 158.265625 79.574219 156.496094 80.109375 154.738281 C 80.640625 152.980469 81.21875 151.234375 81.835938 149.507812 C 82.457031 147.777344 83.117188 146.066406 83.820312 144.367188 C 84.523438 142.671875 85.265625 140.992188 86.050781 139.332031 C 86.835938 137.671875 87.660156 136.03125 88.527344 134.414062 C 89.394531 132.792969 90.296875 131.195312 91.242188 129.621094 C 92.1875 128.046875 93.167969 126.492188 94.1875 124.96875 C 95.210938 123.441406 96.265625 121.9375 97.359375 120.464844 C 98.453125 118.988281 99.585938 117.542969 100.75 116.121094 C 101.914062 114.703125 103.113281 113.3125 104.347656 111.949219 C 105.582031 110.589844 106.847656 109.261719 108.144531 107.960938 C 109.445312 106.664062 110.773438 105.398438 112.132812 104.164062 C 113.496094 102.929688 114.886719 101.730469 116.304688 100.566406 C 117.722656 99.402344 119.171875 98.273438 120.648438 97.175781 C 122.121094 96.082031 123.621094 95.027344 125.148438 94.007812 C 126.675781 92.984375 128.226562 92.003906 129.804688 91.058594 C 131.378906 90.113281 132.976562 89.210938 134.597656 88.34375 C 136.214844 87.480469 137.855469 86.652344 139.515625 85.867188 C 141.175781 85.082031 142.855469 84.339844 144.550781 83.636719 C 146.246094 82.933594 147.960938 82.273438 149.691406 81.652344 C 151.417969 81.035156 153.164062 80.457031 154.921875 79.925781 C 156.675781 79.394531 158.445312 78.902344 160.230469 78.457031 C 162.011719 78.011719 163.800781 77.609375 165.601562 77.25 C 167.402344 76.890625 169.210938 76.578125 171.03125 76.308594 C 172.847656 76.039062 174.667969 75.8125 176.496094 75.632812 C 178.324219 75.453125 180.15625 75.320312 181.988281 75.230469 C 183.824219 75.140625 185.660156 75.09375 187.496094 75.09375 C 189.332031 75.09375 191.167969 75.140625 193 75.230469 C 194.835938 75.320312 196.667969 75.453125 198.496094 75.632812 C 200.324219 75.8125 202.144531 76.039062 203.960938 76.308594 C 205.777344 76.578125 207.585938 76.890625 209.386719 77.25 C 211.191406 77.609375 212.980469 78.011719 214.761719 78.457031 C 216.542969 78.902344 218.3125 79.394531 220.070312 79.925781 C 221.828125 80.457031 223.570312 81.035156 225.300781 81.652344 C 227.03125 82.273438 228.742188 82.933594 230.441406 83.636719 C 232.136719 84.339844 233.816406 85.082031 235.476562 85.867188 C 237.136719 86.652344 238.773438 87.480469 240.394531 88.34375 C 242.015625 89.210938 243.613281 90.113281 245.1875 91.058594 C 246.761719 92.003906 248.3125 92.984375 249.839844 94.007812 C 251.367188 95.027344 252.867188 96.082031 254.34375 97.175781 C 255.820312 98.273438 257.265625 99.402344 258.6875 100.566406 C 260.105469 101.730469 261.496094 102.929688 262.855469 104.164062 C 264.21875 105.398438 265.546875 106.664062 266.847656 107.960938 C 268.144531 109.261719 269.410156 110.589844 270.644531 111.949219 C 271.878906 113.3125 273.078125 114.703125 274.242188 116.121094 C 275.40625 117.542969 276.535156 118.988281 277.628906 120.464844 C 278.722656 121.9375 279.78125 123.441406 280.800781 124.96875 C 281.820312 126.492188 282.804688 128.046875 283.75 129.621094 C 284.691406 131.195312 285.597656 132.792969 286.464844 134.414062 C 287.328125 136.03125 288.15625 137.671875 288.941406 139.332031 C 289.726562 140.992188 290.46875 142.671875 291.171875 144.367188 C 291.875 146.066406 292.535156 147.777344 293.15625 149.507812 C 293.773438 151.234375 294.347656 152.980469 294.882812 154.738281 C 295.414062 156.496094 295.90625 158.265625 296.351562 160.046875 C 296.796875 161.828125 297.199219 163.617188 297.558594 165.417969 C 297.917969 167.222656 298.230469 169.03125 298.5 170.847656 C 298.769531 172.664062 298.992188 174.484375 299.171875 176.3125 C 299.355469 178.140625 299.488281 179.972656 299.578125 181.804688 C 299.667969 183.640625 299.714844 185.476562 299.714844 187.3125 C 299.714844 189.148438 299.667969 190.984375 299.578125 192.820312 C 299.488281 194.652344 299.355469 196.484375 299.171875 198.3125 C 298.992188 200.140625 298.769531 201.960938 298.5 203.777344 C 298.230469 205.59375 297.917969 207.402344 297.558594 209.207031 C 297.199219 211.007812 296.796875 212.796875 296.351562 214.578125 C 295.90625 216.359375 295.414062 218.128906 294.882812 219.886719 C 294.347656 221.644531 293.773438 223.386719 293.15625 225.117188 C 292.535156 226.847656 291.875 228.558594 291.171875 230.257812 C 290.46875 231.953125 289.726562 233.632812 288.941406 235.292969 C 288.15625 236.953125 287.328125 238.59375 286.464844 240.210938 C 285.597656 241.832031 284.691406 243.429688 283.75 245.003906 C 282.804688 246.578125 281.820312 248.128906 280.800781 249.65625 C 279.78125 251.183594 278.722656 252.6875 277.628906 254.160156 C 276.535156 255.636719 275.40625 257.082031 274.242188 258.503906 C 273.078125 259.921875 271.878906 261.3125 270.644531 262.675781 C 269.410156 264.035156 268.144531 265.363281 266.847656 266.664062 C 265.546875 267.960938 264.21875 269.226562 262.855469 270.460938 C 261.496094 271.695312 260.105469 272.894531 258.6875 274.058594 C 257.265625 275.222656 255.820312 276.351562 254.34375 277.449219 C 252.867188 278.542969 251.367188 279.597656 249.839844 280.617188 C 248.3125 281.640625 246.761719 282.621094 245.1875 283.566406 C 243.613281 284.511719 242.015625 285.414062 240.394531 286.28125 C 238.773438 287.144531 237.136719 287.972656 235.476562 288.757812 C 233.816406 289.542969 232.136719 290.285156 230.441406 290.988281 C 228.742188 291.691406 227.03125 292.351562 225.300781 292.972656 C 223.570312 293.589844 221.828125 294.164062 220.070312 294.699219 C 218.3125 295.230469 216.542969 295.722656 214.761719 296.167969 C 212.980469 296.613281 211.191406 297.015625 209.386719 297.375 C 207.585938 297.734375 205.777344 298.046875 203.960938 298.316406 C 202.144531 298.585938 200.324219 298.8125 198.496094 298.992188 C 196.667969 299.171875 194.835938 299.304688 193 299.394531 C 191.167969 299.484375 189.332031 299.53125 187.496094 299.53125 C 185.660156 299.53125 183.824219 299.484375 181.988281 299.394531 C 180.15625 299.304688 178.324219 299.171875 176.496094 298.992188 C 174.667969 298.8125 172.847656 298.585938 171.03125 298.316406 C 169.210938 298.046875 167.402344 297.734375 165.601562 297.375 C 163.800781 297.015625 162.011719 296.613281 160.230469 296.167969 C 158.445312 295.722656 156.675781 295.230469 154.921875 294.699219 C 153.164062 294.164062 151.417969 293.589844 149.691406 292.972656 C 147.960938 292.351562 146.246094 291.691406 144.550781 290.988281 C 142.855469 290.285156 141.175781 289.542969 139.515625 288.757812 C 137.855469 287.972656 136.214844 287.144531 134.597656 286.28125 C 132.976562 285.414062 131.378906 284.511719 129.804688 283.566406 C 128.226562 282.621094 126.675781 281.640625 125.148438 280.617188 C 123.621094 279.597656 122.121094 278.542969 120.648438 277.449219 C 119.171875 276.351562 117.722656 275.222656 116.304688 274.058594 C 114.886719 272.894531 113.496094 271.695312 112.132812 270.460938 C 110.773438 269.226562 109.445312 267.960938 108.144531 266.664062 C 106.847656 265.363281 105.582031 264.035156 104.347656 262.675781 C 103.113281 261.3125 101.914062 259.921875 100.75 258.503906 C 99.585938 257.082031 98.453125 255.636719 97.359375 254.160156 C 96.265625 252.6875 95.210938 251.183594 94.1875 249.65625 C 93.167969 248.128906 92.1875 246.578125 91.242188 245.003906 C 90.296875 243.429688 89.394531 241.832031 88.527344 240.210938 C 87.660156 238.59375 86.835938 236.953125 86.050781 235.292969 C 85.265625 233.632812 84.523438 231.953125 83.820312 230.257812 C 83.117188 228.558594 82.457031 226.847656 81.835938 225.117188 C 81.21875 223.386719 80.640625 221.644531 80.109375 219.886719 C 79.574219 218.128906 79.085938 216.359375 78.640625 214.578125 C 78.195312 212.796875 77.792969 211.007812 77.433594 209.207031 C 77.074219 207.402344 76.761719 205.59375 76.492188 203.777344 C 76.222656 201.960938 75.996094 200.140625 75.816406 198.3125 C 75.636719 196.484375 75.503906 194.652344 75.410156 192.820312 C 75.320312 190.984375 75.277344 189.148438 75.277344 187.3125 Z M 75.277344 187.3125 " fill-opacity="1" fill-rule="nonzero"/></g><g clip-path="url(#d028e4abf3)"><g clip-path="url(#f1bca2a18a)"><path fill="#ffffff" d="M 98.761719 98.761719 L 276.238281 98.761719 L 276.238281 276.238281 L 98.761719 276.238281 Z M 98.761719 98.761719 " fill-opacity="1" fill-rule="nonzero"/></g></g><g clip-path="url(#587f337d11)"><g clip-path="url(#9532cddf40)"><path fill="#e0b526" d="M 101.972656 101.972656 L 273.027344 101.972656 L 273.027344 273.027344 L 101.972656 273.027344 Z M 101.972656 101.972656 " fill-opacity="1" fill-rule="nonzero"/></g></g><g clip-path="url(#1edeba3afd)"><g clip-path="url(#e8f99c1732)"><path fill="#ffffff" d="M 105.578125 105.578125 L 269.421875 105.578125 L 269.421875 269.421875 L 105.578125 269.421875 Z M 105.578125 105.578125 " fill-opacity="1" fill-rule="nonzero"/></g></g><g clip-path="url(#aa83f704e0)"><g clip-path="url(#e679afe683)"><g clip-path="url(#55c02635a0)"><path fill="#f1d85a" d="M 265.574219 138.695312 L 287.058594 126.390625 L 296.996094 143.742188 L 275.511719 156.046875 Z M 265.574219 138.695312 " fill-opacity="1" fill-rule="nonzero"/></g></g></g><g clip-path="url(#b7edd7444a)"><g clip-path="url(#1e8097e2eb)"><g clip-path="url(#b20c87cd3f)"><path fill="#f1d85a" d="M 88.074219 126.335938 L 109.453125 138.820312 L 99.371094 156.085938 L 77.992188 143.601562 Z M 88.074219 126.335938 " fill-opacity="1" fill-rule="nonzero"/></g></g></g><g clip-path="url(#495a39b639)"><g clip-path="url(#bc7a4b1b3b)"><g clip-path="url(#2a732a72b8)"><path fill="#f1d85a" d="M 277.789062 202.449219 L 301.851562 208.285156 L 297.140625 227.714844 L 273.078125 221.882812 Z M 277.789062 202.449219 " fill-opacity="1" fill-rule="nonzero"/></g></g></g><g clip-path="url(#fd04a154a0)"><g clip-path="url(#7e51851c88)"><g clip-path="url(#1cd54dce3b)"><path fill="#f1d85a" d="M 73.136719 208.398438 L 97.148438 202.378906 L 102.011719 221.773438 L 77.996094 227.792969 Z M 73.136719 208.398438 " fill-opacity="1" fill-rule="nonzero"/></g></g></g><g fill="#ffffff" fill-opacity="1"><g transform="translate(140.608163, 104.518447)"><g><path d="M 2.617188 -25.820312 C 2.582031 -25.734375 2.511719 -25.742188 2.453125 -25.71875 C 2.335938 -25.667969 2.214844 -25.621094 2.109375 -25.542969 C 1.824219 -25.394531 1.542969 -25.242188 1.214844 -25.109375 C 0.902344 -24.945312 0.632812 -24.765625 0.382812 -24.527344 L -0.417969 -23.785156 C -0.863281 -23.433594 -1.292969 -23.050781 -1.628906 -22.601562 C -2.203125 -21.816406 -2.75 -21.039062 -3.09375 -20.105469 L -3.472656 -18.917969 L -3.796875 -18.023438 C -3.945312 -17.617188 -4.019531 -17.207031 -3.980469 -16.777344 C -3.929688 -16.484375 -3.953125 -16.199219 -4.015625 -15.933594 C -4.101562 -15.550781 -4.128906 -15.195312 -4.085938 -14.835938 C -3.984375 -13.910156 -3.851562 -12.996094 -3.691406 -12.09375 C -3.636719 -11.875 -3.582031 -11.65625 -3.46875 -11.460938 C -3.367188 -11.296875 -3.265625 -11.128906 -3.179688 -10.921875 C -2.984375 -10.449219 -2.761719 -9.988281 -2.539062 -9.527344 C -2.28125 -8.976562 -1.945312 -8.492188 -1.550781 -8.03125 C -1.199219 -7.589844 -0.785156 -7.171875 -0.402344 -6.738281 C -0.113281 -6.375 0.238281 -6.101562 0.601562 -5.804688 C 0.71875 -5.679688 0.871094 -5.566406 1.035156 -5.496094 C 1.601562 -5.210938 2.125 -4.941406 2.710938 -4.695312 L 3.261719 -4.4375 C 3.675781 -4.191406 4.121094 -4.027344 4.609375 -4.019531 C 4.820312 -4.003906 5.046875 -3.957031 5.285156 -3.882812 C 5.71875 -3.75 6.171875 -3.65625 6.660156 -3.648438 C 7.003906 -3.652344 7.359375 -3.625 7.683594 -3.585938 C 8.753906 -3.503906 9.757812 -3.667969 10.738281 -3.96875 L 12.035156 -4.425781 C 12.59375 -4.585938 13.15625 -4.816406 13.6875 -5.03125 C 13.777344 -5.070312 13.855469 -5.132812 13.941406 -5.171875 C 14.214844 -5.351562 14.484375 -5.53125 14.769531 -5.679688 C 15.175781 -5.949219 15.609375 -6.160156 15.992188 -6.492188 C 16.359375 -6.777344 16.738281 -7.035156 16.996094 -7.417969 C 17.183594 -7.632812 17.371094 -7.847656 17.613281 -8.015625 C 17.875 -8.226562 18.164062 -8.445312 18.359375 -8.734375 C 18.546875 -8.949219 18.691406 -9.179688 18.828125 -9.441406 C 19.089844 -9.894531 19.171875 -10.375 19.078125 -10.855469 C 19.066406 -11.058594 18.964844 -11.222656 18.921875 -11.414062 C 18.769531 -11.871094 18.617188 -12.324219 18.40625 -12.757812 C 18.351562 -12.804688 18.328125 -12.863281 18.304688 -12.921875 C 18.179688 -13.148438 18.023438 -13.359375 18.015625 -13.632812 C 17.984375 -13.964844 17.863281 -14.261719 17.730469 -14.585938 C 17.519531 -15.019531 17.398438 -15.488281 17.304688 -15.964844 C 17.164062 -16.566406 17.054688 -17.175781 17.113281 -17.789062 L 17.121094 -18.273438 L 17.078125 -18.636719 C 16.980469 -18.871094 16.875 -18.96875 16.625 -18.898438 C 16.496094 -18.882812 16.363281 -18.863281 16.246094 -18.8125 C 15.417969 -18.476562 14.601562 -18.109375 13.75 -17.828125 C 13.261719 -17.667969 12.8125 -17.414062 12.339844 -17.21875 C 11.671875 -16.914062 10.949219 -16.652344 10.269531 -16.375 C 10.121094 -16.316406 9.972656 -16.253906 9.878906 -16.148438 C 9.742188 -16.058594 9.738281 -15.984375 9.769531 -15.824219 C 9.816406 -15.707031 9.882812 -15.628906 9.949219 -15.554688 C 10.230469 -15.289062 10.421875 -14.988281 10.640625 -14.699219 L 11.539062 -13.511719 C 11.71875 -13.238281 11.882812 -12.925781 12.046875 -12.613281 C 12.339844 -12.144531 12.53125 -11.671875 12.667969 -11.175781 C 12.742188 -10.824219 12.832031 -10.515625 12.992188 -10.203125 C 13.132812 -9.949219 13.242188 -9.683594 13.347656 -9.417969 C 13.507812 -9.03125 13.441406 -8.765625 13.105469 -8.488281 C 12.652344 -8.164062 12.15625 -7.859375 11.632812 -7.613281 C 11.410156 -7.484375 11.191406 -7.429688 10.972656 -7.375 C 10.691406 -7.296875 10.445312 -7.230469 10.171875 -7.222656 C 9.542969 -7.242188 8.941406 -7.273438 8.367188 -7.417969 C 8.140625 -7.464844 7.929688 -7.550781 7.710938 -7.667969 L 6.789062 -8.15625 C 6.03125 -8.570312 5.414062 -9.148438 4.910156 -9.875 C 4.71875 -10.175781 4.539062 -10.449219 4.300781 -10.695312 C 4.210938 -10.832031 4.132812 -10.9375 4.011719 -11.0625 C 3.574219 -11.710938 3.285156 -12.421875 2.9375 -13.109375 C 2.851562 -13.316406 2.785156 -13.5625 2.699219 -13.769531 C 2.472656 -14.332031 2.34375 -14.902344 2.214844 -15.472656 C 2.097656 -16.011719 2.113281 -16.570312 2.035156 -17.089844 C 1.988281 -17.554688 2.007812 -18.011719 1.9375 -18.429688 C 1.894531 -18.792969 1.964844 -19.132812 2.085938 -19.421875 C 2.242188 -19.796875 2.359375 -20.191406 2.433594 -20.601562 C 2.449219 -20.816406 2.539062 -21.023438 2.667969 -21.214844 C 2.996094 -21.761719 3.433594 -22.214844 3.910156 -22.652344 C 4.109375 -22.839844 4.335938 -22.964844 4.601562 -23.074219 L 5.785156 -23.554688 C 5.992188 -23.640625 6.210938 -23.695312 6.414062 -23.707031 C 6.847656 -23.746094 7.304688 -23.726562 7.707031 -23.753906 C 8.007812 -23.773438 8.324219 -23.761719 8.59375 -23.699219 L 9.167969 -23.554688 C 10.269531 -23.3125 11.296875 -22.90625 12.253906 -22.257812 C 12.347656 -22.195312 12.429688 -22.160156 12.542969 -22.136719 C 12.851562 -22.054688 12.976562 -22.175781 12.886719 -22.484375 L 12.875 -22.511719 C 12.78125 -22.820312 12.671875 -23.085938 12.492188 -23.359375 C 12.3125 -23.628906 12.144531 -23.871094 12.054688 -24.179688 C 11.976562 -24.460938 11.867188 -24.726562 11.769531 -24.960938 C 11.535156 -25.453125 11.285156 -25.902344 11.089844 -26.375 C 10.9375 -26.832031 10.714844 -27.292969 10.535156 -27.738281 C 10.488281 -27.855469 10.4375 -27.972656 10.359375 -28.082031 C 10.246094 -28.277344 10.117188 -28.257812 10.003906 -28.109375 L 9.785156 -27.707031 C 9.632812 -27.40625 9.417969 -27.179688 9.101562 -27.015625 C 8.820312 -26.863281 8.523438 -26.746094 8.214844 -26.652344 C 7.847656 -26.539062 7.445312 -26.511719 7.078125 -26.566406 C 6.851562 -26.613281 6.636719 -26.628906 6.421875 -26.648438 C 5.949219 -26.625 5.4375 -26.519531 4.988281 -26.441406 C 4.4375 -26.355469 3.921875 -26.179688 3.410156 -26.074219 C 3.222656 -26.03125 3.054688 -25.929688 2.882812 -25.929688 Z M 2.617188 -25.820312 "/></g></g></g><g fill="#ffffff" fill-opacity="1"><g transform="translate(163.995932, 95.035486)"><g><path d="M -0.164062 -10.886719 C -0.0585938 -10.546875 0.078125 -10.175781 0.0898438 -9.824219 C 0.121094 -9.539062 0.1875 -9.253906 0.25 -8.972656 C 0.445312 -8.417969 0.726562 -7.933594 0.945312 -7.414062 C 1.152344 -7.019531 1.390625 -6.628906 1.65625 -6.273438 C 1.804688 -6.097656 1.957031 -5.890625 2.050781 -5.640625 C 2.273438 -5.121094 2.636719 -4.746094 3.007812 -4.335938 C 3.375 -3.929688 3.824219 -3.660156 4.222656 -3.285156 C 4.898438 -2.722656 5.664062 -2.230469 6.507812 -1.878906 C 7.421875 -1.5 8.328125 -1.15625 9.277344 -1.007812 C 9.671875 -0.957031 10.066406 -0.871094 10.488281 -0.855469 C 11.132812 -0.835938 11.769531 -0.875 12.441406 -0.921875 C 12.886719 -0.972656 13.363281 -1.027344 13.832031 -1.144531 C 14.363281 -1.273438 14.894531 -1.429688 15.417969 -1.617188 C 16.257812 -1.875 17.019531 -2.222656 17.65625 -2.84375 C 17.800781 -2.988281 18.011719 -3.109375 18.222656 -3.230469 C 18.585938 -3.433594 18.914062 -3.664062 19.164062 -4.015625 C 19.359375 -4.261719 19.589844 -4.511719 19.820312 -4.734375 C 20.257812 -5.136719 20.621094 -5.597656 20.953125 -6.054688 C 21.066406 -6.195312 21.152344 -6.300781 21.195312 -6.46875 C 21.390625 -7.007812 21.683594 -7.554688 21.945312 -8.066406 L 22.167969 -8.640625 C 22.378906 -9.339844 22.523438 -10.03125 22.664062 -10.757812 C 22.785156 -11.382812 22.839844 -12.03125 22.828125 -12.675781 C 22.808594 -12.863281 22.78125 -13.085938 22.792969 -13.28125 C 22.785156 -13.601562 22.753906 -13.886719 22.6875 -14.171875 L 22.457031 -15.042969 C 22.371094 -15.515625 22.253906 -15.984375 22.070312 -16.449219 C 21.929688 -16.847656 21.753906 -17.246094 21.578125 -17.644531 C 21.339844 -18.324219 21.007812 -18.964844 20.558594 -19.523438 C 20.335938 -19.785156 20.082031 -20.015625 19.921875 -20.285156 C 19.574219 -20.792969 19.171875 -21.230469 18.652344 -21.554688 L 18.292969 -21.867188 C 17.96875 -22.152344 17.617188 -22.433594 17.210938 -22.609375 C 16.28125 -23.113281 15.304688 -23.515625 14.304688 -23.820312 C 13.867188 -23.960938 13.402344 -24.101562 12.949219 -24.113281 C 12.402344 -24.113281 11.878906 -24.183594 11.382812 -24.320312 C 11.121094 -24.351562 10.863281 -24.355469 10.617188 -24.261719 C 10.210938 -24.152344 9.796875 -24.105469 9.414062 -24.089844 C 9.125 -24.089844 8.839844 -24.027344 8.589844 -23.964844 C 8.1875 -23.855469 7.816406 -23.714844 7.445312 -23.574219 C 6.765625 -23.335938 6.09375 -23.03125 5.457031 -22.671875 C 4.980469 -22.355469 4.535156 -22.015625 4.085938 -21.738281 C 3.785156 -21.542969 3.53125 -21.257812 3.300781 -21.003906 C 3.105469 -20.757812 2.878906 -20.507812 2.644531 -20.285156 C 2.449219 -20.039062 2.21875 -19.785156 2.054688 -19.542969 C 1.457031 -18.605469 0.917969 -17.671875 0.488281 -16.660156 C 0.289062 -16.152344 0.09375 -15.617188 0.0273438 -15.09375 L -0.0429688 -14.601562 C -0.160156 -13.945312 -0.214844 -13.296875 -0.171875 -12.625 C -0.160156 -12.273438 -0.179688 -11.882812 -0.238281 -11.554688 Z M 16.265625 -13.234375 C 16.328125 -12.953125 16.324219 -12.726562 16.285156 -12.496094 C 16.203125 -12.101562 16.25 -11.6875 16.324219 -11.3125 C 16.378906 -10.867188 16.363281 -10.449219 16.246094 -10.046875 C 16.1875 -9.71875 16.132812 -9.359375 16.109375 -9.003906 C 15.933594 -8.015625 15.625 -7.082031 15.082031 -6.214844 C 14.863281 -5.867188 14.644531 -5.519531 14.363281 -5.195312 C 14.046875 -4.839844 13.625 -4.597656 13.199219 -4.386719 C 12.925781 -4.257812 12.652344 -4.132812 12.335938 -4.0625 C 11.703125 -3.988281 11.109375 -4.113281 10.53125 -4.367188 C 9.71875 -4.726562 9.074219 -5.292969 8.570312 -6.039062 C 7.917969 -6.929688 7.457031 -7.875 7.050781 -8.890625 C 6.820312 -9.476562 6.652344 -10.097656 6.484375 -10.722656 C 6.410156 -11.101562 6.460938 -11.492188 6.449219 -11.84375 L 6.414062 -12.164062 C 6.371094 -12.253906 6.359375 -12.347656 6.351562 -12.445312 C 6.332031 -12.601562 6.285156 -12.726562 6.269531 -12.855469 C 6.210938 -13.105469 6.246094 -13.332031 6.253906 -13.558594 C 6.3125 -14.175781 6.308594 -14.757812 6.398438 -15.378906 C 6.441406 -15.832031 6.515625 -16.292969 6.65625 -16.757812 L 6.71875 -17.054688 C 6.832031 -17.746094 7.082031 -18.351562 7.46875 -18.914062 C 7.683594 -19.292969 7.894531 -19.703125 8.246094 -20 C 8.707031 -20.4375 9.253906 -20.726562 9.878906 -20.894531 C 10.253906 -21.003906 10.667969 -21.019531 11.058594 -21 C 11.414062 -20.976562 11.71875 -20.851562 12.027344 -20.691406 L 13.039062 -20.003906 C 13.460938 -19.699219 13.765625 -19.285156 14.070312 -18.871094 L 14.5625 -18.21875 C 15.1875 -17.261719 15.628906 -16.25 15.886719 -15.121094 C 15.980469 -14.585938 16.074219 -14.050781 16.230469 -13.519531 C 16.273438 -13.429688 16.257812 -13.300781 16.265625 -13.234375 Z M 16.265625 -13.234375 "/></g></g></g><g fill="#ffffff" fill-opacity="1"><g transform="translate(190.210533, 92.452208)"><g><path d="M 14.089844 1.941406 C 15.066406 2.109375 16.019531 2.210938 17.015625 2.253906 C 17.46875 2.25 17.894531 2.214844 18.355469 2.148438 C 18.617188 2.121094 18.859375 1.996094 19.023438 1.757812 C 19.296875 1.410156 19.546875 0.992188 19.679688 0.527344 C 19.695312 0.402344 19.75 0.246094 19.765625 0.121094 C 19.902344 -0.375 20.03125 -0.84375 20.097656 -1.316406 C 20.171875 -1.855469 20.277344 -2.359375 20.503906 -2.84375 C 20.558594 -2.996094 20.582031 -3.152344 20.566406 -3.285156 C 20.589844 -3.441406 20.503906 -3.519531 20.363281 -3.441406 C 20.226562 -3.398438 20.121094 -3.316406 20.011719 -3.234375 C 19.523438 -2.753906 18.976562 -2.3125 18.4375 -1.90625 C 17.933594 -1.523438 17.414062 -1.273438 16.785156 -1.167969 C 16.449219 -1.085938 16.09375 -1.070312 15.730469 -1.023438 C 15.039062 -0.929688 14.328125 -0.898438 13.597656 -1 C 13.410156 -1.027344 13.191406 -1.089844 12.96875 -1.121094 L 11.578125 -1.316406 C 11.355469 -1.347656 11.136719 -1.410156 10.925781 -1.503906 C 10.621094 -1.644531 10.464844 -1.890625 10.414062 -2.222656 C 10.339844 -2.617188 10.328125 -3.007812 10.386719 -3.417969 C 10.441406 -3.800781 10.425781 -4.15625 10.441406 -4.507812 C 10.433594 -4.898438 10.449219 -5.25 10.53125 -5.59375 C 10.660156 -6.058594 10.695312 -6.539062 10.699219 -7.023438 C 10.714844 -7.375 10.757812 -7.691406 10.871094 -8.03125 C 10.953125 -8.375 11.066406 -8.746094 11.085938 -9.097656 C 11.0625 -9.390625 11.066406 -9.648438 11.105469 -9.933594 L 11.300781 -11.328125 C 11.328125 -11.519531 11.386719 -11.703125 11.445312 -11.886719 C 11.546875 -12.164062 11.589844 -12.480469 11.605469 -12.800781 C 11.621094 -13.15625 11.636719 -13.507812 11.6875 -13.855469 C 11.703125 -13.980469 11.6875 -14.082031 11.703125 -14.207031 C 11.742188 -14.492188 11.714844 -14.753906 11.789062 -15.035156 C 11.910156 -15.4375 12.023438 -15.808594 12.050781 -16.226562 C 12.09375 -16.542969 12.203125 -16.847656 12.277344 -17.160156 C 12.429688 -17.785156 12.671875 -18.363281 12.917969 -18.976562 C 13.074219 -19.375 13.226562 -19.773438 13.4375 -20.128906 L 13.515625 -20.246094 C 13.582031 -20.464844 13.53125 -20.570312 13.316406 -20.664062 C 13.253906 -20.671875 13.164062 -20.71875 13.070312 -20.730469 C 12.402344 -20.824219 11.707031 -20.921875 11.046875 -21.046875 C 10.609375 -21.140625 10.183594 -21.101562 9.746094 -21.195312 L 9.207031 -21.269531 C 8.835938 -21.386719 8.425781 -21.445312 8.039062 -21.464844 C 7.625 -21.492188 7.175781 -21.523438 6.773438 -21.644531 C 6.585938 -21.671875 6.429688 -21.722656 6.234375 -21.71875 C 5.910156 -21.699219 5.761719 -21.558594 5.8125 -21.230469 C 5.804688 -20.941406 5.890625 -20.636719 5.949219 -20.371094 C 6.195312 -19.367188 6.222656 -18.398438 6.113281 -17.378906 C 6.011719 -16.425781 5.847656 -15.480469 5.714844 -14.53125 C 5.699219 -14.433594 5.722656 -14.367188 5.710938 -14.273438 C 5.722656 -13.914062 5.707031 -13.5625 5.660156 -13.214844 C 5.640625 -13.089844 5.589844 -12.964844 5.570312 -12.808594 L 5.292969 -10.84375 C 5.226562 -10.371094 5.125 -9.867188 5.121094 -9.386719 C 5.128906 -8.964844 5.042969 -8.589844 4.894531 -8.222656 C 4.792969 -7.945312 4.746094 -7.628906 4.738281 -7.339844 L 4.691406 -6.992188 C 4.640625 -6.417969 4.472656 -5.894531 4.425781 -5.320312 C 4.394531 -4.871094 4.390625 -4.386719 4.328125 -3.945312 C 4.234375 -3.28125 4.085938 -2.6875 3.777344 -2.085938 C 3.546875 -1.601562 3.28125 -1.089844 3.085938 -0.601562 C 2.84375 -0.0234375 2.980469 0.160156 3.441406 0.320312 C 4.113281 0.574219 4.773438 0.699219 5.480469 0.734375 C 5.800781 0.746094 6.113281 0.824219 6.425781 0.898438 L 7.660156 1.074219 C 7.980469 1.085938 8.300781 1.097656 8.640625 1.210938 C 8.953125 1.285156 9.265625 1.363281 9.617188 1.378906 C 10.132812 1.386719 10.675781 1.429688 11.214844 1.503906 C 11.40625 1.53125 11.601562 1.496094 11.789062 1.554688 C 12.164062 1.636719 12.507812 1.71875 12.886719 1.773438 Z M 14.089844 1.941406 "/></g></g></g><g fill="#ffffff" fill-opacity="1"><g transform="translate(211.616144, 95.354769)"><g><path d="M 11 4.425781 C 11.296875 4.546875 11.574219 4.628906 11.859375 4.777344 C 12.242188 4.933594 12.621094 5.019531 13.015625 5.078125 C 13.363281 5.152344 13.714844 5.226562 14.050781 5.328125 C 14.328125 5.40625 14.648438 5.46875 14.964844 5.460938 L 15.765625 5.441406 C 17.054688 5.417969 18.320312 5.105469 19.535156 4.667969 C 20.0625 4.472656 20.546875 4.21875 21.023438 3.898438 L 21.375 3.625 C 21.914062 3.328125 22.402344 2.976562 22.808594 2.484375 L 23.339844 1.945312 C 23.945312 1.394531 24.367188 0.703125 24.769531 -0.0273438 C 25.007812 -0.449219 25.21875 -0.878906 25.480469 -1.257812 C 25.59375 -1.453125 25.695312 -1.617188 25.765625 -1.796875 L 26.242188 -3.464844 C 26.433594 -4.183594 26.503906 -4.949219 26.503906 -5.707031 C 26.503906 -6.050781 26.496094 -6.367188 26.527344 -6.699219 C 26.574219 -7.058594 26.574219 -7.40625 26.519531 -7.773438 C 26.414062 -8.195312 26.394531 -8.652344 26.179688 -9.050781 C 26.0625 -9.273438 25.925781 -9.535156 25.863281 -9.800781 C 25.695312 -10.320312 25.425781 -10.84375 25.214844 -11.34375 C 25.097656 -11.566406 24.953125 -11.796875 24.792969 -12 L 24.015625 -12.972656 C 23.734375 -13.296875 23.410156 -13.601562 23.097656 -13.9375 C 22.957031 -14.097656 22.816406 -14.257812 22.664062 -14.390625 C 21.777344 -15.097656 20.789062 -15.640625 19.753906 -16.0625 C 19.429688 -16.195312 19.121094 -16.285156 18.824219 -16.40625 C 17.671875 -16.878906 16.535156 -17.308594 15.40625 -17.839844 C 15.0625 -18.015625 14.679688 -18.171875 14.28125 -18.300781 C 13.945312 -18.402344 13.589844 -18.546875 13.261719 -18.679688 C 12.742188 -18.929688 12.222656 -19.175781 11.660156 -19.40625 C 11.554688 -19.484375 11.421875 -19.5 11.324219 -19.507812 C 11.03125 -19.558594 10.882812 -19.445312 10.832031 -19.15625 C 10.789062 -18.964844 10.777344 -18.765625 10.792969 -18.550781 C 10.78125 -17.175781 10.511719 -15.835938 9.992188 -14.5625 C 9.886719 -14.226562 9.714844 -13.882812 9.582031 -13.554688 L 9.496094 -13.347656 C 9.28125 -12.988281 9.109375 -12.574219 8.984375 -12.179688 C 8.878906 -11.839844 8.746094 -11.515625 8.582031 -11.203125 C 8.457031 -10.976562 8.34375 -10.78125 8.246094 -10.546875 C 8.136719 -10.277344 8.046875 -9.972656 7.9375 -9.703125 C 7.675781 -8.980469 7.328125 -8.296875 7.097656 -7.5625 C 6.96875 -7.164062 6.800781 -6.75 6.640625 -6.367188 C 6.34375 -5.554688 5.976562 -4.738281 5.609375 -3.921875 C 5.585938 -3.863281 5.574219 -3.835938 5.519531 -3.789062 C 5.3125 -3.457031 5.167969 -3.101562 5.054688 -2.734375 C 4.945312 -2.296875 4.773438 -1.882812 4.488281 -1.515625 C 4.164062 -1.0625 3.820312 -0.648438 3.46875 -0.207031 C 3.28125 -0.00390625 3.066406 0.183594 2.910156 0.394531 C 2.558594 0.839844 2.667969 0.988281 3.058594 1.214844 L 3.734375 1.59375 C 4.078125 1.769531 4.457031 1.855469 4.8125 2 C 5.148438 2.105469 5.445312 2.226562 5.738281 2.347656 C 6.1875 2.597656 6.632812 2.78125 7.140625 2.882812 C 7.492188 2.957031 7.847656 3.105469 8.179688 3.308594 C 8.539062 3.523438 8.910156 3.710938 9.320312 3.808594 C 9.699219 3.894531 10.066406 4.011719 10.410156 4.183594 Z M 19.667969 -4.359375 C 19.484375 -3.914062 19.273438 -3.480469 19.046875 -3.09375 L 18.902344 -2.738281 C 18.796875 -2.398438 18.59375 -2.070312 18.402344 -1.769531 C 17.832031 -0.964844 17.214844 -0.214844 16.503906 0.425781 C 16.03125 0.820312 15.558594 1.214844 15.054688 1.523438 C 14.285156 1.96875 13.5 2.203125 12.621094 1.980469 C 12.332031 1.933594 12.078125 1.792969 11.8125 1.683594 C 11.496094 1.523438 11.195312 1.332031 10.859375 1.226562 C 10.503906 1.082031 10.386719 0.859375 10.484375 0.453125 C 10.492188 0.351562 10.539062 0.234375 10.574219 0.144531 C 10.757812 -0.300781 10.867188 -0.738281 10.976562 -1.175781 L 11.039062 -1.324219 C 11.308594 -1.902344 11.507812 -2.476562 11.710938 -3.050781 C 12.132812 -4.261719 12.601562 -5.484375 13.113281 -6.65625 C 13.199219 -6.863281 13.3125 -7.058594 13.425781 -7.253906 C 13.644531 -7.613281 13.769531 -8.011719 13.839844 -8.433594 C 13.90625 -8.679688 14.003906 -8.917969 14.117188 -9.113281 C 14.496094 -9.785156 14.746094 -10.480469 15.023438 -11.160156 L 15.386719 -12.046875 C 15.46875 -12.253906 15.601562 -12.40625 15.714844 -12.601562 C 15.867188 -12.886719 16 -13.210938 16.191406 -13.511719 C 16.214844 -13.570312 16.253906 -13.660156 16.304688 -13.707031 C 16.539062 -14.027344 16.738281 -14.085938 17.089844 -13.9375 C 17.476562 -13.78125 17.859375 -13.625 18.238281 -13.539062 C 18.578125 -13.433594 18.902344 -13.300781 19.175781 -13.121094 C 19.554688 -12.863281 19.78125 -12.496094 20.011719 -12.125 C 20.15625 -11.890625 20.230469 -11.65625 20.296875 -11.386719 C 20.601562 -10.191406 20.691406 -8.980469 20.542969 -7.765625 L 20.316406 -6.371094 C 20.269531 -6.082031 20.1875 -5.800781 20.078125 -5.535156 C 19.953125 -5.140625 19.84375 -4.699219 19.667969 -4.359375 Z M 19.667969 -4.359375 "/></g></g></g><g fill="#ffffff" fill-opacity="1"><g transform="translate(106.579199, 267.791673)"><g><path d="M 26.945312 1.207031 C 27.003906 1.089844 27.082031 0.945312 27.167969 0.851562 C 27.371094 0.5625 27.578125 0.277344 27.78125 -0.0546875 C 27.960938 -0.363281 28.167969 -0.652344 28.445312 -0.875 C 28.703125 -1.074219 28.910156 -1.316406 29.023438 -1.644531 C 29.179688 -1.972656 29.246094 -2.292969 29.359375 -2.621094 C 29.441406 -3.011719 29.371094 -3.367188 29.1875 -3.695312 C 29.058594 -3.933594 28.882812 -4.171875 28.730469 -4.386719 C 28.324219 -4.945312 27.878906 -5.457031 27.351562 -5.871094 C 26.992188 -6.140625 26.671875 -6.457031 26.335938 -6.75 L 26.164062 -6.894531 C 25.96875 -7.105469 25.769531 -7.320312 25.554688 -7.507812 C 25.214844 -7.796875 24.894531 -8.113281 24.515625 -8.359375 C 24.253906 -8.542969 24.03125 -8.777344 23.769531 -8.960938 C 23.675781 -9 23.625 -9.085938 23.550781 -9.148438 C 23.328125 -9.382812 23.085938 -9.636719 22.84375 -9.84375 C 22.550781 -10.09375 22.242188 -10.320312 21.972656 -10.597656 L 21.003906 -11.429688 C 20.953125 -11.472656 20.882812 -11.535156 20.8125 -11.554688 C 20.382812 -11.839844 19.996094 -12.171875 19.675781 -12.535156 L 19.191406 -12.953125 C 18.835938 -13.175781 18.476562 -13.398438 18.164062 -13.667969 C 17.824219 -13.960938 17.441406 -14.25 17.058594 -14.496094 C 16.777344 -14.65625 16.472656 -14.789062 16.207031 -15.019531 C 16.015625 -15.140625 15.820312 -15.308594 15.59375 -15.335938 C 14.972656 -15.449219 14.414062 -15.339844 14 -14.8125 C 13.832031 -14.617188 13.664062 -14.46875 13.472656 -14.296875 C 13.019531 -13.96875 12.617188 -13.597656 12.242188 -13.164062 C 11.925781 -12.847656 11.585938 -12.503906 11.246094 -12.207031 L 10.996094 -11.917969 C 10.953125 -11.867188 10.957031 -11.824219 10.984375 -11.757812 C 11.03125 -11.714844 11.078125 -11.71875 11.125 -11.722656 L 11.503906 -11.773438 C 12.242188 -11.941406 12.980469 -12.0625 13.753906 -12.027344 C 14.707031 -12.007812 15.613281 -11.691406 16.441406 -11.230469 C 16.820312 -10.988281 17.15625 -10.738281 17.558594 -10.519531 C 17.796875 -10.355469 18.035156 -10.191406 18.144531 -9.929688 C 18.195312 -9.839844 18.246094 -9.800781 18.316406 -9.78125 C 18.433594 -9.679688 18.441406 -9.585938 18.382812 -9.46875 C 18.367188 -9.402344 18.367188 -9.355469 18.328125 -9.308594 C 18.121094 -9.019531 17.945312 -8.667969 17.621094 -8.4375 L 17.472656 -8.269531 C 17.394531 -8.128906 17.269531 -7.984375 17.144531 -7.835938 C 16.953125 -7.664062 16.761719 -7.492188 16.644531 -7.257812 C 16.417969 -6.898438 16.171875 -6.566406 15.902344 -6.25 C 15.753906 -6.082031 15.5625 -5.90625 15.417969 -5.738281 C 14.828125 -5.105469 14.265625 -4.453125 13.726562 -3.777344 L 13.621094 -3.65625 C 13.394531 -3.34375 13.191406 -3.058594 12.914062 -2.835938 C 12.464844 -2.460938 12.109375 -2.050781 11.734375 -1.613281 C 11.484375 -1.324219 11.257812 -1.011719 11.074219 -0.703125 C 10.980469 -0.449219 10.769531 -0.25 10.578125 -0.078125 C 10.410156 0.117188 10.195312 0.265625 10.027344 0.460938 C 9.695312 0.847656 9.382812 1.257812 9.027344 1.621094 C 8.753906 1.9375 8.460938 2.230469 8.183594 2.5 C 7.457031 3.097656 6.699219 3.585938 5.894531 4.03125 C 5.761719 4.085938 5.65625 4.160156 5.550781 4.28125 C 5.445312 4.402344 5.429688 4.472656 5.527344 4.601562 C 5.734375 4.902344 5.957031 5.179688 6.226562 5.457031 C 6.542969 5.726562 6.917969 5.925781 7.273438 6.148438 C 7.707031 6.480469 8.09375 6.8125 8.460938 7.171875 C 8.851562 7.550781 9.242188 7.929688 9.652344 8.285156 C 9.992188 8.578125 10.351562 8.84375 10.625 9.164062 L 10.914062 9.414062 C 11.21875 9.550781 11.351562 9.496094 11.511719 9.210938 L 11.761719 8.582031 C 11.851562 8.28125 11.921875 8.003906 12.0625 7.746094 C 12.332031 7.136719 12.722656 6.585938 13.136719 6.054688 L 14.035156 5.015625 C 14.28125 4.632812 14.546875 4.273438 14.886719 3.976562 C 15.230469 3.679688 15.519531 3.339844 15.742188 2.941406 C 15.878906 2.679688 16.089844 2.4375 16.300781 2.242188 C 16.707031 1.917969 17.042969 1.53125 17.328125 1.101562 C 17.40625 0.957031 17.511719 0.835938 17.617188 0.714844 C 17.761719 0.546875 17.929688 0.355469 18.101562 0.203125 C 18.371094 -0.109375 18.621094 -0.398438 18.847656 -0.710938 C 19.117188 -1.070312 19.453125 -1.414062 19.746094 -1.753906 C 19.914062 -1.945312 20.078125 -2.140625 20.273438 -2.265625 C 20.445312 -2.414062 20.589844 -2.585938 20.738281 -2.753906 C 20.875 -3.015625 21.019531 -3.226562 21.207031 -3.445312 C 21.476562 -3.761719 21.726562 -4.097656 22.066406 -4.394531 C 22.40625 -4.691406 22.746094 -5.03125 23.128906 -5.332031 C 23.320312 -5.507812 23.390625 -5.488281 23.585938 -5.320312 C 23.800781 -5.132812 24.019531 -4.945312 24.21875 -4.734375 L 24.832031 -4.078125 C 25.132812 -3.691406 25.410156 -3.28125 25.691406 -2.871094 C 25.839844 -2.699219 25.898438 -2.523438 25.980469 -2.324219 C 26.328125 -1.308594 26.449219 -0.273438 26.414062 0.792969 C 26.433594 1.019531 26.425781 1.222656 26.417969 1.425781 C 26.402344 1.542969 26.433594 1.652344 26.546875 1.667969 Z M 26.945312 1.207031 "/></g></g></g><g fill="#ffffff" fill-opacity="1"><g transform="translate(126.96686, 284.834947)"><g><path d="M 19.078125 9.730469 C 19.445312 9.917969 19.816406 10.109375 20.171875 10.324219 C 20.257812 10.367188 20.386719 10.398438 20.488281 10.414062 C 20.628906 10.414062 20.6875 10.371094 20.6875 10.226562 C 20.71875 10.097656 20.703125 9.984375 20.675781 9.898438 C 20.605469 9.613281 20.535156 9.328125 20.425781 9.054688 C 20.269531 8.652344 20.171875 8.207031 20.132812 7.792969 C 20.121094 7.464844 20.050781 7.105469 19.96875 6.777344 C 19.914062 6.464844 19.871094 6.191406 19.886719 5.878906 C 19.964844 5.234375 19.9375 4.578125 19.945312 3.933594 C 19.917969 3.5625 19.875 3.21875 19.964844 2.902344 C 20.066406 2.492188 20.054688 2.089844 20.03125 1.648438 C 20.019531 1.316406 20.046875 0.976562 20.179688 0.648438 C 20.410156 0.191406 20.769531 -0.09375 21.214844 -0.332031 C 21.417969 -0.445312 21.644531 -0.542969 21.859375 -0.683594 C 22.175781 -0.882812 22.519531 -1.066406 22.863281 -1.25 C 23.195312 -1.40625 23.539062 -1.589844 23.828125 -1.800781 L 24.992188 -2.824219 C 25.136719 -2.964844 25.277344 -3.105469 25.394531 -3.265625 C 25.597656 -3.519531 25.769531 -3.789062 25.941406 -4.0625 C 26.160156 -4.417969 26.277344 -4.789062 26.4375 -5.171875 C 26.539062 -5.371094 26.582031 -5.601562 26.597656 -5.84375 C 26.585938 -6.171875 26.617188 -6.515625 26.648438 -6.859375 L 26.695312 -7.515625 C 26.667969 -8.101562 26.574219 -8.6875 26.449219 -9.289062 C 26.367188 -9.761719 26.199219 -10.207031 25.914062 -10.566406 C 25.855469 -10.59375 25.8125 -10.652344 25.800781 -10.695312 C 25.234375 -11.554688 24.625 -12.332031 23.769531 -12.910156 C 23.429688 -13.152344 23.074219 -13.371094 22.703125 -13.488281 C 22.375 -13.617188 22.03125 -13.792969 21.734375 -13.980469 C 21.421875 -14.210938 21.078125 -14.382812 20.75 -14.515625 C 20.378906 -14.632812 20.066406 -14.792969 19.769531 -15.050781 C 19.640625 -15.152344 19.484375 -15.265625 19.328125 -15.3125 C 18.957031 -15.5 18.542969 -15.601562 18.1875 -15.820312 C 18.15625 -15.832031 18.113281 -15.820312 18.113281 -15.820312 C 17.785156 -15.949219 17.445312 -16.125 17.144531 -16.3125 C 16.902344 -16.46875 16.632812 -16.644531 16.378906 -16.773438 L 15.007812 -17.46875 C 14.625 -17.699219 14.3125 -17.929688 13.898438 -18.105469 L 13.085938 -18.410156 C 12.644531 -18.527344 12.484375 -18.429688 12.410156 -18 C 12.320312 -17.328125 12.144531 -16.703125 11.96875 -16.074219 C 11.808594 -15.476562 11.5625 -14.917969 11.429688 -14.304688 C 11.355469 -14.019531 11.183594 -13.75 11.050781 -13.492188 C 10.863281 -13.195312 10.648438 -12.910156 10.519531 -12.582031 C 10.402344 -12.210938 10.226562 -11.867188 10.039062 -11.5 C 9.863281 -11.15625 9.734375 -10.757812 9.488281 -10.414062 C 9.386719 -10.289062 9.300781 -10.1875 9.230469 -10.046875 C 8.953125 -9.433594 8.632812 -8.804688 8.332031 -8.207031 C 8.171875 -7.894531 8.011719 -7.582031 7.824219 -7.28125 C 7.695312 -7.097656 7.5625 -6.910156 7.492188 -6.699219 C 7.40625 -6.527344 7.332031 -6.3125 7.246094 -6.140625 C 7.199219 -5.984375 7.15625 -5.828125 7.054688 -5.699219 C 6.910156 -5.488281 6.824219 -5.242188 6.707031 -5.015625 C 6.5625 -4.800781 6.460938 -4.53125 6.316406 -4.316406 C 6.101562 -4.035156 5.914062 -3.734375 5.824219 -3.421875 C 5.59375 -2.75 5.261719 -2.167969 4.898438 -1.597656 C 4.394531 -0.816406 3.746094 -0.175781 3.085938 0.492188 L 2.667969 0.890625 C 2.539062 1.074219 2.566406 1.230469 2.734375 1.390625 C 2.878906 1.535156 3.046875 1.621094 3.234375 1.679688 C 3.617188 1.839844 4.019531 2.042969 4.375 2.257812 C 4.644531 2.433594 4.929688 2.578125 5.226562 2.691406 C 5.527344 2.808594 5.828125 2.925781 6.113281 3.070312 C 6.269531 3.1875 6.410156 3.257812 6.582031 3.34375 L 8.40625 4.273438 C 8.605469 4.375 8.820312 4.445312 9.019531 4.546875 C 9.074219 4.578125 9.175781 4.589844 9.277344 4.605469 C 9.476562 4.636719 9.589844 4.550781 9.605469 4.378906 C 9.679688 4.238281 9.695312 4.066406 9.695312 3.921875 L 9.769531 3.136719 C 9.804688 2.507812 9.949219 1.9375 10.15625 1.324219 C 10.269531 1.023438 10.429688 0.710938 10.589844 0.398438 C 10.777344 0.0976562 10.921875 -0.1875 11.054688 -0.511719 C 11.199219 -0.796875 11.3125 -1.097656 11.515625 -1.355469 C 11.675781 -1.597656 11.820312 -1.878906 11.921875 -2.152344 C 12.039062 -2.449219 12.195312 -2.765625 12.355469 -3.078125 C 12.515625 -3.320312 12.730469 -3.460938 13.058594 -3.332031 C 13.429688 -3.214844 13.769531 -3.039062 14.097656 -2.835938 C 14.226562 -2.738281 14.328125 -2.652344 14.410156 -2.535156 C 14.523438 -2.335938 14.496094 -2.132812 14.492188 -1.921875 C 14.476562 -1.605469 14.460938 -1.292969 14.542969 -0.960938 C 14.613281 -0.605469 14.625 -0.203125 14.535156 0.179688 C 14.460938 0.539062 14.460938 0.894531 14.472656 1.222656 C 14.511719 1.640625 14.523438 2.039062 14.394531 2.4375 C 14.347656 2.597656 14.332031 2.765625 14.316406 2.9375 C 14.289062 3.28125 14.285156 3.640625 14.195312 4.023438 C 14.007812 4.679688 13.84375 5.351562 13.613281 6.023438 C 13.4375 6.433594 13.523438 6.691406 13.890625 6.953125 C 13.992188 7.039062 14.117188 7.140625 14.261719 7.210938 C 14.929688 7.589844 15.644531 7.878906 16.328125 8.226562 L 16.839844 8.488281 C 17.054688 8.558594 17.253906 8.660156 17.410156 8.777344 C 17.679688 9.023438 18.007812 9.222656 18.320312 9.382812 C 18.59375 9.484375 18.820312 9.601562 19.078125 9.730469 Z M 14.933594 -8.078125 C 15.222656 -8.503906 15.382812 -9.03125 15.644531 -9.546875 C 15.757812 -9.773438 15.890625 -9.957031 16.019531 -10.144531 C 16.28125 -10.585938 16.46875 -11.027344 16.683594 -11.453125 C 16.84375 -11.839844 17.0625 -12.195312 17.40625 -12.449219 C 17.636719 -12.621094 17.867188 -12.648438 18.136719 -12.546875 C 18.707031 -12.328125 19.191406 -12.011719 19.746094 -11.761719 C 19.945312 -11.660156 20.144531 -11.5625 20.316406 -11.402344 C 20.601562 -11.113281 20.753906 -10.785156 20.808594 -10.398438 C 20.933594 -9.867188 20.917969 -9.339844 20.757812 -8.8125 L 20.320312 -7.457031 C 20.203125 -7.15625 20.015625 -6.929688 19.882812 -6.671875 C 19.40625 -5.949219 18.746094 -5.421875 18.015625 -4.96875 C 17.511719 -4.617188 16.96875 -4.605469 16.398438 -4.894531 C 16.113281 -5.039062 15.859375 -5.242188 15.589844 -5.414062 L 14.675781 -5.878906 C 14.363281 -6.039062 14.265625 -6.195312 14.324219 -6.523438 C 14.351562 -6.796875 14.425781 -7.082031 14.558594 -7.335938 Z M 14.933594 -8.078125 "/></g></g></g><g fill="#ffffff" fill-opacity="1"><g transform="translate(153.701141, 297.725289)"><g><path d="M 1.613281 0.25 C 1.765625 0.445312 1.96875 0.425781 2.15625 0.464844 C 2.570312 0.519531 3.011719 0.585938 3.40625 0.734375 C 3.59375 0.773438 3.773438 0.847656 3.960938 0.886719 C 4.585938 1.023438 5.21875 1.125 5.847656 1.230469 L 6.433594 1.257812 C 6.726562 1.253906 6.808594 1.175781 6.871094 0.894531 C 6.929688 0.613281 6.960938 0.324219 7.050781 0.0507812 C 7.183594 -0.414062 7.285156 -0.882812 7.480469 -1.328125 C 7.707031 -1.933594 7.96875 -2.53125 8.316406 -3.078125 C 8.449219 -3.246094 8.589844 -3.445312 8.667969 -3.65625 C 8.769531 -3.832031 8.921875 -3.929688 9.15625 -3.945312 L 9.417969 -3.953125 C 9.675781 -3.929688 9.957031 -3.871094 10.199219 -3.785156 C 10.785156 -3.625 11.355469 -3.535156 11.910156 -3.382812 C 12.25 -3.277344 12.605469 -3.265625 12.988281 -3.214844 C 13.496094 -3.140625 13.980469 -2.96875 14.460938 -2.765625 C 14.671875 -2.6875 14.890625 -2.640625 15.097656 -2.53125 C 15.246094 -2.46875 15.351562 -2.347656 15.347656 -2.183594 L 15.484375 -1.304688 C 15.632812 -0.324219 15.5625 0.609375 15.359375 1.546875 C 15.289062 1.890625 15.246094 2.242188 15.171875 2.585938 C 15.101562 2.898438 15.226562 3.085938 15.53125 3.183594 L 15.5625 3.191406 L 16.191406 3.457031 C 16.527344 3.5625 16.867188 3.667969 17.214844 3.710938 C 17.574219 3.722656 17.953125 3.773438 18.324219 3.886719 C 18.480469 3.917969 18.597656 3.976562 18.722656 4.003906 C 19.191406 4.105469 19.628906 4.199219 20.058594 4.324219 C 20.613281 4.476562 21.183594 4.566406 21.746094 4.6875 C 22.089844 4.761719 22.445312 4.773438 22.773438 4.78125 C 23.03125 4.800781 23.089844 4.683594 23.074219 4.453125 L 22.929688 4.0625 C 22.726562 3.625 22.550781 3.226562 22.390625 2.769531 C 21.972656 1.664062 21.664062 0.519531 21.5 -0.695312 C 21.320312 -1.976562 21.136719 -3.257812 21.027344 -4.554688 C 20.960938 -5.160156 20.824219 -5.742188 20.796875 -6.371094 C 20.769531 -7.160156 20.605469 -7.917969 20.480469 -8.695312 C 20.386719 -9.171875 20.285156 -9.621094 20.324219 -10.101562 C 20.363281 -10.421875 20.328125 -10.722656 20.257812 -11 C 20.1875 -11.441406 20.089844 -11.886719 20.082031 -12.3125 L 19.996094 -13.28125 L 19.824219 -14.003906 C 19.726562 -14.613281 19.730469 -15.234375 19.570312 -15.855469 C 19.484375 -16.203125 19.433594 -16.574219 19.28125 -16.933594 L 18.65625 -18.277344 C 18.539062 -18.5 18.371094 -18.632812 18.171875 -18.773438 C 17.914062 -18.925781 17.644531 -19.050781 17.332031 -19.117188 L 16.332031 -19.332031 C 16.082031 -19.386719 15.832031 -19.441406 15.589844 -19.527344 C 15.320312 -19.648438 15.039062 -19.710938 14.757812 -19.769531 C 14.539062 -19.816406 14.347656 -19.828125 14.121094 -19.84375 C 13.707031 -19.898438 13.585938 -19.792969 13.5 -19.390625 L 13.464844 -19.234375 C 13.425781 -18.75 13.414062 -18.230469 13.25 -17.773438 C 13.066406 -17.226562 12.851562 -16.683594 12.554688 -16.222656 C 12.238281 -15.671875 11.925781 -15.117188 11.585938 -14.601562 C 11.128906 -13.851562 10.734375 -13.085938 10.308594 -12.328125 C 9.949219 -11.71875 9.570312 -11.179688 9.21875 -10.601562 C 8.914062 -10.109375 8.589844 -9.65625 8.351562 -9.152344 C 8.035156 -8.601562 7.71875 -8.046875 7.371094 -7.5 C 6.929688 -6.8125 6.398438 -6.171875 6.035156 -5.402344 L 5.867188 -5.078125 C 5.332031 -4.113281 4.632812 -3.285156 3.984375 -2.410156 C 3.664062 -1.988281 3.257812 -1.617188 2.90625 -1.203125 C 2.519531 -0.765625 2.050781 -0.40625 1.660156 0.03125 Z M 13.398438 -6.035156 C 12.960938 -6.132812 12.5625 -6.25 12.125 -6.34375 C 11.8125 -6.410156 11.539062 -6.503906 11.238281 -6.632812 C 10.917969 -6.800781 10.832031 -7.015625 10.949219 -7.414062 C 11.070312 -7.816406 11.28125 -8.195312 11.527344 -8.566406 C 11.808594 -8.964844 12.035156 -9.40625 12.257812 -9.847656 C 12.347656 -9.957031 12.40625 -10.078125 12.464844 -10.195312 C 12.84375 -10.734375 13.160156 -11.289062 13.503906 -11.835938 C 13.632812 -11.96875 13.734375 -12.144531 13.855469 -12.25 C 14.015625 -12.378906 14.117188 -12.390625 14.167969 -12.183594 C 14.351562 -11.519531 14.570312 -10.851562 14.546875 -10.136719 C 14.5 -9.625 14.59375 -9.148438 14.6875 -8.667969 C 14.769531 -8.292969 14.789062 -7.929688 14.808594 -7.5625 L 14.8125 -6.515625 C 14.792969 -6.128906 14.496094 -5.964844 14.226562 -5.925781 C 13.929688 -5.921875 13.675781 -5.945312 13.398438 -6.035156 Z M 13.398438 -6.035156 "/></g></g></g><g fill="#ffffff" fill-opacity="1"><g transform="translate(183.287403, 303.39031)"><g><path d="M 11.84375 -0.578125 C 12.164062 -0.59375 12.449219 -0.636719 12.769531 -0.621094 C 13.183594 -0.636719 13.566406 -0.71875 13.945312 -0.832031 C 14.292969 -0.910156 14.640625 -0.988281 14.992188 -1.035156 C 15.277344 -1.082031 15.59375 -1.15625 15.875 -1.296875 L 16.597656 -1.648438 C 17.757812 -2.210938 18.777344 -3.023438 19.695312 -3.929688 C 20.09375 -4.328125 20.429688 -4.757812 20.726562 -5.253906 L 20.933594 -5.644531 C 21.296875 -6.140625 21.59375 -6.664062 21.757812 -7.28125 L 22.015625 -7.996094 C 22.335938 -8.746094 22.425781 -9.550781 22.488281 -10.382812 C 22.53125 -10.867188 22.542969 -11.347656 22.617188 -11.796875 C 22.640625 -12.023438 22.664062 -12.214844 22.65625 -12.40625 L 22.390625 -14.121094 C 22.261719 -14.851562 22.003906 -15.578125 21.6875 -16.269531 C 21.546875 -16.582031 21.40625 -16.863281 21.296875 -17.179688 C 21.183594 -17.527344 21.042969 -17.839844 20.835938 -18.152344 C 20.566406 -18.492188 20.359375 -18.898438 19.992188 -19.167969 C 19.796875 -19.320312 19.5625 -19.503906 19.394531 -19.71875 C 19.023438 -20.117188 18.5625 -20.484375 18.160156 -20.847656 C 17.960938 -21 17.730469 -21.152344 17.503906 -21.269531 L 16.390625 -21.828125 C 16 -22.003906 15.578125 -22.144531 15.152344 -22.316406 C 14.957031 -22.40625 14.761719 -22.492188 14.566406 -22.546875 C 13.46875 -22.820312 12.34375 -22.898438 11.226562 -22.851562 C 10.875 -22.835938 10.558594 -22.789062 10.238281 -22.777344 C 8.992188 -22.722656 7.78125 -22.636719 6.535156 -22.648438 C 6.148438 -22.664062 5.734375 -22.644531 5.320312 -22.59375 C 4.96875 -22.546875 4.585938 -22.53125 4.234375 -22.515625 C 3.660156 -22.523438 3.082031 -22.527344 2.476562 -22.503906 C 2.347656 -22.527344 2.222656 -22.492188 2.125 -22.457031 C 1.84375 -22.378906 1.753906 -22.214844 1.828125 -21.929688 C 1.871094 -21.742188 1.941406 -21.550781 2.046875 -21.363281 C 2.613281 -20.109375 2.925781 -18.777344 2.984375 -17.40625 C 3.035156 -17.054688 3.019531 -16.671875 3.035156 -16.320312 L 3.042969 -16.097656 C 2.996094 -15.679688 3.015625 -15.230469 3.066406 -14.816406 C 3.113281 -14.46875 3.128906 -14.117188 3.113281 -13.765625 C 3.089844 -13.507812 3.070312 -13.28125 3.082031 -13.027344 C 3.09375 -12.738281 3.140625 -12.421875 3.152344 -12.132812 C 3.214844 -11.371094 3.1875 -10.601562 3.285156 -9.835938 C 3.332031 -9.421875 3.351562 -8.976562 3.371094 -8.5625 C 3.441406 -7.699219 3.445312 -6.804688 3.453125 -5.910156 C 3.457031 -5.84375 3.457031 -5.8125 3.429688 -5.746094 C 3.382812 -5.363281 3.398438 -4.980469 3.449219 -4.597656 C 3.53125 -4.152344 3.550781 -3.707031 3.441406 -3.253906 C 3.335938 -2.703125 3.199219 -2.1875 3.0625 -1.636719 C 2.980469 -1.378906 2.863281 -1.117188 2.808594 -0.859375 C 2.675781 -0.308594 2.835938 -0.21875 3.289062 -0.175781 L 4.058594 -0.113281 C 4.441406 -0.0976562 4.824219 -0.179688 5.207031 -0.195312 C 5.554688 -0.242188 5.875 -0.253906 6.195312 -0.269531 C 6.707031 -0.226562 7.1875 -0.25 7.695312 -0.367188 C 8.042969 -0.445312 8.425781 -0.460938 8.8125 -0.414062 C 9.230469 -0.371094 9.644531 -0.355469 10.058594 -0.4375 C 10.4375 -0.519531 10.820312 -0.566406 11.207031 -0.550781 Z M 16.042969 -12.183594 C 16.0625 -11.703125 16.050781 -11.222656 16.007812 -10.773438 L 16.023438 -10.390625 C 16.070312 -10.039062 16.023438 -9.65625 15.976562 -9.300781 C 15.792969 -8.332031 15.546875 -7.394531 15.167969 -6.515625 C 14.90625 -5.960938 14.640625 -5.402344 14.3125 -4.910156 C 13.800781 -4.183594 13.183594 -3.644531 12.292969 -3.476562 C 12.007812 -3.402344 11.71875 -3.421875 11.433594 -3.410156 C 11.082031 -3.425781 10.726562 -3.472656 10.375 -3.425781 C 9.992188 -3.410156 9.796875 -3.5625 9.714844 -3.972656 C 9.675781 -4.066406 9.671875 -4.195312 9.667969 -4.292969 C 9.644531 -4.769531 9.5625 -5.214844 9.480469 -5.660156 L 9.472656 -5.820312 C 9.476562 -6.457031 9.417969 -7.0625 9.359375 -7.667969 C 9.242188 -8.945312 9.152344 -10.25 9.128906 -11.53125 C 9.117188 -11.753906 9.140625 -11.980469 9.164062 -12.203125 C 9.207031 -12.621094 9.160156 -13.035156 9.046875 -13.445312 C 9.003906 -13.699219 8.992188 -13.957031 9.011719 -14.179688 C 9.074219 -14.953125 9.011719 -15.683594 8.980469 -16.417969 L 8.9375 -17.378906 C 8.929688 -17.601562 8.984375 -17.792969 9.007812 -18.019531 C 9.023438 -18.339844 9.007812 -18.691406 9.058594 -19.046875 C 9.054688 -19.109375 9.050781 -19.207031 9.078125 -19.269531 C 9.160156 -19.65625 9.3125 -19.792969 9.695312 -19.808594 C 10.109375 -19.828125 10.527344 -19.84375 10.90625 -19.925781 C 11.257812 -19.972656 11.609375 -19.988281 11.929688 -19.9375 C 12.382812 -19.863281 12.742188 -19.621094 13.105469 -19.382812 C 13.335938 -19.230469 13.503906 -19.046875 13.675781 -18.832031 C 14.453125 -17.871094 15.042969 -16.8125 15.414062 -15.644531 L 15.792969 -14.285156 C 15.867188 -14 15.910156 -13.714844 15.925781 -13.425781 C 15.972656 -13.011719 16.058594 -12.566406 16.042969 -12.183594 Z M 16.042969 -12.183594 "/></g></g></g><g fill="#ffffff" fill-opacity="1"><g transform="translate(211.667134, 301.192096)"><g><path d="M -2.023438 -22.546875 C -2.242188 -22.496094 -2.355469 -22.433594 -2.472656 -22.371094 C -2.558594 -22.316406 -2.597656 -22.207031 -2.566406 -22.085938 C -2.535156 -21.960938 -2.511719 -21.867188 -2.460938 -21.78125 C -2.289062 -21.496094 -2.066406 -21.253906 -1.871094 -21.003906 C -1.5625 -20.554688 -1.316406 -20.089844 -1.132812 -19.609375 C -0.9375 -19.097656 -0.738281 -18.550781 -0.609375 -18.023438 C -0.492188 -17.429688 -0.324219 -16.878906 -0.1875 -16.320312 C -0.078125 -15.882812 0 -15.441406 0.0820312 -14.96875 C 0.128906 -14.652344 0.210938 -14.308594 0.351562 -14.015625 C 0.492188 -13.71875 0.574219 -13.378906 0.652344 -13.070312 C 0.703125 -12.71875 0.78125 -12.410156 0.867188 -12.066406 C 0.882812 -12.007812 0.867188 -11.9375 0.882812 -11.875 C 0.957031 -11.433594 1.058594 -11.027344 1.195312 -10.601562 C 1.3125 -10.269531 1.394531 -9.925781 1.449219 -9.578125 C 1.503906 -9.230469 1.585938 -8.886719 1.703125 -8.554688 C 1.871094 -8.136719 1.980469 -7.699219 2.023438 -7.25 C 2.046875 -7.027344 2.039062 -6.792969 2.164062 -6.5625 C 2.238281 -6.382812 2.292969 -6.164062 2.347656 -5.949219 C 2.484375 -5.519531 2.585938 -5.117188 2.664062 -4.675781 C 2.761719 -4.007812 2.792969 -3.359375 2.726562 -2.683594 C 2.695312 -2.28125 2.601562 -1.863281 2.578125 -1.429688 C 2.546875 -1.289062 2.539062 -1.1875 2.605469 -1.039062 C 2.652344 -0.855469 2.699219 -0.800781 2.933594 -0.792969 C 3.101562 -0.769531 3.257812 -0.804688 3.421875 -0.8125 C 3.800781 -0.875 4.171875 -0.964844 4.539062 -1.089844 C 4.894531 -1.242188 5.226562 -1.359375 5.601562 -1.453125 L 8.734375 -2.226562 C 8.890625 -2.265625 9.042969 -2.304688 9.207031 -2.3125 L 9.71875 -2.371094 C 10.167969 -2.417969 10.332031 -2.6875 10.132812 -3.101562 C 10.125 -3.128906 10.085938 -3.152344 10.085938 -3.152344 C 9.800781 -3.644531 9.492188 -4.09375 9.175781 -4.574219 C 8.820312 -5.210938 8.496094 -5.855469 8.339844 -6.609375 C 8.304688 -6.894531 8.195312 -7.199219 8.148438 -7.515625 C 8.089844 -7.765625 8.066406 -7.988281 7.972656 -8.230469 C 7.851562 -8.726562 7.664062 -9.207031 7.574219 -9.710938 C 7.496094 -10.152344 7.390625 -10.585938 7.21875 -11.007812 C 7.113281 -11.308594 7.003906 -11.613281 6.964844 -11.898438 C 6.914062 -12.246094 6.828125 -12.589844 6.746094 -12.929688 C 6.691406 -13.148438 6.574219 -13.347656 6.511719 -13.597656 C 6.453125 -13.84375 6.382812 -14.125 6.351562 -14.378906 L 6.03125 -15.683594 C 6.007812 -15.777344 5.945312 -15.894531 5.921875 -15.984375 C 5.882812 -16.273438 5.847656 -16.558594 5.777344 -16.839844 C 5.691406 -17.179688 5.609375 -17.523438 5.484375 -17.886719 C 5.316406 -18.4375 5.207031 -19.003906 5.070312 -19.5625 L 5.023438 -19.75 C 5 -20.105469 4.980469 -20.460938 4.925781 -20.808594 C 4.828125 -21.476562 4.789062 -22.160156 4.90625 -22.878906 C 4.9375 -23.152344 4.988281 -23.492188 4.980469 -23.785156 C 4.964844 -24.113281 4.871094 -24.222656 4.554688 -24.175781 C 4.515625 -24.199219 4.453125 -24.183594 4.390625 -24.167969 C 3.925781 -24.054688 3.484375 -23.976562 3.027344 -23.832031 C 2.597656 -23.691406 2.210938 -23.53125 1.792969 -23.492188 C 1.382812 -23.421875 0.984375 -23.292969 0.574219 -23.222656 C 0.101562 -23.140625 -0.363281 -23.023438 -0.804688 -22.816406 C -0.921875 -22.753906 -1.078125 -22.714844 -1.203125 -22.6875 C -1.527344 -22.671875 -1.789062 -22.539062 -2.023438 -22.546875 Z M -2.023438 -22.546875 "/></g></g></g><g fill="#ffffff" fill-opacity="1"><g transform="translate(228.90608, 297.064498)"><g><path d="M 7.351562 -28.28125 C 6.964844 -28.128906 6.601562 -27.921875 6.253906 -27.6875 C 6.195312 -27.660156 6.109375 -27.617188 6.066406 -27.5625 C 5.949219 -27.433594 5.949219 -27.363281 6.042969 -27.234375 C 6.074219 -27.175781 6.128906 -27.132812 6.171875 -27.117188 C 6.382812 -26.898438 6.59375 -26.75 6.789062 -26.5625 C 7.183594 -26.253906 7.519531 -25.917969 7.753906 -25.5 C 7.976562 -25.109375 8.226562 -24.730469 8.476562 -24.355469 C 8.753906 -23.992188 8.992188 -23.574219 9.140625 -23.113281 C 9.191406 -22.855469 9.300781 -22.625 9.441406 -22.40625 C 9.648438 -22.046875 9.882812 -21.699219 10.0625 -21.324219 C 10.335938 -20.671875 10.679688 -20.023438 10.984375 -19.390625 C 11.023438 -19.300781 11.050781 -19.246094 11.0625 -19.144531 C 11.195312 -18.640625 11.429688 -18.152344 11.652344 -17.6875 C 11.800781 -17.371094 11.953125 -17.054688 12.015625 -16.695312 C 12.074219 -16.578125 12.097656 -16.449219 12.011719 -16.339844 C 11.910156 -16.253906 11.78125 -16.300781 11.652344 -16.34375 C 11.214844 -16.523438 10.816406 -16.761719 10.410156 -17.027344 C 9.871094 -17.410156 9.320312 -17.75 8.769531 -18.085938 L 7.851562 -18.605469 C 7.246094 -19.0625 6.609375 -19.5 5.988281 -19.914062 C 5.566406 -20.207031 5.144531 -20.503906 4.675781 -20.738281 C 3.9375 -21.097656 3.273438 -21.523438 2.613281 -22.023438 C 2.273438 -22.289062 1.921875 -22.507812 1.511719 -22.703125 L 0.804688 -23.074219 C 0.351562 -23.28125 -0.105469 -23.492188 -0.601562 -23.644531 C -1 -23.738281 -1.429688 -23.746094 -1.84375 -23.652344 C -2.132812 -23.589844 -2.40625 -23.492188 -2.679688 -23.398438 C -3.109375 -23.265625 -3.5 -23.113281 -3.890625 -22.894531 C -4.136719 -22.742188 -4.410156 -22.574219 -4.671875 -22.449219 C -4.828125 -22.339844 -5 -22.328125 -5.175781 -22.246094 C -5.578125 -22.054688 -5.96875 -21.902344 -6.386719 -21.738281 C -6.660156 -21.644531 -6.890625 -21.535156 -7.136719 -21.382812 C -7.351562 -21.246094 -7.382812 -21.085938 -7.230469 -20.914062 C -7.148438 -20.8125 -7.0625 -20.710938 -6.949219 -20.621094 L -6.601562 -20.257812 C -6.277344 -19.878906 -5.957031 -19.5 -5.578125 -19.152344 C -5.394531 -18.992188 -5.214844 -18.757812 -5.074219 -18.539062 L -4.671875 -17.917969 C -4.464844 -17.558594 -4.300781 -17.210938 -4.179688 -16.808594 C -4.152344 -16.609375 -4.070312 -16.433594 -3.988281 -16.261719 C -3.90625 -16.089844 -3.796875 -15.929688 -3.699219 -15.726562 C -3.535156 -15.378906 -3.339844 -15.046875 -3.234375 -14.675781 C -3.070312 -14.183594 -2.835938 -13.765625 -2.628906 -13.332031 C -2.507812 -13.074219 -2.355469 -12.828125 -2.203125 -12.582031 C -2.046875 -12.40625 -1.964844 -12.234375 -1.867188 -12.03125 L -1.5 -11.253906 C -1.375 -10.992188 -1.292969 -10.746094 -1.199219 -10.472656 C -1.144531 -10.214844 -1.066406 -9.972656 -0.925781 -9.753906 C -0.703125 -9.433594 -0.46875 -9.085938 -0.316406 -8.699219 C -0.289062 -8.640625 -0.261719 -8.582031 -0.207031 -8.539062 C 0 -8.179688 0.191406 -7.773438 0.3125 -7.371094 C 0.382812 -7.15625 0.449219 -6.941406 0.542969 -6.738281 C 0.640625 -6.535156 0.765625 -6.347656 0.875 -6.117188 C 1.082031 -5.683594 1.273438 -5.207031 1.449219 -4.761719 C 1.734375 -3.941406 1.917969 -3.109375 1.914062 -2.222656 C 1.910156 -1.9375 1.90625 -1.648438 1.972656 -1.363281 C 2.011719 -1.203125 2.109375 -1.144531 2.28125 -1.15625 C 2.308594 -1.171875 2.351562 -1.15625 2.410156 -1.183594 C 2.699219 -1.320312 3.058594 -1.386719 3.363281 -1.566406 C 3.535156 -1.648438 3.679688 -1.714844 3.808594 -1.8125 C 4.183594 -1.992188 4.546875 -2.199219 4.890625 -2.363281 L 5.007812 -2.417969 C 5.414062 -2.683594 5.832031 -2.847656 6.292969 -2.996094 C 6.40625 -3.050781 6.566406 -3.089844 6.695312 -3.1875 C 6.898438 -3.355469 6.914062 -3.46875 6.746094 -3.671875 L 6.621094 -3.789062 C 6.496094 -3.90625 6.355469 -4.050781 6.199219 -4.15625 C 5.859375 -4.417969 5.507812 -4.710938 5.230469 -5.074219 C 4.9375 -5.394531 4.671875 -5.730469 4.449219 -6.117188 L 3.886719 -7.300781 C 3.75 -7.660156 3.613281 -8.023438 3.390625 -8.339844 C 3.28125 -8.570312 3.101562 -8.804688 3.019531 -9.046875 C 2.910156 -9.28125 2.800781 -9.511719 2.71875 -9.753906 L 2.308594 -10.621094 C 2.167969 -10.910156 2.019531 -11.226562 1.808594 -11.515625 C 1.613281 -11.777344 1.476562 -12.066406 1.398438 -12.382812 C 1.304688 -12.726562 1.210938 -13.074219 1.042969 -13.347656 C 0.738281 -13.839844 0.519531 -14.371094 0.316406 -14.875 C 0.277344 -15.035156 0.238281 -15.191406 0.238281 -15.335938 C 0.214844 -15.535156 0.289062 -15.605469 0.5 -15.601562 C 0.585938 -15.570312 0.660156 -15.570312 0.714844 -15.527344 L 1.296875 -15.34375 C 1.59375 -15.238281 1.878906 -15.089844 2.132812 -14.925781 C 2.640625 -14.601562 3.148438 -14.277344 3.613281 -13.898438 C 4.066406 -13.546875 4.546875 -13.351562 5.011719 -13.042969 C 5.378906 -12.792969 5.820312 -12.613281 6.15625 -12.277344 C 6.339844 -12.117188 6.492188 -11.941406 6.71875 -11.835938 C 7.226562 -11.511719 7.75 -11.160156 8.273438 -10.878906 C 8.515625 -10.742188 8.769531 -10.582031 8.964844 -10.390625 C 9.261719 -10.144531 9.585938 -9.910156 9.910156 -9.746094 C 10.574219 -9.390625 11.136719 -8.949219 11.746094 -8.566406 C 12.199219 -8.285156 12.621094 -7.992188 13.105469 -7.867188 C 13.375 -7.820312 13.644531 -7.699219 13.871094 -7.59375 L 14.324219 -7.386719 C 14.609375 -7.308594 14.882812 -7.332031 15.15625 -7.425781 C 15.382812 -7.464844 15.574219 -7.589844 15.789062 -7.660156 C 16.21875 -7.792969 16.652344 -7.925781 17.042969 -8.148438 C 17.101562 -8.175781 17.15625 -8.203125 17.230469 -8.203125 C 17.503906 -8.296875 17.777344 -8.464844 18.007812 -8.644531 C 18.417969 -8.980469 18.566406 -9.40625 18.476562 -9.964844 C 18.386719 -10.453125 18.238281 -10.914062 18.148438 -11.402344 C 18.125 -11.601562 18.070312 -11.789062 17.960938 -11.949219 C 17.722656 -12.367188 17.488281 -12.785156 17.3125 -13.234375 C 16.871094 -14.15625 16.417969 -15.039062 16.007812 -15.976562 C 15.582031 -17.011719 15.015625 -17.980469 14.652344 -19.046875 L 14.445312 -19.480469 C 14.234375 -19.769531 14.113281 -20.101562 13.960938 -20.417969 C 13.828125 -20.777344 13.691406 -21.136719 13.46875 -21.457031 C 13.203125 -21.789062 13.011719 -22.195312 12.917969 -22.609375 C 12.878906 -22.839844 12.824219 -23.027344 12.699219 -23.214844 C 12.476562 -23.535156 12.242188 -23.882812 12.105469 -24.242188 L 11.84375 -24.789062 C 11.722656 -25.050781 11.585938 -25.339844 11.519531 -25.625 L 11.085938 -26.835938 C 10.917969 -27.183594 10.796875 -27.585938 10.777344 -28 L 10.753906 -29.085938 C 10.714844 -29.246094 10.746094 -29.402344 10.691406 -29.515625 C 10.625 -29.660156 10.582031 -29.675781 10.4375 -29.679688 L 10.121094 -29.597656 C 9.660156 -29.449219 9.230469 -29.246094 8.808594 -29.007812 C 8.621094 -28.882812 8.40625 -28.746094 8.171875 -28.636719 C 7.898438 -28.542969 7.613281 -28.402344 7.351562 -28.28125 Z M 7.351562 -28.28125 "/></g></g></g><g fill="#ffffff" fill-opacity="1"><g transform="translate(255.485462, 283.675837)"><g><path d="M -5.425781 -25.378906 C -5.433594 -25.289062 -5.503906 -25.273438 -5.550781 -25.230469 C -5.652344 -25.148438 -5.75 -25.066406 -5.824219 -24.960938 C -6.050781 -24.730469 -6.273438 -24.5 -6.542969 -24.273438 C -6.792969 -24.023438 -6.996094 -23.765625 -7.15625 -23.464844 L -7.695312 -22.511719 C -8.007812 -22.039062 -8.300781 -21.542969 -8.480469 -21.015625 C -8.789062 -20.089844 -9.070312 -19.183594 -9.109375 -18.1875 L -9.105469 -16.941406 L -9.140625 -15.992188 C -9.15625 -15.5625 -9.101562 -15.148438 -8.933594 -14.746094 C -8.796875 -14.484375 -8.730469 -14.207031 -8.707031 -13.933594 C -8.671875 -13.546875 -8.589844 -13.199219 -8.4375 -12.867188 C -8.058594 -12.015625 -7.652344 -11.1875 -7.222656 -10.378906 C -7.105469 -10.1875 -6.984375 -9.996094 -6.816406 -9.84375 C -6.667969 -9.71875 -6.519531 -9.59375 -6.375 -9.421875 C -6.046875 -9.03125 -5.695312 -8.660156 -5.339844 -8.289062 C -4.925781 -7.84375 -4.457031 -7.484375 -3.9375 -7.167969 C -3.46875 -6.855469 -2.945312 -6.585938 -2.449219 -6.292969 C -2.0625 -6.03125 -1.644531 -5.882812 -1.207031 -5.707031 C -1.054688 -5.625 -0.878906 -5.566406 -0.699219 -5.550781 C -0.0742188 -5.449219 0.507812 -5.355469 1.140625 -5.300781 L 1.746094 -5.226562 C 2.210938 -5.117188 2.6875 -5.097656 3.152344 -5.238281 C 3.363281 -5.289062 3.589844 -5.316406 3.839844 -5.316406 C 4.292969 -5.324219 4.753906 -5.375 5.21875 -5.515625 C 5.546875 -5.621094 5.894531 -5.707031 6.214844 -5.769531 C 7.257812 -6.019531 8.160156 -6.484375 9.003906 -7.070312 L 10.097656 -7.90625 C 10.578125 -8.226562 11.042969 -8.617188 11.484375 -8.988281 C 11.558594 -9.050781 11.613281 -9.136719 11.683594 -9.199219 C 11.886719 -9.453125 12.09375 -9.707031 12.316406 -9.9375 C 12.621094 -10.320312 12.96875 -10.652344 13.230469 -11.082031 C 13.492188 -11.46875 13.773438 -11.828125 13.902344 -12.273438 C 14.015625 -12.535156 14.128906 -12.796875 14.308594 -13.03125 C 14.492188 -13.308594 14.699219 -13.609375 14.796875 -13.941406 C 14.910156 -14.203125 14.976562 -14.46875 15.023438 -14.761719 C 15.136719 -15.273438 15.066406 -15.757812 14.832031 -16.183594 C 14.753906 -16.371094 14.609375 -16.5 14.507812 -16.667969 C 14.226562 -17.054688 13.941406 -17.441406 13.609375 -17.789062 C 13.542969 -17.816406 13.5 -17.863281 13.460938 -17.914062 C 13.269531 -18.089844 13.058594 -18.242188 12.964844 -18.5 C 12.835938 -18.808594 12.628906 -19.050781 12.402344 -19.320312 C 12.070312 -19.667969 11.808594 -20.074219 11.574219 -20.503906 C 11.257812 -21.03125 10.964844 -21.578125 10.835938 -22.179688 L 10.695312 -22.644531 L 10.539062 -22.976562 C 10.375 -23.171875 10.246094 -23.226562 10.027344 -23.089844 C 9.910156 -23.03125 9.792969 -22.972656 9.695312 -22.890625 C 9.007812 -22.3125 8.34375 -21.714844 7.617188 -21.1875 C 7.207031 -20.882812 6.855469 -20.503906 6.464844 -20.175781 C 5.921875 -19.675781 5.316406 -19.207031 4.75 -18.734375 C 4.628906 -18.632812 4.507812 -18.53125 4.449219 -18.398438 C 4.347656 -18.269531 4.367188 -18.203125 4.445312 -18.058594 C 4.527344 -17.960938 4.613281 -17.90625 4.699219 -17.855469 C 5.046875 -17.6875 5.320312 -17.460938 5.621094 -17.253906 L 6.839844 -16.398438 C 7.09375 -16.195312 7.347656 -15.949219 7.597656 -15.699219 C 8.019531 -15.34375 8.347656 -14.953125 8.628906 -14.519531 C 8.804688 -14.210938 8.988281 -13.945312 9.238281 -13.695312 C 9.449219 -13.496094 9.632812 -13.277344 9.820312 -13.054688 C 10.085938 -12.738281 10.105469 -12.464844 9.871094 -12.097656 C 9.539062 -11.652344 9.160156 -11.207031 8.738281 -10.8125 C 8.5625 -10.625 8.371094 -10.503906 8.179688 -10.386719 C 7.941406 -10.226562 7.722656 -10.085938 7.464844 -9.992188 C 6.859375 -9.820312 6.28125 -9.664062 5.6875 -9.625 C 5.457031 -9.601562 5.234375 -9.621094 4.988281 -9.664062 L 3.960938 -9.84375 C 3.113281 -10.007812 2.347656 -10.367188 1.648438 -10.90625 C 1.371094 -11.132812 1.117188 -11.335938 0.8125 -11.5 C 0.6875 -11.601562 0.578125 -11.679688 0.429688 -11.757812 C -0.1875 -12.242188 -0.683594 -12.832031 -1.222656 -13.378906 C -1.367188 -13.546875 -1.507812 -13.765625 -1.652344 -13.9375 C -2.042969 -14.402344 -2.339844 -14.902344 -2.636719 -15.40625 C -2.914062 -15.882812 -3.070312 -16.417969 -3.300781 -16.890625 C -3.492188 -17.316406 -3.613281 -17.757812 -3.808594 -18.136719 C -3.960938 -18.46875 -4 -18.8125 -3.972656 -19.128906 C -3.9375 -19.53125 -3.945312 -19.941406 -4 -20.355469 C -4.050781 -20.5625 -4.03125 -20.789062 -3.96875 -21.007812 C -3.820312 -21.632812 -3.546875 -22.199219 -3.226562 -22.761719 C -3.089844 -23 -2.917969 -23.1875 -2.695312 -23.371094 L -1.71875 -24.195312 C -1.546875 -24.339844 -1.355469 -24.457031 -1.167969 -24.535156 C -0.765625 -24.703125 -0.324219 -24.824219 0.0507812 -24.972656 C 0.332031 -25.085938 0.636719 -25.171875 0.910156 -25.191406 L 1.503906 -25.230469 C 2.625 -25.339844 3.730469 -25.265625 4.835938 -24.945312 C 4.945312 -24.910156 5.035156 -24.902344 5.152344 -24.917969 C 5.46875 -24.933594 5.550781 -25.085938 5.371094 -25.351562 L 5.347656 -25.375 C 5.167969 -25.640625 4.984375 -25.863281 4.726562 -26.066406 C 4.472656 -26.269531 4.238281 -26.449219 4.058594 -26.710938 C 3.898438 -26.953125 3.710938 -27.171875 3.546875 -27.371094 C 3.171875 -27.765625 2.796875 -28.113281 2.464844 -28.507812 C 2.183594 -28.894531 1.828125 -29.265625 1.519531 -29.632812 C 1.4375 -29.730469 1.355469 -29.828125 1.25 -29.90625 C 1.082031 -30.054688 0.960938 -29.996094 0.902344 -29.820312 L 0.816406 -29.375 C 0.765625 -29.039062 0.628906 -28.757812 0.378906 -28.503906 C 0.15625 -28.277344 -0.0898438 -28.070312 -0.355469 -27.886719 C -0.667969 -27.667969 -1.042969 -27.515625 -1.414062 -27.457031 C -1.640625 -27.433594 -1.851562 -27.382812 -2.058594 -27.332031 C -2.503906 -27.167969 -2.957031 -26.910156 -3.359375 -26.695312 C -3.859375 -26.445312 -4.296875 -26.121094 -4.75 -25.863281 C -4.917969 -25.765625 -5.042969 -25.617188 -5.207031 -25.5625 Z M -5.425781 -25.378906 "/></g></g></g><path fill="#f1d85a" d="M 147.582031 151.335938 L 157.761719 147.75 L 159.214844 151.882812 L 149.035156 155.464844 Z M 147.582031 151.335938 " fill-opacity="1" fill-rule="nonzero"/><path fill="#f1d85a" d="M 147.566406 160.089844 L 164.582031 154.101562 L 166.035156 158.230469 L 149.019531 164.222656 Z M 147.566406 160.089844 " fill-opacity="1" fill-rule="nonzero"/><path fill="#f1d85a" d="M 211.160156 206.703125 L 212.699219 202.605469 L 222.902344 206.429688 L 221.363281 210.53125 Z M 211.160156 206.703125 " fill-opacity="1" fill-rule="nonzero"/><path fill="#f1d85a" d="M 202.433594 213.265625 L 203.96875 209.164062 L 224.9375 217.027344 L 223.402344 221.128906 Z M 202.433594 213.265625 " fill-opacity="1" fill-rule="nonzero"/><path fill="#f1d85a" d="M 191.25 137.582031 C 189.953125 137.476562 188.644531 137.425781 187.359375 137.425781 L 187.359375 133.046875 C 188.761719 133.046875 190.1875 133.105469 191.597656 133.214844 Z M 191.25 137.582031 " fill-opacity="1" fill-rule="nonzero"/><path fill="#f1d85a" d="M 236.769531 172.886719 L 222.105469 167.28125 L 223.671875 163.195312 L 234.316406 167.269531 L 238.558594 156.773438 L 242.617188 158.414062 Z M 236.769531 172.886719 " fill-opacity="1" fill-rule="nonzero"/><path fill="#f1d85a" d="M 136.148438 214.414062 L 132.089844 212.773438 L 137.949219 198.277344 L 152.585938 203.871094 L 151.019531 207.960938 L 140.402344 203.898438 Z M 136.148438 214.414062 " fill-opacity="1" fill-rule="nonzero"/><path fill="#f1d85a" d="M 164.304688 138.796875 C 162.113281 136.761719 161.09375 134.054688 161.09375 130.289062 C 161.09375 129.523438 161.199219 128.863281 161.265625 128.429688 L 161.3125 128.125 L 165.664062 128.617188 C 165.644531 128.761719 165.621094 128.925781 165.59375 129.117188 C 165.542969 129.425781 165.472656 129.832031 165.472656 130.292969 C 165.472656 132.863281 165.996094 134.398438 167.285156 135.59375 L 164.304688 138.804688 Z M 164.304688 138.796875 " fill-opacity="1" fill-rule="nonzero"/><path fill="#f1d85a" d="M 235.8125 199.164062 L 237.976562 198.832031 L 235.796875 199.058594 C 235.65625 198.140625 235.515625 197.183594 235.515625 196.527344 C 235.515625 193.554688 236.007812 191.039062 238.410156 188.4375 L 241.625 191.410156 C 240.296875 192.847656 239.890625 194.042969 239.890625 196.527344 C 239.890625 196.902344 240.0625 198.019531 240.117188 198.390625 L 235.808594 199.164062 Z M 235.8125 199.164062 " fill-opacity="1" fill-rule="nonzero"/><g clip-path="url(#c12b9c2523)"><path fill="#f1d85a" d="M 175.359375 153.46875 L 169.980469 138.066406 L 134.800781 150.175781 C 130.414062 151.710938 126.074219 148.335938 126.074219 143.992188 C 126.074219 141.222656 127.835938 138.742188 130.460938 137.816406 L 168.996094 124.082031 L 170.46875 128.207031 L 131.921875 141.941406 C 131.039062 142.253906 130.449219 143.078125 130.449219 143.992188 C 130.449219 145.203125 131.429688 146.183594 132.636719 146.183594 C 132.855469 146.183594 133.09375 146.136719 133.363281 146.042969 L 172.671875 132.511719 L 179.492188 152.027344 L 175.359375 153.472656 Z M 175.359375 153.46875 " fill-opacity="1" fill-rule="nonzero"/></g><path fill="#f1d85a" d="M 238.503906 217.039062 L 234.4375 215.414062 L 239.855469 201.871094 L 206.949219 189.53125 C 204.394531 188.574219 202.683594 186.109375 202.683594 183.394531 C 202.683594 179.773438 205.628906 176.828125 209.25 176.828125 C 210.015625 176.828125 210.792969 176.972656 211.550781 177.257812 L 248.980469 190.847656 L 247.484375 194.964844 L 210.03125 181.367188 C 209.742188 181.253906 209.492188 181.207031 209.25 181.207031 C 208.042969 181.207031 207.058594 182.1875 207.058594 183.398438 C 207.058594 184.308594 207.621094 185.109375 208.484375 185.433594 L 245.578125 199.34375 L 238.503906 217.042969 Z M 238.503906 217.039062 " fill-opacity="1" fill-rule="nonzero"/><path fill="#f1d85a" d="M 178.226562 237.324219 C 159.195312 233.988281 143.050781 220.03125 137.09375 201.765625 L 141.257812 200.410156 C 146.71875 217.152344 161.527344 229.953125 178.984375 233.015625 L 178.226562 237.328125 Z M 178.226562 237.324219 " fill-opacity="1" fill-rule="nonzero"/><path fill="#f1d85a" d="M 233.460938 170.753906 C 228.003906 154.011719 213.191406 141.214844 195.738281 138.152344 L 196.492188 133.839844 C 215.523438 137.175781 231.667969 151.132812 237.625 169.398438 Z M 233.460938 170.753906 " fill-opacity="1" fill-rule="nonzero"/><g clip-path="url(#2d26c77d56)"><path fill="#f1d85a" d="M 147.957031 194.335938 C 145.152344 194.335938 142.660156 192.542969 141.753906 189.871094 L 126.417969 146.105469 L 130.546875 144.652344 L 145.894531 188.445312 C 146.207031 189.359375 147.03125 189.960938 147.957031 189.960938 C 148.171875 189.960938 148.402344 189.914062 148.664062 189.824219 L 183.75 177.488281 L 174.59375 151.28125 L 178.726562 149.835938 L 189.328125 180.167969 L 150.117188 193.953125 C 149.394531 194.207031 148.667969 194.335938 147.960938 194.335938 Z M 147.957031 194.335938 " fill-opacity="1" fill-rule="nonzero"/></g><g clip-path="url(#4d52ebf5a4)"><path fill="#f1d85a" d="M 226.441406 247.203125 L 189.425781 233.304688 C 186.878906 232.34375 185.167969 229.882812 185.167969 227.171875 C 185.167969 226.398438 185.316406 225.621094 185.605469 224.859375 L 203.125 181.023438 L 207.191406 182.648438 L 189.6875 226.445312 C 189.597656 226.675781 189.550781 226.925781 189.550781 227.171875 C 189.550781 228.082031 190.105469 228.882812 190.96875 229.207031 L 223.96875 241.597656 L 235.3125 213.226562 L 239.378906 214.851562 Z M 226.441406 247.203125 " fill-opacity="1" fill-rule="nonzero"/></g></svg>